<svg width="1072" height="294" viewBox="0 0 1072 294" fill="none" xmlns="http://www.w3.org/2000/svg">
<path d="M123.613 172.957C123.544 172.957 123.647 172.58 123.922 171.825C124.265 171.002 125.019 170.213 126.186 169.458C127.353 168.703 129.274 168.291 131.95 168.223C134.352 168.154 136.17 168.463 137.405 169.149C138.64 169.767 139.464 170.384 139.876 171.002C140.356 171.619 140.596 171.928 140.596 171.928C140.596 171.928 140.973 172.82 141.728 174.604C142.483 176.388 143.512 178.756 144.816 181.706C146.12 184.588 147.561 187.814 149.139 191.382C150.717 194.95 152.296 198.587 153.874 202.292C155.521 205.929 157.03 209.36 158.403 212.585C159.844 215.742 161.045 218.418 162.005 220.614C162.966 222.741 163.583 224.079 163.858 224.628C164.476 225.932 164.819 226.858 164.887 227.407C164.956 227.956 164.922 228.333 164.784 228.539C164.716 228.676 164.681 228.779 164.681 228.848C164.201 229.809 163.24 230.632 161.799 231.318C160.427 232.073 158.746 232.485 156.756 232.553C154.011 232.622 152.021 232.313 150.786 231.627C149.551 231.009 148.727 230.357 148.316 229.671C147.973 229.054 147.835 228.779 147.904 228.848C147.904 228.848 147.527 228.059 146.772 226.48C146.086 224.902 145.262 223.015 144.301 220.819C143.341 218.555 142.449 216.496 141.625 214.644C141.625 214.644 141.145 214.644 140.184 214.644C139.292 214.644 138.229 214.644 136.994 214.644C135.758 214.644 134.66 214.644 133.7 214.644C132.808 214.644 132.362 214.644 132.362 214.644C132.087 215.604 131.813 216.805 131.538 218.246C131.264 219.619 131.024 220.854 130.818 221.952C130.612 223.05 130.509 223.598 130.509 223.598C130.509 223.598 130.337 224.01 129.994 224.834C129.72 225.657 128.931 226.48 127.627 227.304C126.323 228.127 124.162 228.539 121.142 228.539C118.878 228.539 117.163 228.299 115.996 227.819C114.898 227.27 114.143 226.652 113.732 225.966C113.389 225.28 113.217 224.696 113.217 224.216C113.217 223.667 113.217 223.393 113.217 223.393C113.354 222.706 113.629 221.3 114.04 219.173C114.521 216.977 115.07 214.369 115.687 211.35C116.373 208.262 117.06 205.003 117.746 201.572C118.501 198.141 119.221 194.744 119.907 191.382C120.594 188.019 121.211 184.966 121.76 182.221C122.309 179.408 122.755 177.178 123.098 175.531C123.441 173.815 123.613 172.957 123.613 172.957ZM134.42 189.22C134.352 189.495 134.283 190.044 134.214 190.867L133.803 193.749C133.666 195.327 133.494 197.009 133.288 198.793C133.082 200.577 132.876 202.258 132.671 203.836C132.533 204.66 132.43 205.174 132.362 205.38H133.7C134.523 205.38 135.415 205.346 136.376 205.277C137.337 205.209 138.194 205.174 138.949 205.174C138.675 204.625 138.435 203.939 138.229 203.116C138.091 202.224 137.92 201.4 137.714 200.645C137.302 199.067 136.822 197.42 136.273 195.705C135.793 193.989 135.347 192.377 134.935 190.867C134.729 190.044 134.558 189.495 134.42 189.22ZM177.868 228.539C175.329 228.539 173.407 228.196 172.104 227.51C170.868 226.824 170.045 226.034 169.633 225.142C169.222 224.25 169.016 223.461 169.016 222.775C169.016 222.089 169.016 221.746 169.016 221.746L167.781 177.075C167.781 177.075 167.746 176.732 167.678 176.045C167.609 175.359 167.746 174.57 168.089 173.678C168.432 172.717 169.153 171.894 170.251 171.208C171.349 170.453 173.064 170.075 175.397 170.075C178.485 170.007 180.818 170.453 182.396 171.414C183.975 172.306 185.004 173.232 185.484 174.193C186.033 175.085 186.308 175.531 186.308 175.531L198.145 197.043C198.145 197.043 198.419 196.425 198.968 195.19C199.586 193.886 200.306 192.274 201.129 190.352C202.022 188.431 202.914 186.475 203.806 184.486C204.698 182.496 205.487 180.78 206.173 179.339C206.859 177.829 207.305 176.869 207.511 176.457C207.854 175.771 208.472 174.845 209.364 173.678C210.256 172.443 211.525 171.311 213.172 170.281C214.888 169.252 217.118 168.703 219.863 168.634C221.921 168.566 223.499 168.806 224.597 169.355C225.695 169.835 226.45 170.419 226.862 171.105C227.342 171.791 227.617 172.409 227.685 172.957C227.754 173.506 227.788 173.781 227.788 173.781C227.788 173.781 227.788 174.673 227.788 176.457C227.788 178.173 227.788 180.471 227.788 183.353C227.857 186.235 227.891 189.392 227.891 192.823C227.891 196.254 227.891 199.719 227.891 203.219C227.891 206.65 227.891 209.806 227.891 212.688C227.96 215.57 227.994 217.903 227.994 219.687C227.994 221.471 227.994 222.398 227.994 222.466C227.994 222.535 227.96 222.878 227.891 223.496C227.891 224.113 227.651 224.834 227.17 225.657C226.69 226.412 225.832 227.098 224.597 227.716C223.431 228.265 221.681 228.539 219.348 228.539C217.015 228.539 215.231 228.299 213.996 227.819C212.829 227.27 212.006 226.686 211.525 226.069C211.045 225.383 210.77 224.799 210.702 224.319C210.633 223.839 210.599 223.598 210.599 223.598C210.599 223.598 210.599 223.015 210.599 221.849C210.599 220.614 210.599 219.104 210.599 217.32C210.668 215.467 210.702 213.649 210.702 211.865C210.77 210.012 210.805 208.468 210.805 207.233C210.805 205.998 210.805 205.38 210.805 205.38L211.628 190.661L206.276 202.086C206.276 202.086 206.07 202.464 205.658 203.219C205.315 203.973 204.629 204.728 203.6 205.483C202.57 206.238 201.027 206.65 198.968 206.718C196.978 206.787 195.4 206.512 194.233 205.895C193.135 205.209 192.346 204.557 191.866 203.939C191.454 203.253 191.248 202.91 191.248 202.91L184.558 190.661C184.558 190.661 184.592 191.485 184.661 193.132C184.798 194.71 184.935 196.803 185.073 199.41C185.21 201.949 185.347 204.66 185.484 207.542C185.622 210.355 185.724 213.031 185.793 215.57C185.93 218.04 186.033 220.03 186.102 221.54C186.17 223.393 185.793 224.834 184.97 225.863C184.146 226.824 183.186 227.51 182.088 227.921C180.99 228.265 179.995 228.47 179.103 228.539C178.279 228.539 177.868 228.539 177.868 228.539ZM293.382 228.539C290.843 228.539 288.922 228.196 287.618 227.51C286.383 226.824 285.559 226.034 285.148 225.142C284.736 224.25 284.53 223.461 284.53 222.775C284.53 222.089 284.53 221.746 284.53 221.746L283.295 177.075C283.295 177.075 283.261 176.732 283.192 176.045C283.123 175.359 283.261 174.57 283.604 173.678C283.947 172.717 284.667 171.894 285.765 171.208C286.863 170.453 288.579 170.075 290.912 170.075C293.999 170.007 296.333 170.453 297.911 171.414C299.489 172.306 300.518 173.232 300.999 174.193C301.548 175.085 301.822 175.531 301.822 175.531L313.659 197.043C313.659 197.043 313.933 196.425 314.482 195.19C315.1 193.886 315.82 192.274 316.644 190.352C317.536 188.431 318.428 186.475 319.32 184.486C320.212 182.496 321.001 180.78 321.687 179.339C322.374 177.829 322.82 176.869 323.025 176.457C323.368 175.771 323.986 174.845 324.878 173.678C325.77 172.443 327.04 171.311 328.686 170.281C330.402 169.252 332.632 168.703 335.377 168.634C337.435 168.566 339.014 168.806 340.112 169.355C341.209 169.835 341.964 170.419 342.376 171.105C342.856 171.791 343.131 172.409 343.199 172.957C343.268 173.506 343.302 173.781 343.302 173.781C343.302 173.781 343.302 174.673 343.302 176.457C343.302 178.173 343.302 180.471 343.302 183.353C343.371 186.235 343.405 189.392 343.405 192.823C343.405 196.254 343.405 199.719 343.405 203.219C343.405 206.65 343.405 209.806 343.405 212.688C343.474 215.57 343.508 217.903 343.508 219.687C343.508 221.471 343.508 222.398 343.508 222.466C343.508 222.535 343.474 222.878 343.405 223.496C343.405 224.113 343.165 224.834 342.685 225.657C342.204 226.412 341.347 227.098 340.112 227.716C338.945 228.265 337.195 228.539 334.862 228.539C332.529 228.539 330.745 228.299 329.51 227.819C328.343 227.27 327.52 226.686 327.04 226.069C326.559 225.383 326.285 224.799 326.216 224.319C326.148 223.839 326.113 223.598 326.113 223.598C326.113 223.598 326.113 223.015 326.113 221.849C326.113 220.614 326.113 219.104 326.113 217.32C326.182 215.467 326.216 213.649 326.216 211.865C326.285 210.012 326.319 208.468 326.319 207.233C326.319 205.998 326.319 205.38 326.319 205.38L327.143 190.661L321.79 202.086C321.79 202.086 321.584 202.464 321.173 203.219C320.83 203.973 320.143 204.728 319.114 205.483C318.085 206.238 316.541 206.65 314.482 206.718C312.492 206.787 310.914 206.512 309.748 205.895C308.65 205.209 307.861 204.557 307.38 203.939C306.968 203.253 306.763 202.91 306.763 202.91L300.072 190.661C300.072 190.661 300.107 191.485 300.175 193.132C300.312 194.71 300.45 196.803 300.587 199.41C300.724 201.949 300.861 204.66 300.999 207.542C301.136 210.355 301.239 213.031 301.307 215.57C301.445 218.04 301.548 220.03 301.616 221.54C301.685 223.393 301.307 224.834 300.484 225.863C299.661 226.824 298.7 227.51 297.602 227.921C296.504 228.265 295.509 228.47 294.617 228.539C293.794 228.539 293.382 228.539 293.382 228.539ZM347.084 176.354C347.084 176.354 347.016 176.08 346.878 175.531C346.741 174.913 346.775 174.193 346.981 173.369C347.256 172.546 347.873 171.791 348.834 171.105C349.863 170.419 351.476 169.973 353.672 169.767C355.867 169.561 358.338 169.389 361.083 169.252C363.896 169.115 366.572 168.978 369.111 168.84C371.719 168.703 373.846 168.6 375.493 168.532C377.139 168.463 377.963 168.429 377.963 168.429C377.963 168.429 378.409 168.463 379.301 168.532C380.262 168.532 381.36 168.669 382.595 168.943C383.898 169.149 385.065 169.595 386.094 170.281C387.124 170.899 387.741 171.825 387.947 173.06C388.153 174.296 387.913 175.256 387.226 175.942C386.54 176.629 385.717 177.143 384.756 177.486C383.795 177.761 382.938 177.932 382.183 178.001C381.428 178.07 381.051 178.104 381.051 178.104L364.582 179.03C364.582 179.03 364.685 179.476 364.891 180.368C365.097 181.26 365.303 182.29 365.508 183.456C365.783 184.554 365.954 185.515 366.023 186.338C366.092 187.093 366.16 188.088 366.229 189.323C366.298 190.49 366.366 191.553 366.435 192.514C366.503 193.406 366.538 193.852 366.538 193.852H374.154C374.154 193.852 374.532 193.886 375.287 193.955C376.042 193.955 376.899 194.092 377.86 194.367C378.889 194.573 379.781 194.916 380.536 195.396C381.291 195.876 381.703 196.597 381.771 197.557C381.84 198.793 381.36 199.719 380.33 200.337C379.37 200.954 378.34 201.366 377.242 201.572C376.213 201.709 375.561 201.812 375.287 201.88C375.081 201.88 374.532 201.915 373.64 201.983C372.748 201.983 371.753 201.983 370.655 201.983C369.626 201.983 368.699 201.983 367.876 201.983C367.052 201.983 366.641 201.983 366.641 201.983C366.641 201.983 366.641 202.498 366.641 203.527C366.709 204.488 366.778 205.62 366.847 206.924C366.915 208.228 366.915 209.36 366.847 210.321C366.847 211.213 366.812 212.311 366.744 213.614C366.675 214.85 366.606 215.947 366.538 216.908C366.469 217.8 366.435 218.246 366.435 218.246L380.33 217.732C380.33 217.732 380.776 217.732 381.668 217.732C382.56 217.663 383.624 217.732 384.859 217.937C386.094 218.143 387.192 218.555 388.153 219.173C389.113 219.79 389.628 220.716 389.697 221.952C389.834 223.187 389.491 224.182 388.667 224.937C387.844 225.691 386.883 226.24 385.785 226.583C384.688 226.927 383.693 227.167 382.801 227.304C381.977 227.373 381.565 227.407 381.565 227.407L359.333 228.539C359.333 228.539 358.784 228.539 357.686 228.539C356.657 228.608 355.456 228.539 354.083 228.333C352.711 228.059 351.51 227.544 350.481 226.789C349.452 225.966 348.971 224.731 349.04 223.084C349.177 220.888 349.314 217.457 349.452 212.791C349.589 208.056 349.52 202.532 349.246 196.219C348.971 189.906 348.251 183.285 347.084 176.354ZM395.155 222.878L393.2 174.296C393.2 174.296 393.2 174.021 393.2 173.472C393.268 172.923 393.508 172.306 393.92 171.619C394.332 170.865 395.087 170.213 396.184 169.664C397.351 169.046 399.032 168.703 401.228 168.634C404.179 168.497 406.272 168.84 407.507 169.664C408.81 170.419 409.6 171.242 409.874 172.134C410.217 172.957 410.389 173.404 410.389 173.472C410.389 173.541 410.423 174.33 410.492 175.839C410.56 177.349 410.629 179.202 410.697 181.398C410.766 183.593 410.835 185.789 410.903 187.985C410.972 190.181 411.041 192.034 411.109 193.543C411.178 194.984 411.212 195.705 411.212 195.705L422.123 195.087L420.476 174.398C420.476 174.398 420.441 174.158 420.373 173.678C420.373 173.129 420.51 172.511 420.784 171.825C421.128 171.07 421.814 170.384 422.843 169.767C423.941 169.08 425.554 168.634 427.681 168.429C429.877 168.223 431.558 168.36 432.724 168.84C433.891 169.252 434.748 169.801 435.297 170.487C435.846 171.173 436.155 171.791 436.224 172.34C436.361 172.889 436.43 173.163 436.43 173.163L439.62 221.231C439.62 221.231 439.655 221.609 439.723 222.363C439.792 223.05 439.689 223.907 439.415 224.937C439.14 225.897 438.454 226.755 437.356 227.51C436.327 228.196 434.714 228.539 432.518 228.539C430.323 228.539 428.607 228.23 427.372 227.613C426.137 226.995 425.245 226.309 424.696 225.554C424.147 224.731 423.804 224.01 423.666 223.393C423.529 222.775 423.461 222.466 423.461 222.466L422.74 202.704L411.521 203.321L412.447 223.496C412.447 223.496 412.413 223.77 412.344 224.319C412.276 224.799 412.001 225.383 411.521 226.069C411.041 226.686 410.217 227.27 409.051 227.819C407.884 228.299 406.169 228.539 403.904 228.539C401.64 228.539 399.89 228.265 398.655 227.716C397.488 227.098 396.665 226.446 396.184 225.76C395.704 225.005 395.395 224.353 395.258 223.804C395.189 223.187 395.155 222.878 395.155 222.878ZM500.614 168.12C500.614 168.12 501.197 168.051 502.364 167.914C503.53 167.777 504.903 167.948 506.481 168.429C508.128 168.909 509.534 170.075 510.701 171.928C511.456 173.095 512.21 174.501 512.965 176.148C513.789 177.727 514.509 179.305 515.127 180.883C515.813 182.461 516.362 183.765 516.774 184.794C517.185 185.824 517.391 186.338 517.391 186.338L523.567 171.311C523.567 171.311 523.807 171.002 524.287 170.384C524.836 169.767 525.694 169.183 526.861 168.634C528.096 168.086 529.777 167.88 531.904 168.017C538.149 168.429 540.447 170.384 538.8 173.884C538.457 174.57 537.84 175.839 536.948 177.692C536.056 179.476 535.026 181.501 533.86 183.765C532.762 185.961 531.664 188.122 530.566 190.25C529.537 192.377 528.679 194.127 527.993 195.499C527.307 196.871 526.964 197.557 526.964 197.557L527.478 222.672C527.478 222.672 527.478 222.981 527.478 223.598C527.547 224.147 527.41 224.834 527.067 225.657C526.723 226.412 526.003 227.098 524.905 227.716C523.807 228.265 522.126 228.539 519.862 228.539C516.842 228.539 514.612 228.127 513.171 227.304C511.799 226.48 510.941 225.588 510.598 224.628C510.255 223.598 510.083 222.844 510.083 222.363C510.083 222.089 510.049 221.06 509.98 219.275C509.98 217.491 509.98 215.398 509.98 212.997C509.98 210.595 509.946 208.193 509.877 205.792C509.877 203.39 509.843 201.4 509.775 199.822C509.775 198.244 509.775 197.455 509.775 197.455L496.085 175.634C496.085 175.634 495.879 175.325 495.467 174.707C495.056 174.09 494.781 173.369 494.644 172.546C494.575 171.654 494.953 170.796 495.776 169.973C496.6 169.149 498.212 168.532 500.614 168.12ZM659.588 179.648C658.696 179.785 657.427 179.888 655.78 179.957C654.133 179.957 652.452 179.854 650.736 179.648C649.021 179.442 647.546 179.065 646.31 178.516C645.075 177.898 644.389 177.006 644.252 175.839C644.183 174.673 644.526 173.747 645.281 173.06C646.105 172.374 647.065 171.86 648.163 171.516C649.261 171.105 650.222 170.865 651.045 170.796C651.937 170.659 652.383 170.59 652.383 170.59L681.203 167.914C681.203 167.914 681.684 167.914 682.644 167.914C683.605 167.845 684.703 167.88 685.938 168.017C687.242 168.154 688.408 168.497 689.438 169.046C690.467 169.527 691.016 170.316 691.085 171.414C691.222 172.511 690.879 173.438 690.055 174.193C689.3 174.879 688.374 175.462 687.276 175.942C686.178 176.354 685.218 176.663 684.394 176.869C683.571 177.006 683.159 177.075 683.159 177.075L676.572 178.104C676.846 179.819 677.155 182.255 677.498 185.412C677.841 188.5 678.184 191.931 678.527 195.705C678.87 199.479 679.179 203.184 679.454 206.821C679.728 210.458 679.934 213.717 680.071 216.599C680.277 219.481 680.38 221.54 680.38 222.775C680.38 224.353 679.934 225.554 679.042 226.378C678.218 227.132 677.223 227.681 676.057 228.024C674.959 228.299 673.964 228.47 673.072 228.539C672.249 228.539 671.837 228.539 671.837 228.539C671.837 228.539 671.391 228.539 670.499 228.539C669.607 228.47 668.577 228.196 667.411 227.716C666.313 227.235 665.318 226.343 664.426 225.039C663.603 223.736 663.191 221.78 663.191 219.173C663.191 216.839 663.054 213.992 662.779 210.629C662.573 207.267 662.299 203.802 661.956 200.234C661.613 196.597 661.235 193.234 660.823 190.147C660.48 187.059 660.172 184.554 659.897 182.633C659.691 180.643 659.588 179.648 659.588 179.648ZM701.989 172.957C701.92 172.957 702.023 172.58 702.297 171.825C702.64 171.002 703.395 170.213 704.562 169.458C705.728 168.703 707.65 168.291 710.326 168.223C712.727 168.154 714.546 168.463 715.781 169.149C717.016 169.767 717.84 170.384 718.251 171.002C718.732 171.619 718.972 171.928 718.972 171.928C718.972 171.928 719.349 172.82 720.104 174.604C720.859 176.388 721.888 178.756 723.192 181.706C724.496 184.588 725.937 187.814 727.515 191.382C729.093 194.95 730.671 198.587 732.25 202.292C733.896 205.929 735.406 209.36 736.778 212.585C738.219 215.742 739.42 218.418 740.381 220.614C741.342 222.741 741.959 224.079 742.234 224.628C742.851 225.932 743.194 226.858 743.263 227.407C743.332 227.956 743.297 228.333 743.16 228.539C743.091 228.676 743.057 228.779 743.057 228.848C742.577 229.809 741.616 230.632 740.175 231.318C738.803 232.073 737.122 232.485 735.132 232.553C732.387 232.622 730.397 232.313 729.162 231.627C727.927 231.009 727.103 230.357 726.691 229.671C726.348 229.054 726.211 228.779 726.28 228.848C726.28 228.848 725.902 228.059 725.148 226.48C724.461 224.902 723.638 223.015 722.677 220.819C721.717 218.555 720.825 216.496 720.001 214.644C720.001 214.644 719.521 214.644 718.56 214.644C717.668 214.644 716.604 214.644 715.369 214.644C714.134 214.644 713.036 214.644 712.076 214.644C711.183 214.644 710.737 214.644 710.737 214.644C710.463 215.604 710.189 216.805 709.914 218.246C709.64 219.619 709.399 220.854 709.194 221.952C708.988 223.05 708.885 223.598 708.885 223.598C708.885 223.598 708.713 224.01 708.37 224.834C708.096 225.657 707.307 226.48 706.003 227.304C704.699 228.127 702.537 228.539 699.518 228.539C697.254 228.539 695.538 228.299 694.372 227.819C693.274 227.27 692.519 226.652 692.107 225.966C691.764 225.28 691.593 224.696 691.593 224.216C691.593 223.667 691.593 223.393 691.593 223.393C691.73 222.706 692.004 221.3 692.416 219.173C692.896 216.977 693.445 214.369 694.063 211.35C694.749 208.262 695.435 205.003 696.122 201.572C696.876 198.141 697.597 194.744 698.283 191.382C698.969 188.019 699.587 184.966 700.136 182.221C700.685 179.408 701.131 177.178 701.474 175.531C701.817 173.815 701.989 172.957 701.989 172.957ZM712.796 189.22C712.727 189.495 712.659 190.044 712.59 190.867L712.178 193.749C712.041 195.327 711.87 197.009 711.664 198.793C711.458 200.577 711.252 202.258 711.046 203.836C710.909 204.66 710.806 205.174 710.737 205.38H712.076C712.899 205.38 713.791 205.346 714.752 205.277C715.712 205.209 716.57 205.174 717.325 205.174C717.05 204.625 716.81 203.939 716.604 203.116C716.467 202.224 716.296 201.4 716.09 200.645C715.678 199.067 715.198 197.42 714.649 195.705C714.168 193.989 713.722 192.377 713.311 190.867C713.105 190.044 712.933 189.495 712.796 189.22ZM784.521 215.261C784.521 215.261 784.418 215.707 784.212 216.599C784.006 217.491 783.56 218.589 782.874 219.893C782.188 221.197 781.124 222.535 779.683 223.907C778.311 225.211 776.424 226.309 774.022 227.201C771.62 228.093 768.601 228.539 764.964 228.539C760.572 228.539 756.97 227.853 754.157 226.48C751.412 225.108 749.25 223.255 747.672 220.922C746.094 218.521 744.962 215.879 744.275 212.997C743.589 210.046 743.177 206.993 743.04 203.836C742.972 200.68 743.006 197.626 743.143 194.675C743.28 191.656 743.383 188.946 743.452 186.544C743.521 182.907 744.172 179.991 745.408 177.795C746.711 175.531 748.29 173.815 750.142 172.649C752.064 171.414 754.054 170.556 756.112 170.075C758.171 169.595 760.024 169.321 761.67 169.252C765.033 169.046 768.429 169.629 771.86 171.002C775.291 172.374 778.07 174.913 780.198 178.619C781.295 180.471 781.604 181.947 781.124 183.045C780.712 184.074 779.923 184.829 778.757 185.309C777.659 185.789 776.526 186.098 775.36 186.235C774.193 186.373 773.439 186.441 773.095 186.441C770.9 186.441 769.218 186.132 768.052 185.515C766.954 184.897 766.165 184.177 765.685 183.353C765.273 182.461 765.067 181.672 765.067 180.986C765.067 180.437 764.895 179.888 764.552 179.339C764.278 178.721 763.9 178.31 763.42 178.104C763.008 177.898 762.562 178.138 762.082 178.824C761.67 179.511 761.327 180.849 761.053 182.839C760.847 184.417 760.71 186.51 760.641 189.117C760.641 191.656 760.675 194.367 760.744 197.249C760.813 200.062 760.881 202.738 760.95 205.277C761.087 207.816 761.19 209.909 761.259 211.556C761.396 213.134 761.465 213.923 761.465 213.923C761.465 213.923 761.533 214.438 761.67 215.467C761.876 216.496 762.254 217.526 762.803 218.555C763.42 219.584 764.312 220.133 765.479 220.202C766.371 220.27 767.057 219.996 767.537 219.378C768.086 218.692 768.464 217.937 768.67 217.114C768.944 216.222 769.116 215.467 769.184 214.85C769.253 214.163 769.287 213.82 769.287 213.82C769.287 213.82 769.253 213.546 769.184 212.997C769.184 212.448 769.356 211.83 769.699 211.144C770.042 210.389 770.762 209.772 771.86 209.291C772.958 208.742 774.639 208.502 776.904 208.571C779.168 208.639 780.849 209.017 781.947 209.703C783.045 210.321 783.766 211.075 784.109 211.968C784.452 212.791 784.589 213.546 784.521 214.232C784.521 214.918 784.521 215.261 784.521 215.261ZM797.728 172.957C797.659 172.957 797.762 172.58 798.036 171.825C798.38 171.002 799.134 170.213 800.301 169.458C801.467 168.703 803.389 168.291 806.065 168.223C808.467 168.154 810.285 168.463 811.52 169.149C812.755 169.767 813.579 170.384 813.99 171.002C814.471 171.619 814.711 171.928 814.711 171.928C814.711 171.928 815.088 172.82 815.843 174.604C816.598 176.388 817.627 178.756 818.931 181.706C820.235 184.588 821.676 187.814 823.254 191.382C824.832 194.95 826.41 198.587 827.989 202.292C829.636 205.929 831.145 209.36 832.518 212.585C833.959 215.742 835.159 218.418 836.12 220.614C837.081 222.741 837.698 224.079 837.973 224.628C838.59 225.932 838.934 226.858 839.002 227.407C839.071 227.956 839.036 228.333 838.899 228.539C838.831 228.676 838.796 228.779 838.796 228.848C838.316 229.809 837.355 230.632 835.914 231.318C834.542 232.073 832.861 232.485 830.871 232.553C828.126 232.622 826.136 232.313 824.901 231.627C823.666 231.009 822.842 230.357 822.431 229.671C822.087 229.054 821.95 228.779 822.019 228.848C822.019 228.848 821.641 228.059 820.887 226.48C820.2 224.902 819.377 223.015 818.416 220.819C817.456 218.555 816.564 216.496 815.74 214.644C815.74 214.644 815.26 214.644 814.299 214.644C813.407 214.644 812.344 214.644 811.108 214.644C809.873 214.644 808.775 214.644 807.815 214.644C806.923 214.644 806.477 214.644 806.477 214.644C806.202 215.604 805.928 216.805 805.653 218.246C805.379 219.619 805.139 220.854 804.933 221.952C804.727 223.05 804.624 223.598 804.624 223.598C804.624 223.598 804.452 224.01 804.109 224.834C803.835 225.657 803.046 226.48 801.742 227.304C800.438 228.127 798.277 228.539 795.257 228.539C792.993 228.539 791.277 228.299 790.111 227.819C789.013 227.27 788.258 226.652 787.846 225.966C787.503 225.28 787.332 224.696 787.332 224.216C787.332 223.667 787.332 223.393 787.332 223.393C787.469 222.706 787.744 221.3 788.155 219.173C788.636 216.977 789.185 214.369 789.802 211.35C790.488 208.262 791.175 205.003 791.861 201.572C792.616 198.141 793.336 194.744 794.022 191.382C794.708 188.019 795.326 184.966 795.875 182.221C796.424 179.408 796.87 177.178 797.213 175.531C797.556 173.815 797.728 172.957 797.728 172.957ZM808.535 189.22C808.467 189.495 808.398 190.044 808.329 190.867L807.918 193.749C807.78 195.327 807.609 197.009 807.403 198.793C807.197 200.577 806.991 202.258 806.785 203.836C806.648 204.66 806.545 205.174 806.477 205.38H807.815C808.638 205.38 809.53 205.346 810.491 205.277C811.452 205.209 812.309 205.174 813.064 205.174C812.79 204.625 812.549 203.939 812.344 203.116C812.206 202.224 812.035 201.4 811.829 200.645C811.417 199.067 810.937 197.42 810.388 195.705C809.908 193.989 809.462 192.377 809.05 190.867C808.844 190.044 808.672 189.495 808.535 189.22ZM972.597 223.29C972.391 220.957 972.254 218.04 972.186 214.541C972.117 210.973 972.083 207.164 972.083 203.116C972.083 199.067 972.117 195.156 972.186 191.382C972.323 187.539 972.46 184.142 972.597 181.192C972.735 178.241 972.872 176.114 973.009 174.81C973.215 173.163 973.798 171.928 974.759 171.105C975.719 170.213 976.783 169.595 977.95 169.252C979.185 168.909 980.214 168.737 981.037 168.737C981.93 168.669 982.376 168.634 982.376 168.634C982.376 168.634 982.787 168.703 983.611 168.84C984.503 168.909 985.463 169.08 986.493 169.355C987.522 169.629 988.243 170.11 988.654 170.796C989.546 172.168 989.958 173.506 989.889 174.81C989.889 176.045 989.821 177.658 989.684 179.648C989.272 184.794 989.032 189.838 988.963 194.778C988.894 199.719 988.894 204.214 988.963 208.262C989.032 212.311 989.1 215.536 989.169 217.937C989.306 220.339 989.375 221.54 989.375 221.54C989.375 221.54 989.34 221.917 989.272 222.672C989.272 223.358 989.066 224.147 988.654 225.039C988.243 225.932 987.453 226.755 986.287 227.51C985.12 228.196 983.405 228.539 981.14 228.539C978.876 228.539 977.126 228.299 975.891 227.819C974.725 227.27 973.901 226.652 973.421 225.966C973.009 225.211 972.769 224.593 972.7 224.113C972.632 223.564 972.597 223.29 972.597 223.29Z" fill="white"/>
<path d="M924.339 175.81L923.036 213.187C923.036 213.187 922.895 213.439 922.612 213.942C922.39 214.443 922.174 215.066 921.963 215.811C921.755 216.617 921.73 217.384 921.886 218.112C922.042 218.84 922.529 219.43 923.347 219.883C924.036 220.218 925.292 220.865 927.113 221.822C928.998 222.838 931.28 223.805 933.957 224.722C936.634 225.64 939.481 226.244 942.497 226.533C945.574 226.819 948.623 226.494 951.643 225.558C954.728 224.68 957.585 222.862 960.215 220.106C962.786 217.413 964.336 214.492 964.864 211.342C965.392 208.193 965.189 205.138 964.256 202.179C963.383 199.217 962.008 196.646 960.13 194.465C958.313 192.282 956.283 190.783 954.039 189.968C950.987 188.884 948.383 188.238 946.229 188.032C944.077 187.886 942.424 187.902 941.268 188.078C940.109 188.193 939.529 188.25 939.529 188.25L939.805 174.358C939.805 174.358 939.791 174.052 939.763 173.441C939.734 172.83 939.518 172.135 939.115 171.357C938.772 170.576 938.068 169.935 937.003 169.433C935.936 168.869 934.393 168.634 932.375 168.728C929.687 168.914 927.751 169.432 926.565 170.284C925.44 171.132 924.779 172.082 924.582 173.133C924.386 174.184 924.305 175.076 924.339 175.81ZM937.994 216.631L939.09 196.635C939.09 196.635 939.61 196.611 940.649 196.562C941.689 196.514 942.859 196.644 944.16 196.951C945.522 197.256 946.717 197.905 947.743 198.899C948.77 199.894 949.27 201.433 949.244 203.518C949.249 206.275 949.057 208.735 948.666 210.897C948.279 213.121 947.623 214.837 946.699 216.044C945.774 217.251 944.449 217.741 942.723 217.515C940.997 217.288 939.793 217.099 939.112 216.947C938.495 216.853 938.154 216.777 938.09 216.718C938.026 216.66 937.994 216.631 937.994 216.631Z" fill="white"/>
<path d="M886.895 205.29C886.716 203.269 886.597 200.742 886.538 197.71C886.479 194.618 886.449 191.319 886.449 187.811C886.449 184.304 886.479 180.915 886.538 177.645C886.657 174.316 886.776 171.373 886.895 168.817C887.014 166.26 887.133 164.417 887.251 163.288C887.43 161.861 887.935 160.791 888.767 160.078C889.6 159.305 890.521 158.77 891.532 158.472C892.602 158.175 893.494 158.026 894.207 158.026C894.98 157.967 895.366 157.937 895.366 157.937C895.366 157.937 895.723 157.997 896.437 158.116C897.209 158.175 898.042 158.324 898.934 158.562C899.825 158.799 900.45 159.215 900.806 159.81C901.579 160.999 901.936 162.158 901.876 163.288C901.876 164.358 901.817 165.755 901.698 167.479C901.341 171.938 901.133 176.308 901.074 180.588C901.014 184.869 901.014 188.763 901.074 192.27C901.133 195.778 901.193 198.572 901.252 200.653C901.371 202.734 901.43 203.774 901.43 203.774C901.43 203.774 901.401 204.101 901.341 204.755C901.341 205.349 901.163 206.033 900.806 206.806C900.45 207.579 899.766 208.292 898.755 208.946C897.745 209.541 896.258 209.838 894.296 209.838C892.334 209.838 890.819 209.63 889.748 209.214C888.738 208.738 888.024 208.203 887.608 207.608C887.251 206.955 887.043 206.419 886.984 206.003C886.924 205.528 886.895 205.29 886.895 205.29Z" fill="white"/>
<path d="M877.261 170.982C877.32 170.975 877.851 170.909 878.854 170.784C879.864 170.717 881.107 170.592 882.581 170.408C884.064 170.283 885.513 170.132 886.928 169.955C888.411 169.83 889.653 169.705 890.656 169.58C891.666 169.513 892.171 169.48 892.171 169.48C892.171 169.48 892.496 169.44 893.145 169.359C893.794 169.278 894.546 169.064 895.401 168.717C896.264 168.43 896.979 167.921 897.547 167.191C898.174 166.454 898.432 165.403 898.322 164.039C898.219 162.734 897.707 161.749 896.785 161.086C895.93 160.473 894.923 160.09 893.765 159.935C892.674 159.831 891.682 159.805 890.79 159.857C889.957 159.901 889.54 159.923 889.54 159.923C889.54 159.923 888.913 159.941 887.66 159.978C886.473 160.067 884.891 160.114 882.915 160.121C880.938 160.128 878.774 160.069 876.422 159.944C874.077 159.877 871.806 159.681 869.608 159.356C867.411 159.032 865.615 159.046 864.222 159.4C862.88 159.687 861.855 160.115 861.147 160.683C860.446 161.309 859.952 161.91 859.664 162.485C859.443 163.112 859.343 163.514 859.365 163.691C859.358 164.111 859.539 164.598 859.907 165.151C860.283 165.763 860.899 166.136 861.754 166.268C862.057 166.291 862.307 167.098 862.506 168.691C862.712 170.343 862.856 172.452 862.937 175.018C863.084 177.636 863.168 180.471 863.19 183.524C863.212 186.577 863.171 189.607 863.067 192.616C863.022 195.617 862.937 198.294 862.811 200.646C862.686 202.998 862.486 204.761 862.213 205.933C861.837 207.718 861.944 209.052 862.534 209.937C863.124 210.822 863.857 211.42 864.735 211.729C865.678 212.091 866.512 212.286 867.234 212.316C868.016 212.338 868.407 212.349 868.407 212.349C868.407 212.349 868.794 212.331 869.568 212.294C870.409 212.309 871.345 212.132 872.378 211.764C873.476 211.447 874.446 210.816 875.287 209.873C876.194 208.98 876.74 207.594 876.925 205.714C877.154 203.229 877.416 200.29 877.711 196.898C878.073 193.558 878.254 189.731 878.255 185.417C878.314 181.096 877.983 176.284 877.261 170.982Z" fill="white"/>
<path d="M857.295 212.823C857.286 212.887 857.203 213.465 857.048 214.556C856.956 215.657 856.796 217.01 856.568 218.615C856.403 220.229 856.211 221.807 855.991 223.348C855.827 224.962 855.667 226.315 855.511 227.407C855.42 228.507 855.374 229.058 855.374 229.058C855.374 229.058 855.324 229.411 855.223 230.117C855.122 230.823 854.875 231.64 854.481 232.566C854.151 233.502 853.583 234.272 852.776 234.878C851.96 235.548 850.809 235.81 849.323 235.663C847.901 235.526 846.837 234.949 846.13 233.931C845.479 232.987 845.08 231.881 844.932 230.616C844.84 229.423 844.831 228.341 844.904 227.369C844.968 226.461 845 226.007 845 226.007C845 226.007 845.032 225.324 845.095 223.957C845.214 222.664 845.296 220.939 845.341 218.784C845.386 216.628 845.363 214.267 845.27 211.699C845.242 209.14 845.071 206.659 844.758 204.256C844.446 201.853 844.496 199.895 844.908 198.381C845.247 196.923 845.732 195.813 846.365 195.051C847.062 194.299 847.727 193.771 848.359 193.468C849.047 193.239 849.487 193.138 849.68 193.165C850.139 193.165 850.666 193.371 851.262 193.784C851.923 194.205 852.317 194.884 852.446 195.82C852.465 196.15 853.341 196.438 855.074 196.685C856.872 196.942 859.17 197.138 861.967 197.275C864.82 197.485 867.911 197.63 871.24 197.712C874.57 197.793 877.876 197.806 881.16 197.75C884.434 197.758 887.355 197.716 889.923 197.623C892.491 197.53 894.417 197.346 895.701 197.071C897.655 196.694 899.109 196.836 900.063 197.496C901.017 198.156 901.655 198.967 901.976 199.93C902.352 200.966 902.55 201.879 902.569 202.668C902.578 203.521 902.583 203.947 902.583 203.947C902.583 203.947 902.555 204.369 902.501 205.213C902.501 206.13 902.29 207.148 901.869 208.267C901.502 209.46 900.796 210.506 899.751 211.405C898.761 212.378 897.239 212.947 895.184 213.113C892.469 213.315 889.259 213.546 885.554 213.804C881.903 214.135 877.726 214.26 873.02 214.179C868.306 214.163 863.064 213.71 857.295 212.823Z" fill="white"/>
<path d="M902.541 215.371C902.549 215.435 902.621 216.015 902.758 217.109C902.83 218.211 902.967 219.566 903.167 221.175C903.304 222.792 903.469 224.373 903.662 225.917C903.798 227.534 903.935 228.89 904.071 229.984C904.144 231.086 904.18 231.637 904.18 231.637C904.18 231.637 904.224 231.991 904.312 232.699C904.401 233.407 904.634 234.227 905.012 235.16C905.325 236.102 905.88 236.882 906.677 237.502C907.481 238.185 908.627 238.467 910.115 238.347C911.539 238.234 912.613 237.675 913.337 236.67C914.005 235.737 914.424 234.639 914.593 233.376C914.706 232.185 914.734 231.103 914.678 230.13C914.63 229.221 914.605 228.766 914.605 228.766C914.605 228.766 914.585 228.083 914.545 226.715C914.449 225.42 914.397 223.695 914.389 221.539C914.381 219.383 914.446 217.022 914.583 214.456C914.656 211.898 914.869 209.42 915.224 207.023C915.578 204.626 915.562 202.667 915.176 201.146C914.863 199.682 914.396 198.564 913.777 197.792C913.093 197.027 912.438 196.488 911.81 196.175C911.127 195.933 910.688 195.825 910.495 195.849C910.037 195.841 909.506 196.038 908.902 196.44C908.235 196.85 907.828 197.521 907.683 198.455C907.659 198.784 906.778 199.058 905.041 199.275C903.239 199.5 900.938 199.656 898.139 199.744C895.283 199.905 892.19 199.997 888.859 200.021C885.529 200.044 882.223 200 878.941 199.887C875.667 199.838 872.747 199.745 870.181 199.608C867.615 199.471 865.692 199.253 864.413 198.956C862.466 198.545 861.01 198.662 860.045 199.305C859.079 199.948 858.428 200.749 858.09 201.706C857.695 202.736 857.482 203.645 857.45 204.433C857.426 205.286 857.413 205.712 857.413 205.712C857.413 205.712 857.434 206.134 857.474 206.979C857.457 207.896 857.65 208.918 858.052 210.044C858.398 211.243 859.086 212.3 860.115 213.218C861.089 214.207 862.601 214.803 864.652 215.004C867.363 215.254 870.569 215.54 874.269 215.862C877.913 216.257 882.088 216.454 886.794 216.455C891.508 216.52 896.757 216.159 902.541 215.371Z" fill="white"/>
<path d="M83.2598 205.467C83.1124 203.795 83.0141 201.707 82.9649 199.2C82.9158 196.644 82.8912 193.916 82.8912 191.017C82.8912 188.117 82.9158 185.315 82.9649 182.612C83.0632 179.86 83.1615 177.427 83.2598 175.313C83.3581 173.2 83.4564 171.676 83.5547 170.742C83.7022 169.563 84.1199 168.678 84.808 168.088C85.4961 167.449 86.2579 167.007 87.0935 166.761C87.9782 166.515 88.7154 166.392 89.3052 166.392C89.9442 166.343 90.2637 166.319 90.2637 166.319C90.2637 166.319 90.5586 166.368 91.1484 166.466C91.7873 166.515 92.4754 166.638 93.2127 166.835C93.9499 167.031 94.466 167.375 94.7609 167.867C95.3998 168.85 95.6947 169.808 95.6456 170.742C95.6456 171.627 95.5964 172.782 95.4981 174.207C95.2032 177.894 95.0312 181.506 94.9821 185.045C94.9329 188.584 94.9329 191.803 94.9821 194.703C95.0312 197.603 95.0804 199.913 95.1295 201.633C95.2278 203.353 95.277 204.213 95.277 204.213C95.277 204.213 95.2524 204.484 95.2032 205.024C95.2032 205.516 95.0558 206.081 94.7609 206.72C94.466 207.359 93.9008 207.949 93.0652 208.489C92.2297 208.981 91.0009 209.227 89.379 209.227C87.757 209.227 86.5037 209.055 85.619 208.71C84.7835 208.317 84.1937 207.875 83.8496 207.383C83.5547 206.843 83.3827 206.4 83.3335 206.056C83.2844 205.663 83.2598 205.467 83.2598 205.467Z" fill="white"/>
<path d="M75.1505 177.776C75.1993 177.77 75.6382 177.715 76.4673 177.611C77.3025 177.556 78.3298 177.453 79.549 177.301C80.7744 177.197 81.9724 177.072 83.1429 176.926C84.3682 176.823 85.3955 176.719 86.2246 176.616C87.0598 176.561 87.4774 176.534 87.4774 176.534C87.4774 176.534 87.7456 176.5 88.2821 176.433C88.8186 176.366 89.4404 176.189 90.1476 175.903C90.8609 175.665 91.4523 175.245 91.9218 174.641C92.4401 174.032 92.6536 173.163 92.5623 172.035C92.4771 170.956 92.0535 170.142 91.2915 169.593C90.5844 169.087 89.7523 168.77 88.7952 168.642C87.893 168.557 87.073 168.535 86.3354 168.578C85.6465 168.614 85.3021 168.633 85.3021 168.633C85.3021 168.633 84.7839 168.648 83.7475 168.678C82.766 168.751 81.4583 168.791 79.8245 168.796C78.1907 168.802 76.4014 168.753 74.4567 168.649C72.5181 168.594 70.6405 168.432 68.8238 168.164C67.0072 167.895 65.5227 167.907 64.3705 168.2C63.2609 168.438 62.4135 168.791 61.8282 169.26C61.249 169.778 60.8405 170.275 60.6026 170.751C60.4197 171.269 60.3373 171.601 60.3556 171.747C60.3495 172.095 60.4988 172.497 60.8035 172.955C61.1144 173.461 61.6234 173.769 62.3305 173.878C62.5805 173.897 62.7876 174.564 62.9521 175.881C63.1226 177.247 63.2412 178.99 63.308 181.112C63.4296 183.276 63.4994 185.62 63.5174 188.144C63.5354 190.668 63.5015 193.173 63.4158 195.661C63.3789 198.142 63.3085 200.355 63.2046 202.299C63.1007 204.244 62.9359 205.701 62.7102 206.67C62.3991 208.146 62.4874 209.249 62.975 209.981C63.4626 210.712 64.0691 211.206 64.7945 211.462C65.5748 211.761 66.2637 211.923 66.8611 211.947C67.5073 211.966 67.8304 211.975 67.8304 211.975C67.8304 211.975 68.1505 211.96 68.7906 211.929C69.4856 211.942 70.2598 211.795 71.1133 211.491C72.0217 211.229 72.8234 210.707 73.5185 209.927C74.2685 209.19 74.7197 208.044 74.8724 206.489C75.0616 204.435 75.2784 202.005 75.5226 199.201C75.8217 196.44 75.9714 193.276 75.9719 189.709C76.0212 186.137 75.7474 182.159 75.1505 177.776Z" fill="white"/>
<path d="M58.5378 212.142C58.5303 212.195 58.4622 212.673 58.3336 213.575C58.2581 214.485 58.1258 215.604 57.9366 216.931C57.8006 218.266 57.6418 219.57 57.4602 220.844C57.3242 222.178 57.1919 223.297 57.0633 224.199C56.9878 225.109 56.95 225.564 56.95 225.564C56.95 225.564 56.9084 225.856 56.8252 226.44C56.742 227.024 56.5375 227.699 56.2117 228.465C55.939 229.238 55.469 229.875 54.8019 230.376C54.1273 230.93 53.1757 231.146 51.9473 231.025C50.7719 230.912 49.8921 230.435 49.308 229.593C48.7694 228.812 48.4392 227.899 48.3175 226.852C48.2414 225.867 48.2335 224.972 48.2939 224.168C48.3467 223.417 48.3731 223.042 48.3731 223.042C48.3731 223.042 48.3995 222.477 48.4521 221.347C48.5504 220.278 48.6181 218.853 48.6554 217.071C48.6927 215.289 48.6731 213.336 48.5966 211.213C48.5731 209.097 48.4321 207.046 48.1737 205.06C47.9152 203.073 47.9563 201.454 48.2971 200.203C48.5773 198.997 48.9789 198.08 49.5019 197.45C50.0779 196.828 50.6275 196.392 51.1507 196.141C51.7193 195.952 52.0832 195.868 52.2425 195.891C52.6216 195.891 53.0577 196.061 53.5507 196.402C54.0968 196.751 54.423 197.312 54.5294 198.085C54.5447 198.358 55.2689 198.597 56.7021 198.801C58.1884 199.013 60.0879 199.175 62.4007 199.288C64.759 199.462 67.3144 199.582 70.0669 199.65C72.8195 199.717 75.5531 199.727 78.2677 199.681C80.9747 199.688 83.3898 199.653 85.5129 199.576C87.6361 199.5 89.2284 199.347 90.2899 199.12C91.9049 198.808 93.1068 198.925 93.8956 199.471C94.6844 200.017 95.2116 200.688 95.4773 201.484C95.7884 202.34 95.9517 203.095 95.9671 203.747C95.9749 204.452 95.9788 204.805 95.9788 204.805C95.9788 204.805 95.9562 205.153 95.911 205.851C95.9112 206.609 95.7371 207.451 95.3886 208.376C95.0856 209.362 94.502 210.227 93.6379 210.97C92.8192 211.774 91.5606 212.245 89.8621 212.382C87.6177 212.549 84.9638 212.74 81.9005 212.953C78.8827 213.227 75.4288 213.331 71.5388 213.264C67.6413 213.25 63.3076 212.876 58.5378 212.142Z" fill="white"/>
<path d="M96.4488 214.261C96.4555 214.314 96.5152 214.793 96.6282 215.697C96.6879 216.609 96.8008 217.729 96.9669 219.059C97.0798 220.396 97.216 221.703 97.3754 222.98C97.4883 224.317 97.6012 225.437 97.7141 226.342C97.7739 227.253 97.8037 227.708 97.8037 227.708C97.8037 227.708 97.8403 228.001 97.9133 228.586C97.9864 229.171 98.1792 229.85 98.4917 230.621C98.7509 231.399 99.2097 232.045 99.8681 232.557C100.533 233.122 101.481 233.355 102.711 233.255C103.888 233.163 104.776 232.7 105.375 231.869C105.927 231.098 106.273 230.19 106.413 229.146C106.506 228.162 106.529 227.267 106.483 226.463C106.443 225.711 106.423 225.335 106.423 225.335C106.423 225.335 106.407 224.77 106.373 223.639C106.294 222.569 106.251 221.142 106.244 219.36C106.238 217.577 106.291 215.626 106.405 213.504C106.465 211.389 106.641 209.341 106.934 207.359C107.227 205.377 107.214 203.758 106.895 202.501C106.636 201.29 106.25 200.366 105.738 199.727C105.173 199.096 104.631 198.65 104.112 198.39C103.547 198.191 103.185 198.101 103.025 198.121C102.646 198.114 102.207 198.277 101.708 198.61C101.156 198.949 100.82 199.504 100.7 200.275C100.68 200.548 99.9521 200.774 98.5156 200.954C97.0258 201.14 95.1238 201.269 92.8094 201.342C90.4484 201.475 87.8913 201.551 85.138 201.57C82.3847 201.59 79.6514 201.553 76.938 201.459C74.2312 201.419 71.8171 201.342 69.6956 201.229C67.5741 201.116 65.9847 200.936 64.9273 200.69C63.3179 200.35 62.1142 200.447 61.3161 200.978C60.5179 201.51 59.9792 202.172 59.6997 202.963C59.3737 203.815 59.1974 204.566 59.1707 205.218C59.1507 205.923 59.1406 206.275 59.1406 206.275C59.1406 206.275 59.1572 206.624 59.1904 207.323C59.177 208.081 59.3365 208.926 59.6689 209.857C59.9547 210.848 60.5232 211.722 61.3744 212.481C62.179 213.299 63.4292 213.791 65.1251 213.957C67.3662 214.164 70.0164 214.4 73.0756 214.667C76.0883 214.993 79.5398 215.156 83.4304 215.157C87.3275 215.211 91.667 214.912 96.4488 214.261Z" fill="white"/>
<path d="M549.711 217.552C549.516 215.336 549.385 212.565 549.32 209.241C549.255 205.851 549.222 202.233 549.222 198.387C549.222 194.541 549.255 190.825 549.32 187.24C549.451 183.589 549.581 180.362 549.711 177.559C549.842 174.756 549.972 172.735 550.102 171.497C550.298 169.932 550.852 168.759 551.765 167.976C552.677 167.129 553.688 166.542 554.796 166.216C555.969 165.89 556.947 165.727 557.73 165.727C558.577 165.662 559.001 165.63 559.001 165.63C559.001 165.63 559.392 165.695 560.174 165.825C561.022 165.89 561.934 166.053 562.912 166.314C563.89 166.575 564.574 167.031 564.965 167.683C565.813 168.987 566.204 170.258 566.139 171.497C566.139 172.67 566.074 174.202 565.943 176.092C565.552 180.982 565.324 185.773 565.259 190.466C565.194 195.16 565.194 199.43 565.259 203.276C565.324 207.122 565.389 210.186 565.454 212.467C565.585 214.749 565.65 215.89 565.65 215.89C565.65 215.89 565.617 216.248 565.552 216.965C565.552 217.617 565.357 218.367 564.965 219.214C564.574 220.062 563.825 220.844 562.716 221.561C561.608 222.213 559.979 222.539 557.827 222.539C555.676 222.539 554.014 222.311 552.84 221.855C551.732 221.333 550.95 220.746 550.494 220.095C550.102 219.377 549.874 218.791 549.809 218.334C549.744 217.813 549.711 217.552 549.711 217.552Z" fill="white"/>
<path d="M619.11 224.771C616.378 225.012 612.963 225.173 608.866 225.253C604.688 225.334 600.229 225.374 595.488 225.374C590.748 225.374 586.168 225.334 581.749 225.253C577.25 225.093 573.273 224.932 569.818 224.771C566.363 224.611 563.873 224.45 562.346 224.289C560.418 224.048 558.972 223.365 558.007 222.241C556.963 221.116 556.24 219.87 555.838 218.505C555.436 217.058 555.236 215.853 555.236 214.889C555.155 213.845 555.115 213.322 555.115 213.322C555.115 213.322 555.195 212.84 555.356 211.876C555.436 210.832 555.637 209.707 555.959 208.502C556.28 207.296 556.842 206.453 557.646 205.971C559.253 204.926 560.82 204.444 562.346 204.525C563.792 204.525 565.68 204.605 568.01 204.766C574.036 205.248 579.942 205.529 585.726 205.609C591.511 205.69 596.774 205.69 601.514 205.609C606.254 205.529 610.031 205.449 612.843 205.368C615.655 205.208 617.061 205.127 617.061 205.127C617.061 205.127 617.503 205.167 618.386 205.248C619.19 205.248 620.114 205.489 621.158 205.971C622.203 206.453 623.167 207.377 624.051 208.743C624.854 210.109 625.256 212.117 625.256 214.769C625.256 217.42 624.975 219.469 624.412 220.915C623.769 222.281 623.046 223.245 622.243 223.807C621.359 224.289 620.636 224.571 620.074 224.651C619.431 224.731 619.11 224.771 619.11 224.771Z" fill="white"/>
<path d="M614.895 217.552C614.699 215.336 614.569 212.565 614.504 209.241C614.439 205.851 614.406 202.233 614.406 198.387C614.406 194.541 614.439 190.825 614.504 187.24C614.634 183.589 614.765 180.362 614.895 177.559C615.025 174.756 615.156 172.735 615.286 171.497C615.482 169.932 616.036 168.759 616.948 167.976C617.861 167.129 618.871 166.542 619.98 166.216C621.153 165.89 622.131 165.727 622.913 165.727C623.761 165.662 624.184 165.63 624.184 165.63C624.184 165.63 624.575 165.695 625.358 165.825C626.205 165.89 627.118 166.053 628.096 166.314C629.073 166.575 629.758 167.031 630.149 167.683C630.996 168.987 631.388 170.258 631.322 171.497C631.322 172.67 631.257 174.202 631.127 176.092C630.736 180.982 630.508 185.773 630.442 190.466C630.377 195.16 630.377 199.43 630.442 203.276C630.508 207.122 630.573 210.186 630.638 212.467C630.768 214.749 630.833 215.89 630.833 215.89C630.833 215.89 630.801 216.248 630.736 216.965C630.736 217.617 630.54 218.367 630.149 219.214C629.758 220.062 629.008 220.844 627.9 221.561C626.792 222.213 625.162 222.539 623.011 222.539C620.86 222.539 619.197 222.311 618.024 221.855C616.916 221.333 616.134 220.746 615.677 220.095C615.286 219.377 615.058 218.791 614.993 218.334C614.928 217.813 614.895 217.552 614.895 217.552Z" fill="white"/>
<path d="M582.295 217.552C582.1 215.336 581.969 212.565 581.904 209.241C581.839 205.851 581.806 202.233 581.806 198.387C581.806 194.541 581.839 190.825 581.904 187.24C582.035 183.589 582.165 180.362 582.295 177.559C582.426 174.756 582.556 172.735 582.686 171.497C582.882 169.932 583.436 168.759 584.349 167.976C585.261 167.129 586.272 166.542 587.38 166.216C588.553 165.89 589.531 165.727 590.313 165.727C591.161 165.662 591.585 165.63 591.585 165.63C591.585 165.63 591.976 165.695 592.758 165.825C593.605 165.89 594.518 166.053 595.496 166.314C596.474 166.575 597.158 167.031 597.549 167.683C598.397 168.987 598.788 170.258 598.723 171.497C598.723 172.67 598.658 174.202 598.527 176.092C598.136 180.982 597.908 185.773 597.843 190.466C597.778 195.16 597.778 199.43 597.843 203.276C597.908 207.122 597.973 210.186 598.038 212.467C598.169 214.749 598.234 215.89 598.234 215.89C598.234 215.89 598.201 216.248 598.136 216.965C598.136 217.617 597.941 218.367 597.549 219.214C597.158 220.062 596.409 220.844 595.3 221.561C594.192 222.213 592.562 222.539 590.411 222.539C588.26 222.539 586.598 222.311 585.424 221.855C584.316 221.333 583.534 220.746 583.078 220.095C582.686 219.377 582.458 218.791 582.393 218.334C582.328 217.813 582.295 217.552 582.295 217.552Z" fill="white"/>
<path d="M242.647 169.548C242.647 169.548 243.026 169.607 243.784 169.723C244.542 169.782 245.388 170.044 246.321 170.511C247.313 170.919 248.159 171.677 248.858 172.785C249.558 173.835 249.85 175.381 249.733 177.422C249.675 178.764 249.588 180.572 249.471 182.847C249.413 185.063 249.383 187.513 249.383 190.196C249.383 192.82 249.442 195.445 249.558 198.07C249.733 200.695 249.996 203.115 250.346 205.331C250.754 207.548 251.279 209.327 251.921 210.668C252.621 211.951 253.466 212.564 254.458 212.506C255.508 212.447 256.295 211.747 256.82 210.406C257.345 209.006 257.695 207.256 257.87 205.156C258.045 202.998 258.103 200.724 258.045 198.332C257.987 195.941 257.87 193.666 257.695 191.508C257.52 189.292 257.345 187.484 257.17 186.084C257.053 184.626 256.966 183.809 256.908 183.634C256.849 183.401 256.762 182.905 256.645 182.147C256.528 181.388 256.587 180.572 256.82 179.697C257.053 178.822 257.637 178.035 258.57 177.335C259.561 176.635 261.107 176.197 263.207 176.022C265.307 175.847 266.94 176.11 268.106 176.81C269.273 177.51 270.089 178.356 270.556 179.347C271.081 180.339 271.372 181.214 271.431 181.972C271.547 182.73 271.606 183.109 271.606 183.109C271.606 183.109 271.693 183.78 271.868 185.121C272.102 186.463 272.277 188.242 272.393 190.458C272.568 192.616 272.568 195.008 272.393 197.632C272.277 200.257 271.897 202.911 271.256 205.594C270.673 208.219 269.71 210.639 268.369 212.856C267.027 215.014 265.219 216.763 262.944 218.105C260.67 219.446 257.812 220.117 254.37 220.117C250.929 220.117 248.013 219.417 245.621 218.017C243.288 216.559 241.364 214.664 239.847 212.331C238.389 209.939 237.252 207.285 236.435 204.369C235.677 201.453 235.152 198.478 234.86 195.445C234.627 192.354 234.51 189.438 234.51 186.696C234.569 183.955 234.656 181.563 234.773 179.522C234.948 177.481 235.064 176.022 235.123 175.148C235.239 173.631 235.677 172.494 236.435 171.735C237.193 170.919 238.039 170.365 238.972 170.073C239.964 169.782 240.809 169.636 241.509 169.636C242.268 169.577 242.647 169.548 242.647 169.548Z" fill="white"/>
<path d="M264.783 185.909C264.783 185.909 264.404 185.909 263.646 185.909C262.888 185.85 261.983 185.675 260.934 185.384C259.942 185.034 259.038 184.421 258.221 183.547C257.405 182.672 256.967 181.359 256.909 179.61C256.851 177.86 257.113 176.577 257.696 175.76C258.28 174.885 259.009 174.302 259.884 174.01C260.759 173.66 261.604 173.485 262.421 173.485C263.237 173.427 263.821 173.369 264.171 173.31C264.521 173.252 265.104 173.31 265.921 173.485C266.737 173.602 267.583 173.923 268.458 174.448C269.333 174.914 270.062 175.643 270.645 176.635C271.228 177.568 271.462 178.822 271.345 180.397C271.228 181.913 270.82 183.08 270.12 183.897C269.478 184.655 268.72 185.18 267.845 185.471C267.029 185.705 266.3 185.85 265.658 185.909C265.075 185.909 264.783 185.909 264.783 185.909ZM265.658 189.846C265.658 189.846 266.008 189.904 266.708 190.021C267.466 190.079 268.341 190.312 269.333 190.721C270.382 191.071 271.316 191.712 272.132 192.645C273.007 193.52 273.532 194.745 273.707 196.32C273.824 197.312 274.086 198.857 274.494 200.957C274.903 202.998 275.311 205.39 275.719 208.131C276.186 210.814 276.507 213.643 276.682 216.618C276.915 219.592 276.915 222.509 276.682 225.367C276.448 228.225 275.865 230.82 274.932 233.153C273.999 235.545 272.628 237.469 270.82 238.927C269.012 240.444 266.591 241.26 263.558 241.377C259.884 241.552 256.938 241.26 254.722 240.502C252.505 239.744 250.814 238.811 249.647 237.703C248.423 236.653 247.606 235.69 247.198 234.815C246.789 233.999 246.585 233.591 246.585 233.591C246.585 233.591 246.498 233.328 246.323 232.803C246.148 232.278 246.148 231.695 246.323 231.053C246.44 230.412 246.906 229.887 247.723 229.479C248.539 229.07 249.91 228.954 251.835 229.129C254.459 229.362 256.297 229.829 257.347 230.528C258.396 231.287 259.009 231.987 259.184 232.628C259.417 233.27 259.534 233.591 259.534 233.591C259.534 233.591 259.621 233.736 259.796 234.028C260.03 234.32 260.292 234.465 260.584 234.465C260.934 234.465 261.254 234.028 261.546 233.153C261.838 232.278 262.188 230.237 262.596 227.029C263.004 223.879 263.121 219.796 262.946 214.78C262.771 209.764 261.925 204.048 260.409 197.632C259.942 195.591 259.913 194.045 260.321 192.995C260.788 191.887 261.429 191.129 262.246 190.721C263.121 190.254 263.908 189.992 264.608 189.933C265.308 189.875 265.658 189.846 265.658 189.846Z" fill="white"/>
<path d="M538.01 201.374C536.26 201.528 534.073 201.631 531.449 201.682C528.772 201.734 525.916 201.76 522.88 201.76C519.843 201.76 516.91 201.734 514.079 201.682C511.197 201.579 508.65 201.476 506.437 201.374C504.224 201.271 502.628 201.168 501.651 201.065C500.415 200.91 499.489 200.473 498.872 199.752C498.203 199.032 497.739 198.234 497.482 197.359C497.225 196.433 497.096 195.661 497.096 195.043C497.045 194.374 497.019 194.04 497.019 194.04C497.019 194.04 497.07 193.731 497.173 193.114C497.225 192.444 497.353 191.724 497.559 190.952C497.765 190.18 498.125 189.64 498.64 189.331C499.669 188.662 500.673 188.353 501.651 188.405C502.577 188.405 503.786 188.456 505.279 188.559C509.139 188.868 512.921 189.048 516.627 189.099C520.332 189.151 523.703 189.151 526.74 189.099C529.776 189.048 532.195 188.996 533.996 188.945C535.797 188.842 536.698 188.79 536.698 188.79C536.698 188.79 536.981 188.816 537.547 188.868C538.062 188.868 538.654 189.022 539.323 189.331C539.992 189.64 540.609 190.231 541.175 191.106C541.69 191.981 541.947 193.268 541.947 194.966C541.947 196.665 541.767 197.977 541.407 198.903C540.995 199.778 540.532 200.396 540.017 200.756C539.451 201.065 538.988 201.245 538.628 201.296C538.216 201.348 538.01 201.374 538.01 201.374Z" fill="white"/>
<path d="M323.575 89.8521C321.825 90.0065 319.638 90.1094 317.013 90.1608C314.337 90.2123 311.481 90.238 308.444 90.238C305.408 90.238 302.474 90.2123 299.644 90.1608C296.762 90.0579 294.214 89.955 292.001 89.8521C289.788 89.7491 288.193 89.6462 287.215 89.5433C285.98 89.3889 285.054 88.9514 284.436 88.2309C283.767 87.5104 283.304 86.7127 283.046 85.8378C282.789 84.9115 282.66 84.1395 282.66 83.5219C282.609 82.8529 282.583 82.5184 282.583 82.5184C282.583 82.5184 282.635 82.2096 282.738 81.592C282.789 80.923 282.918 80.2025 283.124 79.4305C283.33 78.6585 283.69 78.1182 284.204 77.8094C285.234 77.1403 286.237 76.8316 287.215 76.883C288.141 76.883 289.351 76.9345 290.843 77.0374C294.703 77.3462 298.486 77.5263 302.191 77.5778C305.897 77.6293 309.268 77.6293 312.304 77.5778C315.34 77.5263 317.759 77.4749 319.56 77.4234C321.362 77.3205 322.262 77.269 322.262 77.269C322.262 77.269 322.545 77.2947 323.112 77.3462C323.626 77.3462 324.218 77.5006 324.887 77.8094C325.556 78.1182 326.174 78.71 326.74 79.5849C327.254 80.4598 327.512 81.7464 327.512 83.4447C327.512 85.1431 327.332 86.4554 326.971 87.3818C326.56 88.2567 326.096 88.8742 325.582 89.2345C325.016 89.5433 324.553 89.7234 324.192 89.7749C323.781 89.8263 323.575 89.8521 323.575 89.8521Z" fill="white"/>
<path d="M226.645 117C224.106 117 222.185 116.657 220.881 115.971C219.646 115.285 218.823 114.495 218.411 113.603C217.999 112.711 217.794 111.922 217.794 111.236C217.794 110.55 217.794 110.207 217.794 110.207L216.558 65.5356C216.558 65.5356 216.524 65.1925 216.455 64.5063C216.387 63.8201 216.524 63.031 216.867 62.1389C217.21 61.1782 217.931 60.3548 219.029 59.6686C220.127 58.9138 221.842 58.5364 224.175 58.5364C227.263 58.4678 229.596 58.9138 231.174 59.8745C232.753 60.7665 233.782 61.6929 234.262 62.6536C234.811 63.5456 235.086 63.9916 235.086 63.9916L246.922 85.5038C246.922 85.5038 247.197 84.8862 247.746 83.6511C248.363 82.3473 249.084 80.7347 249.907 78.8134C250.799 76.8921 251.691 74.9364 252.583 72.9464C253.476 70.9565 254.265 69.241 254.951 67.8C255.637 66.2904 256.083 65.3297 256.289 64.918C256.632 64.2318 257.25 63.3054 258.142 62.1389C259.034 60.9038 260.303 59.7716 261.95 58.7423C263.665 57.713 265.896 57.164 268.64 57.0954C270.699 57.0268 272.277 57.267 273.375 57.8159C274.473 58.2962 275.228 58.8795 275.64 59.5657C276.12 60.2519 276.394 60.8695 276.463 61.4184C276.532 61.9674 276.566 62.2418 276.566 62.2418C276.566 62.2418 276.566 63.1339 276.566 64.918C276.566 66.6335 276.566 68.9322 276.566 71.8142C276.635 74.6962 276.669 77.8527 276.669 81.2837C276.669 84.7146 276.669 88.1799 276.669 91.6795C276.669 95.1105 276.669 98.2669 276.669 101.149C276.737 104.031 276.772 106.364 276.772 108.148C276.772 109.932 276.772 110.859 276.772 110.927C276.772 110.996 276.737 111.339 276.669 111.956C276.669 112.574 276.429 113.295 275.948 114.118C275.468 114.873 274.61 115.559 273.375 116.177C272.209 116.726 270.459 117 268.126 117C265.793 117 264.009 116.76 262.773 116.279C261.607 115.731 260.783 115.147 260.303 114.53C259.823 113.844 259.548 113.26 259.48 112.78C259.411 112.3 259.377 112.059 259.377 112.059C259.377 112.059 259.377 111.476 259.377 110.31C259.377 109.074 259.377 107.565 259.377 105.781C259.445 103.928 259.48 102.11 259.48 100.326C259.548 98.4728 259.583 96.9289 259.583 95.6937C259.583 94.4586 259.583 93.841 259.583 93.841L260.406 79.1222L255.054 90.5473C255.054 90.5473 254.848 90.9247 254.436 91.6795C254.093 92.4343 253.407 93.1891 252.378 93.9439C251.348 94.6987 249.804 95.1105 247.746 95.1791C245.756 95.2477 244.178 94.9732 243.011 94.3557C241.913 93.6695 241.124 93.0176 240.644 92.4C240.232 91.7138 240.026 91.3707 240.026 91.3707L233.336 79.1222C233.336 79.1222 233.37 79.9456 233.439 81.5925C233.576 83.1707 233.713 85.2636 233.85 87.8711C233.988 90.41 234.125 93.1205 234.262 96.0025C234.399 98.8159 234.502 101.492 234.571 104.031C234.708 106.501 234.811 108.491 234.88 110.001C234.948 111.854 234.571 113.295 233.747 114.324C232.924 115.285 231.963 115.971 230.865 116.382C229.768 116.726 228.773 116.931 227.881 117C227.057 117 226.645 117 226.645 117ZM286.626 56.5808C286.626 56.5808 287.21 56.5121 288.376 56.3749C289.543 56.2377 290.915 56.4092 292.493 56.8895C294.14 57.3699 295.547 58.5364 296.713 60.3891C297.468 61.5557 298.223 62.9623 298.978 64.6092C299.801 66.1875 300.522 67.7657 301.139 69.3439C301.826 70.9222 302.375 72.2259 302.786 73.2552C303.198 74.2845 303.404 74.7992 303.404 74.7992L309.58 59.7716C309.58 59.7716 309.82 59.4628 310.3 58.8452C310.849 58.2276 311.707 57.6444 312.873 57.0954C314.108 56.5464 315.79 56.3406 317.917 56.4778C324.161 56.8895 326.46 58.8452 324.813 62.3448C324.47 63.031 323.852 64.3004 322.96 66.1531C322.068 67.9372 321.039 69.9615 319.872 72.2259C318.775 74.4218 317.677 76.5833 316.579 78.7105C315.549 80.8377 314.692 82.5875 314.005 83.9598C313.319 85.3322 312.976 86.0184 312.976 86.0184L313.491 111.133C313.491 111.133 313.491 111.442 313.491 112.059C313.559 112.608 313.422 113.295 313.079 114.118C312.736 114.873 312.016 115.559 310.918 116.177C309.82 116.726 308.139 117 305.874 117C302.855 117 300.625 116.588 299.184 115.765C297.811 114.941 296.954 114.049 296.61 113.089C296.267 112.059 296.096 111.305 296.096 110.824C296.096 110.55 296.062 109.521 295.993 107.736C295.993 105.952 295.993 103.859 295.993 101.458C295.993 99.0561 295.959 96.6544 295.89 94.2527C295.89 91.851 295.856 89.8611 295.787 88.2828C295.787 86.7046 295.787 85.9155 295.787 85.9155L282.098 64.0946C282.098 64.0946 281.892 63.7858 281.48 63.1682C281.068 62.5506 280.794 61.8301 280.657 61.0067C280.588 60.1146 280.965 59.2569 281.789 58.4335C282.612 57.61 284.225 56.9925 286.626 56.5808ZM330.932 111.339L328.976 62.7565C328.976 62.7565 328.976 62.482 328.976 61.9331C329.045 61.3841 329.285 60.7665 329.696 60.0803C330.108 59.3255 330.863 58.6736 331.961 58.1247C333.127 57.5071 334.809 57.164 337.004 57.0954C339.955 56.9582 342.048 57.3013 343.283 58.1247C344.587 58.8795 345.376 59.7029 345.65 60.595C345.994 61.4184 346.165 61.8644 346.165 61.9331C346.165 62.0017 346.199 62.7908 346.268 64.3004C346.337 65.81 346.405 67.6628 346.474 69.8586C346.543 72.0544 346.611 74.2502 346.68 76.446C346.748 78.6418 346.817 80.4946 346.886 82.0042C346.954 83.4452 346.989 84.1657 346.989 84.1657L357.899 83.5481L356.252 62.8594C356.252 62.8594 356.218 62.6193 356.149 62.1389C356.149 61.59 356.286 60.9724 356.561 60.2862C356.904 59.5314 357.59 58.8452 358.619 58.2276C359.717 57.5414 361.33 57.0954 363.457 56.8895C365.653 56.6837 367.334 56.8209 368.501 57.3013C369.667 57.713 370.525 58.2619 371.074 58.9481C371.623 59.6343 371.932 60.2519 372 60.8008C372.137 61.3498 372.206 61.6243 372.206 61.6243L375.397 109.692C375.397 109.692 375.431 110.069 375.5 110.824C375.568 111.51 375.466 112.368 375.191 113.397C374.917 114.358 374.23 115.216 373.132 115.971C372.103 116.657 370.491 117 368.295 117C366.099 117 364.384 116.691 363.148 116.074C361.913 115.456 361.021 114.77 360.472 114.015C359.923 113.192 359.58 112.471 359.443 111.854C359.306 111.236 359.237 110.927 359.237 110.927L358.517 91.1649L347.297 91.7824L348.224 111.956C348.224 111.956 348.189 112.231 348.121 112.78C348.052 113.26 347.778 113.844 347.297 114.53C346.817 115.147 345.994 115.731 344.827 116.279C343.661 116.76 341.945 117 339.681 117C337.416 117 335.666 116.726 334.431 116.177C333.265 115.559 332.441 114.907 331.961 114.221C331.481 113.466 331.172 112.814 331.035 112.265C330.966 111.648 330.932 111.339 330.932 111.339ZM466.216 61.4184C466.147 61.4184 466.25 61.041 466.524 60.2862C466.867 59.4628 467.622 58.6736 468.789 57.9188C469.955 57.164 471.877 56.7523 474.553 56.6837C476.954 56.6151 478.773 56.9239 480.008 57.61C481.243 58.2276 482.067 58.8452 482.478 59.4628C482.959 60.0803 483.199 60.3891 483.199 60.3891C483.199 60.3891 483.576 61.2812 484.331 63.0653C485.086 64.8494 486.115 67.2167 487.419 70.1674C488.723 73.0494 490.164 76.2745 491.742 79.8427C493.32 83.4109 494.898 87.0477 496.477 90.7531C498.123 94.39 499.633 97.8209 501.005 101.046C502.446 104.203 503.647 106.879 504.608 109.074C505.569 111.202 506.186 112.54 506.461 113.089C507.078 114.392 507.421 115.319 507.49 115.868C507.559 116.417 507.524 116.794 507.387 117C507.318 117.137 507.284 117.24 507.284 117.309C506.804 118.269 505.843 119.093 504.402 119.779C503.03 120.534 501.349 120.946 499.359 121.014C496.614 121.083 494.624 120.774 493.389 120.088C492.154 119.47 491.33 118.818 490.918 118.132C490.575 117.515 490.438 117.24 490.507 117.309C490.507 117.309 490.129 116.52 489.375 114.941C488.688 113.363 487.865 111.476 486.904 109.28C485.944 107.016 485.052 104.957 484.228 103.105C484.228 103.105 483.748 103.105 482.787 103.105C481.895 103.105 480.831 103.105 479.596 103.105C478.361 103.105 477.263 103.105 476.303 103.105C475.411 103.105 474.964 103.105 474.964 103.105C474.69 104.065 474.416 105.266 474.141 106.707C473.867 108.079 473.626 109.315 473.421 110.413C473.215 111.51 473.112 112.059 473.112 112.059C473.112 112.059 472.94 112.471 472.597 113.295C472.323 114.118 471.534 114.941 470.23 115.765C468.926 116.588 466.764 117 463.745 117C461.481 117 459.765 116.76 458.599 116.279C457.501 115.731 456.746 115.113 456.334 114.427C455.991 113.741 455.82 113.157 455.82 112.677C455.82 112.128 455.82 111.854 455.82 111.854C455.957 111.167 456.231 109.761 456.643 107.633C457.123 105.438 457.672 102.83 458.29 99.8109C458.976 96.723 459.662 93.4636 460.349 90.0326C461.103 86.6017 461.824 83.205 462.51 79.8427C463.196 76.4803 463.814 73.4268 464.363 70.682C464.912 67.8686 465.358 65.6385 465.701 63.9916C466.044 62.2762 466.216 61.4184 466.216 61.4184ZM477.023 77.6812C476.954 77.9557 476.886 78.5046 476.817 79.328L476.405 82.21C476.268 83.7883 476.097 85.4695 475.891 87.2536C475.685 89.0377 475.479 90.7188 475.273 92.2971C475.136 93.1205 475.033 93.6351 474.964 93.841H476.303C477.126 93.841 478.018 93.8067 478.979 93.7381C479.939 93.6695 480.797 93.6351 481.552 93.6351C481.277 93.0862 481.037 92.4 480.831 91.5766C480.694 90.6845 480.523 89.8611 480.317 89.1063C479.905 87.528 479.425 85.8812 478.876 84.1657C478.395 82.4502 477.949 80.8377 477.538 79.328C477.332 78.5046 477.16 77.9557 477.023 77.6812ZM535.783 87.0477C535.783 81.5582 536.743 76.549 538.665 72.0201C540.586 67.4226 543.193 63.7858 546.487 61.1096C549.781 58.3649 553.418 56.9925 557.398 56.9925C560.348 56.9925 563.162 57.7816 565.838 59.3598C568.514 60.8695 570.881 63.031 572.94 65.8444C574.998 68.5891 576.611 71.7799 577.778 75.4167C578.944 79.0536 579.527 82.9305 579.527 87.0477C579.527 91.1649 578.944 95.0418 577.778 98.6787C576.611 102.315 574.998 105.541 572.94 108.354C570.881 111.099 568.514 113.26 565.838 114.838C563.162 116.348 560.348 117.103 557.398 117.103C553.418 117.103 549.781 115.765 546.487 113.089C543.193 110.344 540.586 106.707 538.665 102.178C536.743 97.6494 535.783 92.6059 535.783 87.0477ZM551.531 86.636C551.531 90.6159 551.805 94.287 552.354 97.6494C552.903 100.943 553.658 103.585 554.619 105.575C555.579 107.496 556.643 108.457 557.809 108.457C558.976 108.457 560.039 107.496 561 105.575C561.961 103.585 562.716 100.943 563.265 97.6494C563.814 94.287 564.088 90.6159 564.088 86.636C564.088 82.5875 563.814 78.9163 563.265 75.6226C562.716 72.3289 561.961 69.687 561 67.6971C560.039 65.7071 558.976 64.7121 557.809 64.7121C556.643 64.7121 555.579 65.7071 554.619 67.6971C553.658 69.687 552.903 72.3289 552.354 75.6226C551.805 78.9163 551.531 82.5875 551.531 86.636ZM688.804 111.751C688.598 109.418 688.461 106.501 688.392 103.002C688.324 99.4335 688.289 95.6251 688.289 91.5766C688.289 87.528 688.324 83.6167 688.392 79.8427C688.53 76 688.667 72.6034 688.804 69.6527C688.941 66.7021 689.078 64.5749 689.216 63.2711C689.422 61.6243 690.005 60.3891 690.966 59.5657C691.926 58.6736 692.99 58.0561 694.156 57.713C695.391 57.3699 696.421 57.1983 697.244 57.1983C698.136 57.1297 698.582 57.0954 698.582 57.0954C698.582 57.0954 698.994 57.164 699.817 57.3013C700.709 57.3699 701.67 57.5414 702.699 57.8159C703.729 58.0904 704.449 58.5707 704.861 59.2569C705.753 60.6293 706.165 61.9674 706.096 63.2711C706.096 64.5063 706.027 66.1188 705.89 68.1088C705.478 73.2552 705.238 78.2987 705.17 83.2393C705.101 88.1799 705.101 92.6745 705.17 96.723C705.238 100.772 705.307 103.997 705.376 106.398C705.513 108.8 705.581 110.001 705.581 110.001C705.581 110.001 705.547 110.378 705.478 111.133C705.478 111.819 705.273 112.608 704.861 113.5C704.449 114.392 703.66 115.216 702.494 115.971C701.327 116.657 699.612 117 697.347 117C695.083 117 693.333 116.76 692.098 116.279C690.931 115.731 690.108 115.113 689.627 114.427C689.216 113.672 688.976 113.054 688.907 112.574C688.838 112.025 688.804 111.751 688.804 111.751ZM714.888 111.339L712.932 62.7565C712.932 62.7565 712.932 62.482 712.932 61.9331C713.001 61.3841 713.241 60.7665 713.652 60.0803C714.064 59.3255 714.819 58.6736 715.917 58.1247C717.083 57.5071 718.765 57.164 720.96 57.0954C723.911 56.9582 726.004 57.3013 727.239 58.1247C728.543 58.8795 729.332 59.7029 729.606 60.595C729.95 61.4184 730.121 61.8644 730.121 61.9331C730.121 62.0017 730.155 62.7908 730.224 64.3004C730.293 65.81 730.361 67.6628 730.43 69.8586C730.499 72.0544 730.567 74.2502 730.636 76.446C730.704 78.6418 730.773 80.4946 730.842 82.0042C730.91 83.4452 730.945 84.1657 730.945 84.1657L741.855 83.5481L740.208 62.8594C740.208 62.8594 740.174 62.6193 740.105 62.1389C740.105 61.59 740.242 60.9724 740.517 60.2862C740.86 59.5314 741.546 58.8452 742.576 58.2276C743.673 57.5414 745.286 57.0954 747.413 56.8895C749.609 56.6837 751.29 56.8209 752.457 57.3013C753.623 57.713 754.481 58.2619 755.03 58.9481C755.579 59.6343 755.888 60.2519 755.956 60.8008C756.093 61.3498 756.162 61.6243 756.162 61.6243L759.353 109.692C759.353 109.692 759.387 110.069 759.456 110.824C759.524 111.51 759.422 112.368 759.147 113.397C758.873 114.358 758.186 115.216 757.088 115.971C756.059 116.657 754.447 117 752.251 117C750.055 117 748.34 116.691 747.104 116.074C745.869 115.456 744.977 114.77 744.428 114.015C743.879 113.192 743.536 112.471 743.399 111.854C743.262 111.236 743.193 110.927 743.193 110.927L742.473 91.1649L731.253 91.7824L732.18 111.956C732.18 111.956 732.145 112.231 732.077 112.78C732.008 113.26 731.734 113.844 731.253 114.53C730.773 115.147 729.95 115.731 728.783 116.279C727.617 116.76 725.901 117 723.637 117C721.372 117 719.622 116.726 718.387 116.177C717.221 115.559 716.397 114.907 715.917 114.221C715.437 113.466 715.128 112.814 714.991 112.265C714.922 111.648 714.888 111.339 714.888 111.339Z" fill="white"/>
<path d="M641.284 64.2707L639.982 101.648C639.982 101.648 639.84 101.9 639.557 102.403C639.335 102.904 639.119 103.527 638.908 104.272C638.701 105.078 638.675 105.845 638.831 106.573C638.987 107.301 639.474 107.891 640.292 108.344C640.981 108.679 642.237 109.326 644.058 110.283C645.944 111.299 648.225 112.266 650.902 113.183C653.58 114.101 656.426 114.705 659.442 114.994C662.519 115.28 665.568 114.955 668.589 114.019C671.673 113.141 674.53 111.323 677.16 108.567C679.731 105.874 681.281 102.953 681.809 99.8032C682.338 96.6536 682.135 93.5992 681.201 90.6399C680.329 87.6778 678.953 85.1066 677.075 82.9263C675.259 80.7432 673.228 79.2441 670.985 78.4288C667.932 77.3447 665.328 76.6993 663.174 76.4927C661.023 76.3472 659.369 76.3625 658.213 76.5386C657.054 76.6535 656.475 76.711 656.475 76.711L656.75 62.8191C656.75 62.8191 656.736 62.5134 656.708 61.902C656.68 61.2905 656.464 60.5958 656.06 59.8179C655.717 59.0372 655.014 58.3958 653.949 57.8936C652.881 57.3303 651.338 57.0953 649.32 57.1888C646.633 57.3745 644.696 57.8931 643.51 58.7447C642.385 59.5933 641.724 60.5431 641.528 61.5939C641.331 62.6447 641.25 63.5369 641.284 64.2707ZM654.939 105.092L656.036 85.0955C656.036 85.0955 656.555 85.0715 657.595 85.0233C658.634 84.9752 659.805 85.1048 661.106 85.4122C662.468 85.7168 663.662 86.3662 664.689 87.3604C665.715 88.3545 666.215 89.8939 666.189 91.9785C666.194 94.7357 666.002 97.1957 665.612 99.3584C665.225 101.582 664.569 103.298 663.644 104.505C662.72 105.712 661.394 106.202 659.668 105.976C657.942 105.749 656.738 105.56 656.057 105.408C655.44 105.314 655.099 105.238 655.035 105.179C654.971 105.121 654.939 105.092 654.939 105.092Z" fill="white"/>
<path d="M617.09 117C619.56 117 621.447 116.726 622.751 116.177C623.986 115.559 624.878 114.873 625.427 114.118C625.908 113.295 626.182 112.608 626.251 112.059C626.251 111.442 626.251 111.133 626.251 111.133C626.251 111.133 626.354 110.104 626.56 108.045C626.765 105.987 627.04 103.345 627.383 100.12C627.726 96.8259 628.103 93.3264 628.515 89.6209C628.858 85.8469 629.236 82.2444 629.647 78.8134C629.99 75.3138 630.265 72.3632 630.471 69.9615C630.677 67.4912 630.814 65.9473 630.883 65.3297C630.951 63.5456 630.574 62.0017 629.75 60.6979C628.858 59.3255 626.731 58.5364 623.369 58.3305C621.104 58.1933 619.286 58.5364 617.914 59.3598C616.541 60.1833 615.546 61.041 614.929 61.9331C614.311 62.7565 614.002 63.1682 614.002 63.1682L604.327 86.636L600.519 93.7381L602.886 74.1816C602.886 74.1816 602.886 73.0494 602.886 70.7849C602.817 68.5205 602.68 65.81 602.474 62.6536C602.337 61.0753 601.822 59.8745 600.93 59.0511C600.038 58.2276 599.043 57.6444 597.945 57.3013C596.779 56.9582 595.784 56.7866 594.96 56.7866C594.068 56.718 593.622 56.6837 593.622 56.6837C593.622 56.6837 593.245 56.718 592.49 56.7866C591.667 56.8552 590.74 57.164 589.711 57.713C588.682 58.1933 587.79 59.0854 587.035 60.3891C586.211 61.6243 585.834 63.4427 585.903 65.8444C585.971 68.795 585.868 72.1573 585.594 75.9314C585.319 79.6368 584.976 83.4452 584.565 87.3565C584.084 91.2678 583.638 94.9389 583.226 98.3699C582.746 101.732 582.334 104.546 581.991 106.81C581.58 109.074 581.339 110.481 581.271 111.03C581.134 111.854 581.099 112.849 581.168 114.015C581.237 115.182 581.785 116.211 582.815 117.103C583.775 117.995 585.594 118.475 588.27 118.544C590.946 118.544 592.936 118.235 594.24 117.618C595.544 117 596.436 116.382 596.916 115.765C597.328 115.079 597.534 114.736 597.534 114.736L612.973 87.0477C612.973 87.0477 612.836 87.7339 612.561 89.1063C612.287 90.4787 611.978 92.2628 611.635 94.4586C611.223 96.6544 610.846 99.0218 610.503 101.561C610.091 104.1 609.782 106.536 609.576 108.869C609.37 111.202 609.645 112.951 610.4 114.118C611.086 115.216 611.978 115.971 613.076 116.382C614.105 116.794 615.031 117 615.855 117C616.678 117 617.09 117 617.09 117Z" fill="white"/>
<path d="M421.007 97.4028C420.843 95.5479 420.734 93.2293 420.679 90.4471C420.625 87.6102 420.597 84.5824 420.597 81.3637C420.597 78.145 420.625 75.0354 420.679 72.0349C420.788 68.9799 420.898 66.2794 421.007 63.9336C421.116 61.5877 421.225 59.8965 421.334 58.86C421.498 57.5507 421.961 56.5687 422.725 55.914C423.489 55.2048 424.334 54.7138 425.262 54.4411C426.244 54.1683 427.062 54.0319 427.717 54.0319C428.426 53.9774 428.781 53.9501 428.781 53.9501C428.781 53.9501 429.108 54.0046 429.763 54.1137C430.472 54.1683 431.236 54.3047 432.054 54.5229C432.872 54.7411 433.445 55.123 433.772 55.6686C434.482 56.7596 434.809 57.8235 434.754 58.86C434.754 59.842 434.7 61.124 434.591 62.7061C434.263 66.7977 434.072 70.8074 434.018 74.7354C433.963 78.6633 433.963 82.2366 434.018 85.4553C434.072 88.674 434.127 91.2381 434.182 93.1475C434.291 95.0569 434.345 96.0116 434.345 96.0116C434.345 96.0116 434.318 96.3117 434.263 96.9118C434.263 97.4573 434.1 98.0847 433.772 98.7939C433.445 99.5031 432.818 100.158 431.89 100.758C430.963 101.303 429.599 101.576 427.799 101.576C425.998 101.576 424.607 101.385 423.625 101.003C422.698 100.567 422.043 100.076 421.661 99.5304C421.334 98.9303 421.143 98.4393 421.088 98.0574C421.034 97.621 421.007 97.4028 421.007 97.4028Z" fill="white"/>
<path d="M412.057 67.1293C412.112 67.1226 412.599 67.0618 413.519 66.9468C414.446 66.8861 415.586 66.7712 416.94 66.6022C418.3 66.4873 419.629 66.3488 420.929 66.1866C422.289 66.0717 423.429 65.9568 424.349 65.8419C425.276 65.7812 425.74 65.7508 425.74 65.7508C425.74 65.7508 426.038 65.7136 426.633 65.6392C427.229 65.5649 427.919 65.3687 428.704 65.0508C429.495 64.787 430.152 64.3202 430.673 63.6504C431.248 62.9738 431.485 62.0096 431.384 60.7577C431.289 59.56 430.819 58.6566 429.973 58.0475C429.189 57.4858 428.265 57.1338 427.203 56.9915C426.201 56.8967 425.291 56.8729 424.472 56.9201C423.708 56.9606 423.325 56.9809 423.325 56.9809C423.325 56.9809 422.75 56.9977 421.6 57.0314C420.51 57.1124 419.059 57.1562 417.245 57.1628C415.432 57.1693 413.446 57.1149 411.287 56.9996C409.136 56.9384 407.052 56.7588 405.035 56.4608C403.019 56.1628 401.371 56.1761 400.092 56.5007C398.86 56.7645 397.92 57.1568 397.27 57.6777C396.627 58.2528 396.174 58.8043 395.91 59.332C395.707 59.9072 395.615 60.2759 395.636 60.4383C395.629 60.824 395.795 61.2706 396.133 61.7782C396.478 62.3399 397.043 62.6817 397.828 62.8036C398.105 62.8239 398.335 63.5649 398.518 65.0265C398.707 66.5423 398.839 68.4775 398.913 70.8323C399.048 73.2345 399.125 75.8363 399.145 78.6377C399.165 81.4391 399.127 84.2202 399.032 86.981C398.991 89.735 398.913 92.1913 398.798 94.3498C398.683 96.5084 398.5 98.1256 398.249 99.2015C397.904 100.839 398.002 102.064 398.543 102.876C399.084 103.688 399.758 104.236 400.563 104.52C401.429 104.852 402.193 105.031 402.857 105.059C403.574 105.079 403.932 105.089 403.932 105.089C403.932 105.089 404.288 105.072 404.998 105.039C405.77 105.052 406.629 104.89 407.576 104.552C408.585 104.261 409.475 103.682 410.246 102.816C411.078 101.998 411.579 100.726 411.749 99.0002C411.959 96.7199 412.199 94.0234 412.47 90.9108C412.802 87.8456 412.969 84.3337 412.969 80.3752C413.024 76.4099 412.72 71.9947 412.057 67.1293Z" fill="white"/>
<path d="M393.701 104.866C393.692 104.925 393.617 105.455 393.474 106.457C393.39 107.467 393.243 108.708 393.033 110.181C392.882 111.662 392.706 113.11 392.505 114.524C392.354 116.005 392.207 117.247 392.064 118.249C391.98 119.259 391.938 119.764 391.938 119.764C391.938 119.764 391.892 120.088 391.8 120.736C391.707 121.384 391.48 122.133 391.119 122.983C390.816 123.842 390.294 124.549 389.554 125.105C388.805 125.719 387.749 125.96 386.385 125.825C385.081 125.7 384.104 125.17 383.456 124.236C382.858 123.369 382.492 122.355 382.357 121.193C382.272 120.099 382.263 119.106 382.33 118.214C382.389 117.381 382.418 116.964 382.418 116.964C382.418 116.964 382.447 116.337 382.506 115.083C382.615 113.896 382.69 112.314 382.732 110.336C382.773 108.358 382.751 106.191 382.666 103.834C382.64 101.486 382.484 99.2094 382.197 97.0044C381.91 94.7993 381.956 93.0024 382.334 91.6135C382.645 90.2752 383.091 89.2566 383.671 88.5579C384.311 87.8675 384.921 87.3834 385.501 87.1054C386.132 86.8948 386.536 86.8021 386.713 86.8273C387.134 86.8271 387.618 87.0163 388.165 87.3949C388.771 87.7818 389.133 88.4045 389.252 89.263C389.268 89.566 390.072 89.8308 391.663 90.0575C393.313 90.2926 395.421 90.4729 397.988 90.5983C400.606 90.791 403.442 90.9247 406.498 90.9994C409.553 91.0741 412.587 91.0857 415.6 91.0342C418.605 91.0416 421.285 91.0028 423.642 90.9178C425.999 90.8329 427.766 90.6639 428.944 90.411C430.737 90.0654 432.071 90.1954 432.946 90.8011C433.822 91.4068 434.407 92.1514 434.702 93.0351C435.047 93.986 435.229 94.8234 435.246 95.5472C435.254 96.3299 435.259 96.7213 435.259 96.7213C435.259 96.7213 435.234 97.1085 435.183 97.8828C435.184 98.7245 434.99 99.6588 434.604 100.686C434.267 101.78 433.62 102.74 432.66 103.565C431.752 104.457 430.355 104.98 428.469 105.132C425.978 105.318 423.033 105.529 419.632 105.766C416.283 106.07 412.449 106.185 408.131 106.111C403.805 106.095 398.995 105.68 393.701 104.866Z" fill="white"/>
<path d="M435.5 107.223C435.508 107.283 435.574 107.814 435.7 108.818C435.766 109.829 435.891 111.073 436.076 112.549C436.201 114.033 436.352 115.484 436.529 116.901C436.654 118.385 436.78 119.629 436.905 120.633C436.971 121.644 437.004 122.15 437.004 122.15C437.004 122.15 437.045 122.474 437.126 123.124C437.207 123.774 437.421 124.527 437.768 125.383C438.056 126.247 438.565 126.963 439.296 127.531C440.034 128.159 441.086 128.417 442.451 128.307C443.758 128.204 444.743 127.691 445.408 126.768C446.021 125.912 446.405 124.904 446.56 123.745C446.663 122.653 446.689 121.66 446.638 120.767C446.594 119.933 446.572 119.516 446.572 119.516C446.572 119.516 446.553 118.888 446.516 117.633C446.428 116.445 446.38 114.861 446.373 112.883C446.366 110.905 446.425 108.738 446.551 106.383C446.618 104.036 446.814 101.762 447.139 99.5627C447.464 97.363 447.449 95.5655 447.095 94.1703C446.808 92.8268 446.38 91.8007 445.811 91.0919C445.184 90.3906 444.582 89.8959 444.007 89.608C443.379 89.3864 442.977 89.2867 442.8 89.3088C442.379 89.3014 441.892 89.4822 441.338 89.8512C440.725 90.2276 440.352 90.8439 440.219 91.7002C440.197 92.0028 439.389 92.2537 437.794 92.4528C436.141 92.6593 434.03 92.8029 431.461 92.8838C428.84 93.0311 426.002 93.1156 422.946 93.1373C419.89 93.1591 416.856 93.1181 413.844 93.0143C410.84 92.9696 408.16 92.8844 405.805 92.7586C403.451 92.6328 401.686 92.4332 400.513 92.16C398.726 91.7832 397.39 91.8901 396.504 92.4805C395.619 93.071 395.021 93.8054 394.71 94.6838C394.349 95.6286 394.153 96.4627 394.123 97.1861C394.101 97.9686 394.09 98.3598 394.09 98.3598C394.09 98.3598 394.108 98.7473 394.145 99.5224C394.13 100.364 394.307 101.301 394.676 102.335C394.993 103.435 395.624 104.406 396.569 105.247C397.462 106.155 398.85 106.702 400.732 106.887C403.22 107.116 406.162 107.378 409.557 107.674C412.901 108.036 416.732 108.217 421.05 108.218C425.376 108.278 430.193 107.946 435.5 107.223Z" fill="white"/>
<path d="M620.828 48.2966C619.662 48.3995 618.204 48.4681 616.454 48.5024C614.67 48.5367 612.766 48.5539 610.741 48.5539C608.717 48.5539 606.761 48.5367 604.874 48.5024C602.953 48.4338 601.255 48.3652 599.779 48.2966C598.304 48.2279 597.241 48.1593 596.589 48.0907C595.765 47.9878 595.148 47.6961 594.736 47.2158C594.29 46.7355 593.981 46.2037 593.81 45.6204C593.638 45.0028 593.552 44.4882 593.552 44.0765C593.518 43.6304 593.501 43.4074 593.501 43.4074C593.501 43.4074 593.535 43.2016 593.604 42.7899C593.638 42.3438 593.724 41.8635 593.861 41.3489C593.998 40.8342 594.238 40.474 594.582 40.2681C595.268 39.8221 595.937 39.6162 596.589 39.6505C597.206 39.6505 598.013 39.6848 599.008 39.7535C601.581 39.9593 604.102 40.0794 606.573 40.1137C609.043 40.148 611.29 40.148 613.315 40.1137C615.339 40.0794 616.951 40.0451 618.152 40.0108C619.353 39.9422 619.954 39.9079 619.954 39.9079C619.954 39.9079 620.142 39.925 620.52 39.9593C620.863 39.9593 621.257 40.0622 621.703 40.2681C622.149 40.474 622.561 40.8685 622.938 41.4518C623.282 42.0351 623.453 42.8928 623.453 44.025C623.453 45.1572 623.333 46.0321 623.093 46.6497C622.818 47.233 622.51 47.6447 622.167 47.8848C621.789 48.0907 621.48 48.2108 621.24 48.2451C620.966 48.2794 620.828 48.2966 620.828 48.2966Z" fill="white"/>
</svg>
