<svg width="355" height="125" viewBox="0 0 355 125" fill="none" xmlns="http://www.w3.org/2000/svg">
<g filter="url(#filter0_d_673_638)">
<g clip-path="url(#clip0_673_638)">
<path d="M39.2487 48.8158C42.8235 50.422 44.6296 51.4219 46.7483 50.6907C48.8044 49.9845 49.8418 48.0909 50.1043 47.5659C51.5855 44.6098 50.2356 41.5225 49.8731 40.6913C48.1357 36.7165 44.1484 35.0416 41.1236 33.8166C37.7425 32.448 29.7617 29.2231 20.4997 32.5667C18.5873 33.2542 7.13163 37.3914 5.35048 47.5659C5.27548 47.9909 4.14429 55.0842 8.6253 60.6902C10.6377 63.2151 12.9563 64.3963 15.4999 65.6899C19.3997 67.6773 21.0246 67.4648 29.2492 70.0647C35.3989 72.0083 36.9363 72.902 37.3738 74.4395C38.0425 76.7893 35.7113 79.2267 35.4989 79.4392C33.1802 81.8016 29.8054 81.6828 27.7305 81.6078C23.487 81.4578 20.2309 79.7017 18.6248 78.8142C14.4625 76.5144 13.9938 74.702 11.1252 74.4395C10.8877 74.4145 7.36287 74.1457 5.35048 76.4706C2.76937 79.4579 4.63177 84.4452 4.8755 85.0639C8.10658 93.3697 20.8121 95.1946 24.2495 95.6883C29.5992 96.457 38.3612 97.7195 45.4983 91.9385C46.467 91.1573 52.7042 85.9389 52.9979 77.5643C53.0479 76.1581 53.1542 71.1896 49.8731 66.9399C49.1919 66.0587 47.3982 63.9525 41.1236 61.3152C30.1616 56.7092 23.6432 58.0903 21.7496 53.8156C21.1059 52.3594 21.0684 50.4095 21.7496 48.8158C22.912 46.0972 25.8556 45.1473 26.1244 45.066C27.0243 44.7911 29.2304 44.3161 39.2487 48.8158Z" fill="white"/>
<path d="M126.119 76.7089C124.587 74.184 122.687 70.3842 121.119 64.8345C121.2 61.7409 120.931 56.0475 117.994 49.8353C116.782 47.2667 114.619 42.8169 109.869 39.2109C102.307 33.4674 93.7515 34.0049 91.1204 34.2111C88.5143 34.4174 79.5273 35.4673 72.3714 42.9607C66.7405 48.8604 65.3531 55.485 64.8718 57.9599C64.3219 60.7722 61.5158 77.3276 73.6214 87.3333C80.1835 92.758 89.4893 94.7892 97.9951 92.333C105.632 90.1269 110.107 85.0397 111.744 82.9585C113.038 85.1022 114.488 86.5021 115.494 87.3333C116.713 88.3458 117.925 89.3457 119.869 89.8332C120.719 90.0457 122.344 90.4706 124.244 89.8332C124.856 89.6269 126.918 88.8395 127.993 86.7083C128.262 86.1771 128.65 85.2022 128.618 83.5835C128.556 80.2212 126.706 77.6838 126.119 76.7089ZM104.245 64.8345C103.589 69.6718 100.245 76.1277 93.6203 77.3338C87.9081 78.3713 82.4521 75.0277 79.871 70.4592C76.6962 64.8345 78.1586 57.8286 82.3709 53.5851C86.0269 49.8978 92.4953 47.5354 97.9951 50.4603C103.732 53.5101 104.845 60.4285 104.245 64.8345Z" fill="white"/>
<path d="M139.868 39.8482C139.78 48.3915 139.693 56.9285 139.605 65.4718C139.693 71.9277 139.78 78.3899 139.868 84.8458C139.255 90.5455 143.843 95.0765 148.411 94.8452C152.524 94.6327 156.355 90.5705 156.117 85.4707C156.323 81.096 156.536 76.7212 156.742 72.3464V58.5972C157.161 54.7724 160.586 52.01 164.242 52.3475C167.673 52.6662 170.429 55.6286 170.491 59.2221V86.0957C169.841 91.5767 173.954 95.6264 177.366 95.4702C180.491 95.3265 183.916 91.6329 183.616 86.7207V59.7471C182.928 55.5911 186.084 51.8725 189.865 51.7225C193.646 51.5726 197.09 55.0224 196.74 59.2221V86.0957C196.146 91.1892 199.64 95.214 202.99 95.4702C206.602 95.7452 210.983 91.7016 210.489 86.0957V57.916C210.689 56.791 211.877 49.4039 206.739 42.973C202.008 37.0483 195.34 36.2359 193.896 36.0984C186.159 35.3547 180.828 39.6669 179.866 40.4731C178.96 39.417 176.278 36.5734 171.741 35.4734C166.467 34.1985 162.261 36.1421 161.117 36.7233C156.855 38.8795 154.873 42.3543 154.242 43.598C154.373 42.5605 154.473 41.0356 154.242 39.2232C154.017 37.4671 153.836 36.0671 152.992 34.8484C151.499 32.6798 148.061 31.2736 144.868 32.3486C141.793 33.3798 139.718 36.4484 139.868 39.8482Z" fill="white"/>
<path d="M274.861 51.2908C274.867 50.8596 274.93 47.7723 274.236 43.7912C273.699 40.7039 273.299 38.5727 271.736 36.2916C271.168 35.4667 269.568 33.3355 266.737 31.9169C264.599 30.8482 262.656 30.6357 257.987 30.6669C251.831 30.7107 248.756 30.7294 245.569 31.2919C241.575 31.9981 235.757 33.0168 231.113 36.2916C221.664 42.9538 217.47 58.6904 222.989 70.6648C226.695 78.7206 233.613 82.5017 234.863 83.1641C240.838 86.3202 246.463 86.3202 249.237 86.289C253.768 86.239 257.443 85.2578 259.862 84.4141C260.012 85.6452 260.106 87.3701 259.862 89.4138C259.762 90.2575 259.487 92.5261 258.612 94.4135C256.1 99.8445 249.044 101.213 248.613 101.288C247.869 101.419 241.794 102.419 237.363 98.7883C234.088 96.1072 234.62 93.2011 231.738 92.2261C228.989 91.2949 225.445 92.6824 223.614 95.0385C220.208 99.4257 223.714 105.944 224.239 106.913C226.72 111.519 230.945 113.437 233.613 114.65C240.632 117.837 247.156 117.019 251.112 116.525C255.112 116.025 259.287 115.5 263.612 112.538C264.618 111.85 268.061 109.25 271.111 103.788C272.974 100.451 274.086 96.9446 274.861 81.2892C275.711 64.1401 274.617 63.5277 274.861 51.2908ZM260.487 68.1649C258.037 72.2334 251.825 73.9771 246.738 72.5397C240.925 70.896 238.507 65.6401 237.988 64.4151C237.826 64.0339 234.77 56.4718 239.238 50.6659C242.15 46.8848 246.488 46.1411 249.237 45.6661C252.144 45.1661 256.606 44.4037 259.237 46.9161C259.806 47.4598 260.781 48.6285 261.112 58.1655C261.306 63.8151 261.387 66.665 260.487 68.1649Z" fill="white"/>
<path d="M231.113 14.6553C231.213 18.6676 235.175 21.5862 237.988 22.7799C242.656 24.761 244.506 22.1424 252.987 22.1549C261.468 22.1674 263.393 24.786 267.361 22.7799C270.936 20.9737 273.567 16.724 273.611 12.1554C273.611 11.5992 273.567 5.71829 268.611 2.15598C263.386 -1.59382 257.449 0.624816 256.737 0.906051C250.15 3.49966 248.706 10.4305 248.612 10.9055C248.225 10.3618 245.669 6.92448 241.113 6.53075C240.406 6.46825 236.513 6.13077 233.613 9.03062C233.219 9.42435 231.038 11.6055 231.113 14.6553Z" fill="white"/>
<path d="M348.101 76.7089C346.57 74.184 344.67 70.3842 343.101 64.8345C343.183 61.7409 342.914 56.0475 339.976 49.8353C338.764 47.2667 336.602 42.8169 331.852 39.2109C324.29 33.4674 315.734 34.0049 313.103 34.2111C310.497 34.4174 301.51 35.4673 294.354 42.9607C288.723 48.8604 287.335 55.485 286.854 57.9599C286.304 60.7722 283.498 77.3276 295.604 87.3333C302.166 92.758 311.472 94.7892 319.977 92.333C327.615 90.1269 332.089 85.0397 333.727 82.9585C335.02 85.1022 336.47 86.5021 337.477 87.3333C338.695 88.3458 339.908 89.3457 341.851 89.8332C342.701 90.0457 344.326 90.4706 346.226 89.8332C346.839 89.6269 348.901 88.8395 349.976 86.7083C350.245 86.1771 350.632 85.2022 350.601 83.5835C350.538 80.2212 348.688 77.6838 348.101 76.7089ZM326.227 64.8345C325.571 69.6718 322.227 76.1277 315.603 77.3338C309.891 78.3713 304.435 75.0277 301.853 70.4592C298.679 64.8345 300.141 57.8286 304.353 53.5851C308.009 49.8978 314.478 47.5354 319.977 50.4603C325.715 53.5101 326.827 60.4285 326.227 64.8345Z" fill="white"/>
<path d="M268.611 22.4796C270.83 22.7046 273.211 22.7421 275.173 21.6546C275.598 21.4046 275.911 21.0546 276.092 20.7047C276.579 19.8422 276.935 19.3047 276.985 18.311C276.998 17.8298 276.898 17.2923 276.717 16.6611L276.873 16.5049C278.304 16.9424 279.135 18.6173 278.848 20.1047C278.585 21.6796 277.267 22.7545 275.936 23.2545C273.436 24.167 270.88 23.617 268.555 22.6983L268.611 22.4858V22.4796Z" fill="white"/>
<path d="M276.424 20.5926C277.459 20.5926 278.299 19.7532 278.299 18.7177C278.299 17.6822 277.459 16.8428 276.424 16.8428C275.388 16.8428 274.549 17.6822 274.549 18.7177C274.549 19.7532 275.388 20.5926 276.424 20.5926Z" fill="white"/>
<path d="M276.424 20.905C275.218 20.905 274.236 19.9238 274.236 18.7177C274.236 17.5115 275.218 16.5303 276.424 16.5303C277.63 16.5303 278.611 17.5115 278.611 18.7177C278.611 19.9238 277.63 20.905 276.424 20.905ZM276.424 17.1552C275.561 17.1552 274.861 17.8552 274.861 18.7177C274.861 19.5801 275.561 20.2801 276.424 20.2801C277.286 20.2801 277.986 19.5801 277.986 18.7177C277.986 17.8552 277.286 17.1552 276.424 17.1552Z" fill="white"/>
</g>
</g>
<defs>
<filter id="filter0_d_673_638" x="0" y="0" width="354.6" height="125" filterUnits="userSpaceOnUse" color-interpolation-filters="sRGB">
<feFlood flood-opacity="0" result="BackgroundImageFix"/>
<feColorMatrix in="SourceAlpha" type="matrix" values="0 0 0 0 0 0 0 0 0 0 0 0 0 0 0 0 0 0 127 0" result="hardAlpha"/>
<feOffset dy="4"/>
<feGaussianBlur stdDeviation="2"/>
<feComposite in2="hardAlpha" operator="out"/>
<feColorMatrix type="matrix" values="0 0 0 0 0 0 0 0 0 0 0 0 0 0 0 0 0 0 0.25 0"/>
<feBlend mode="normal" in2="BackgroundImageFix" result="effect1_dropShadow_673_638"/>
<feBlend mode="normal" in="SourceGraphic" in2="effect1_dropShadow_673_638" result="shape"/>
</filter>
<clipPath id="clip0_673_638">
<rect width="346.6" height="117" fill="white" transform="translate(4)"/>
</clipPath>
</defs>
</svg>
