<svg width="1141" height="285" viewBox="0 0 1141 285" fill="none" xmlns="http://www.w3.org/2000/svg">
<path d="M514.285 214.123L512.974 170.26C512.974 170.26 513.046 170.048 513.19 169.624C513.269 169.21 513.23 168.676 513.074 168.024C512.918 167.372 512.46 166.728 511.701 166.091C510.875 165.464 509.562 164.971 507.763 164.611C505.333 164.07 502.528 163.747 499.35 163.645C496.096 163.485 492.736 163.778 489.269 164.523C485.735 165.278 482.376 166.816 479.19 169.139C477.285 170.478 475.971 172.207 475.249 174.327C474.527 176.446 474.219 178.643 474.326 180.918C474.433 183.193 474.725 185.342 475.201 187.364C475.612 189.396 476.072 191.05 476.582 192.327C477.026 193.612 477.248 194.255 477.248 194.255C477.248 194.255 477.547 194.719 478.144 195.648C478.742 196.576 479.787 197.577 481.279 198.652C482.697 199.67 484.678 200.374 487.222 200.766L475.204 217.871C475.204 217.871 475.008 218.167 474.618 218.759C474.227 219.352 473.953 220.063 473.796 220.892C473.565 221.665 473.734 222.416 474.304 223.146C474.8 223.819 475.976 224.297 477.832 224.581C479.755 224.856 481.425 224.761 482.843 224.297C484.195 223.842 485.294 223.254 486.138 222.532C486.917 221.819 487.502 221.166 487.892 220.574C488.283 219.981 488.479 219.685 488.479 219.685L499.371 201.725L497.998 216.156C497.998 216.156 497.972 216.463 497.921 217.076C497.861 217.623 498.012 218.242 498.375 218.933C498.738 219.624 499.489 220.194 500.627 220.644C501.757 221.028 503.478 221.061 505.792 220.743C508.105 220.426 509.887 219.912 511.137 219.202C512.321 218.5 513.128 217.75 513.558 216.95C513.988 216.15 514.233 215.477 514.294 214.93C514.288 214.392 514.285 214.123 514.285 214.123ZM498.98 172.08L499.308 192.339C499.308 192.339 498.949 192.422 498.231 192.588C497.447 192.763 496.512 192.824 495.428 192.77C494.277 192.726 493.157 192.409 492.067 191.818C490.901 191.169 489.88 190.097 489.004 188.601C488.118 187.039 487.582 184.823 487.394 181.953C487.224 179.216 487.484 177.16 488.172 175.786C488.852 174.345 489.797 173.374 491.008 172.871C492.21 172.302 493.519 172.021 494.934 172.029C496.34 171.971 497.689 171.988 498.98 172.08Z" fill="white"/>
<path d="M244.2 161.673C244.2 161.673 244.634 161.74 245.501 161.873C246.369 161.94 247.336 162.24 248.404 162.774C249.538 163.241 250.505 164.108 251.306 165.376C252.106 166.577 252.44 168.345 252.307 170.68C252.24 172.214 252.14 174.283 252.006 176.885C251.94 179.42 251.906 182.222 251.906 185.291C251.906 188.294 251.973 191.296 252.106 194.298C252.307 197.3 252.607 200.069 253.007 202.605C253.474 205.14 254.075 207.175 254.809 208.709C255.609 210.177 256.577 210.878 257.711 210.811C258.912 210.744 259.812 209.944 260.413 208.409C261.013 206.808 261.414 204.806 261.614 202.404C261.814 199.936 261.881 197.334 261.814 194.598C261.747 191.863 261.614 189.261 261.414 186.792C261.213 184.257 261.013 182.189 260.813 180.588C260.68 178.92 260.58 177.986 260.513 177.785C260.446 177.519 260.346 176.951 260.213 176.084C260.079 175.217 260.146 174.283 260.413 173.282C260.68 172.281 261.347 171.381 262.414 170.58C263.549 169.779 265.317 169.279 267.718 169.079C270.12 168.879 271.988 169.179 273.323 169.979C274.657 170.78 275.591 171.747 276.125 172.882C276.725 174.016 277.059 175.017 277.126 175.884C277.259 176.751 277.326 177.185 277.326 177.185C277.326 177.185 277.426 177.952 277.626 179.487C277.893 181.021 278.093 183.056 278.227 185.591C278.427 188.06 278.427 190.795 278.227 193.798C278.093 196.8 277.659 199.836 276.926 202.905C276.258 205.907 275.158 208.676 273.623 211.211C272.089 213.68 270.02 215.681 267.418 217.216C264.816 218.75 261.547 219.518 257.611 219.518C253.674 219.518 250.338 218.717 247.603 217.116C244.934 215.448 242.733 213.279 240.998 210.611C239.33 207.875 238.029 204.84 237.095 201.504C236.228 198.168 235.627 194.765 235.294 191.296C235.027 187.76 234.893 184.424 234.893 181.288C234.96 178.152 235.06 175.417 235.193 173.082C235.394 170.747 235.527 169.079 235.594 168.078C235.727 166.343 236.228 165.042 237.095 164.175C237.962 163.241 238.93 162.607 239.997 162.273C241.131 161.94 242.099 161.773 242.899 161.773C243.767 161.706 244.2 161.673 244.2 161.673Z" fill="white"/>
<path d="M263.428 222.775C263.228 220.507 263.095 217.671 263.028 214.268C262.961 210.799 262.928 207.096 262.928 203.16C262.928 199.224 262.961 195.421 263.028 191.751C263.161 188.015 263.295 184.712 263.428 181.843C263.562 178.975 263.695 176.906 263.829 175.639C264.029 174.037 264.596 172.837 265.53 172.036C266.464 171.169 267.498 170.568 268.632 170.235C269.833 169.901 270.834 169.734 271.635 169.734C272.502 169.667 272.936 169.634 272.936 169.634C272.936 169.634 273.336 169.701 274.137 169.834C275.004 169.901 275.938 170.068 276.939 170.335C277.939 170.601 278.64 171.068 279.04 171.736C279.908 173.07 280.308 174.371 280.241 175.639C280.241 176.84 280.175 178.407 280.041 180.342C279.641 185.346 279.407 190.25 279.341 195.054C279.274 199.857 279.274 204.227 279.341 208.164C279.407 212.1 279.474 215.236 279.541 217.571C279.674 219.906 279.741 221.074 279.741 221.074C279.741 221.074 279.707 221.441 279.641 222.175C279.641 222.842 279.441 223.609 279.04 224.476C278.64 225.344 277.873 226.144 276.739 226.878C275.604 227.545 273.936 227.879 271.735 227.879C269.533 227.879 267.832 227.645 266.631 227.178C265.497 226.645 264.696 226.044 264.229 225.377C263.829 224.643 263.595 224.043 263.528 223.576C263.462 223.042 263.428 222.775 263.428 222.775Z" fill="white"/>
<path d="M687.639 222.783C687.439 220.514 687.306 217.679 687.239 214.276C687.172 210.807 687.139 207.104 687.139 203.168C687.139 199.231 687.172 195.428 687.239 191.759C687.372 188.023 687.506 184.72 687.639 181.851C687.773 178.982 687.906 176.914 688.04 175.646C688.24 174.045 688.807 172.844 689.741 172.044C690.675 171.176 691.709 170.576 692.843 170.242C694.044 169.909 695.045 169.742 695.846 169.742C696.713 169.675 697.147 169.642 697.147 169.642C697.147 169.642 697.547 169.709 698.347 169.842C699.215 169.909 700.149 170.076 701.15 170.342C702.15 170.609 702.851 171.076 703.251 171.743C704.119 173.078 704.519 174.379 704.452 175.646C704.452 176.847 704.385 178.415 704.252 180.35C703.852 185.354 703.618 190.258 703.551 195.061C703.485 199.865 703.485 204.235 703.551 208.172C703.618 212.108 703.685 215.244 703.752 217.579C703.885 219.914 703.952 221.081 703.952 221.081C703.952 221.081 703.918 221.448 703.852 222.182C703.852 222.85 703.652 223.617 703.251 224.484C702.851 225.351 702.084 226.152 700.949 226.886C699.815 227.553 698.147 227.887 695.946 227.887C693.744 227.887 692.043 227.653 690.842 227.186C689.707 226.652 688.907 226.052 688.44 225.385C688.04 224.651 687.806 224.05 687.739 223.583C687.673 223.05 687.639 222.783 687.639 222.783Z" fill="white"/>
<path d="M6.07079 222.475C6.07079 222.475 6.00407 221.541 5.87063 219.673C5.80392 217.804 5.67048 215.403 5.47032 212.467C5.33689 209.531 5.17009 206.396 4.96994 203.06C4.76979 199.657 4.56963 196.421 4.36948 193.352C4.23604 190.217 4.13596 187.615 4.06925 185.546C4.00253 183.411 3.96917 182.144 3.96917 181.743C4.1026 180.609 4.20268 179.708 4.2694 179.041C4.40284 178.307 4.73643 177.807 5.27017 177.54C5.67048 177.34 5.77056 177.073 5.5704 176.74C5.43697 176.406 5.40361 175.972 5.47032 175.439C5.60376 174.905 6.27094 174.338 7.47187 173.737C8.40592 173.27 9.87372 172.603 11.8753 171.736C13.9435 170.802 16.4121 170.068 19.281 169.534C22.1498 169 25.2189 169.067 28.4881 169.734C31.7572 170.335 35.0598 171.902 38.3957 174.438C40.6641 176.172 42.0318 177.974 42.4988 179.842C43.0326 181.643 43.0326 183.411 42.4988 185.146C41.9651 186.814 41.1978 188.348 40.1971 189.75C39.1963 191.084 38.2622 192.151 37.3949 192.952C36.5943 193.753 36.194 194.153 36.194 194.153C36.194 194.153 36.661 194.32 37.5951 194.653C38.5291 194.987 39.6633 195.521 40.9977 196.255C42.3988 196.988 43.7998 197.989 45.2009 199.257C46.602 200.458 47.7696 201.959 48.7036 203.76C49.7044 205.562 50.2381 207.663 50.3049 210.065C50.4383 214.135 49.1707 217.471 46.5019 220.073C43.8999 222.675 40.2638 224.643 35.5935 225.977C30.99 227.245 25.6859 227.879 19.6813 227.879C16.2119 227.879 13.5432 227.612 11.6751 227.078C9.807 226.545 8.47264 225.911 7.67202 225.177C6.8714 224.443 6.40438 223.809 6.27094 223.275C6.13751 222.742 6.07079 222.475 6.07079 222.475ZM19.381 179.342C19.381 179.342 19.381 179.875 19.381 180.943C19.4478 181.944 19.4811 183.144 19.4811 184.546C19.5478 185.947 19.6146 187.248 19.6813 188.449C19.8147 189.583 19.9481 190.283 20.0816 190.55C20.215 190.817 20.682 190.75 21.4827 190.35C22.2833 189.95 23.1172 189.349 23.9846 188.549C24.9186 187.681 25.6525 186.714 26.1863 185.646C26.7867 184.512 26.9869 183.411 26.7867 182.344C26.3197 180.209 25.3523 178.975 23.8845 178.641C22.4167 178.307 20.9156 178.541 19.381 179.342ZM21.5827 202.559L22.2833 219.172C22.2833 219.172 22.7503 219.172 23.6844 219.172C24.6184 219.172 25.7526 219.072 27.087 218.872C28.4213 218.672 29.7223 218.238 30.99 217.571C32.3243 216.904 33.3585 215.936 34.0924 214.669C34.893 213.334 35.1599 211.533 34.893 209.265C34.6261 206.996 33.9923 205.328 32.9915 204.261C32.0575 203.127 30.9233 202.393 29.5889 202.059C28.3213 201.725 27.0536 201.625 25.786 201.759C24.585 201.826 23.5843 201.992 22.7837 202.259C21.983 202.459 21.5827 202.559 21.5827 202.559ZM93.0213 214.969C93.0213 214.969 92.9213 215.403 92.7211 216.27C92.521 217.137 92.0873 218.205 91.4201 219.472C90.7529 220.74 89.7188 222.041 88.3177 223.375C86.9834 224.643 85.1486 225.711 82.8135 226.578C80.4784 227.445 77.5428 227.879 74.0067 227.879C69.7367 227.879 66.234 227.212 63.4986 225.877C60.8299 224.543 58.7283 222.742 57.1938 220.473C55.6592 218.138 54.5584 215.569 53.8912 212.767C53.224 209.898 52.8237 206.929 52.6903 203.86C52.6236 200.791 52.6569 197.822 52.7904 194.954C52.9238 192.018 53.0239 189.383 53.0906 187.047C53.1573 183.511 53.7911 180.676 54.9921 178.541C56.2597 176.339 57.7942 174.671 59.5956 173.537C61.4637 172.336 63.3985 171.502 65.4001 171.035C67.4016 170.568 69.203 170.301 70.8042 170.235C74.0734 170.034 77.376 170.601 80.7119 171.936C84.0478 173.27 86.7498 175.739 88.8181 179.342C89.8856 181.143 90.1858 182.577 89.7188 183.645C89.3185 184.646 88.5512 185.38 87.417 185.847C86.3495 186.314 85.2487 186.614 84.1145 186.747C82.9803 186.881 82.2464 186.947 81.9128 186.947C79.7778 186.947 78.1432 186.647 77.009 186.047C75.9415 185.446 75.1743 184.746 74.7072 183.945C74.3069 183.078 74.1068 182.31 74.1068 181.643C74.1068 181.11 73.94 180.576 73.6064 180.042C73.3395 179.442 72.9726 179.041 72.5055 178.841C72.1052 178.641 71.6716 178.874 71.2045 179.542C70.8042 180.209 70.4706 181.51 70.2038 183.445C70.0036 184.979 69.8702 187.014 69.8035 189.549C69.8035 192.018 69.8368 194.653 69.9035 197.455C69.9703 200.191 70.037 202.793 70.1037 205.261C70.2371 207.73 70.3372 209.765 70.4039 211.366C70.5374 212.901 70.6041 213.668 70.6041 213.668C70.6041 213.668 70.6708 214.168 70.8042 215.169C71.0044 216.17 71.3713 217.171 71.9051 218.171C72.5055 219.172 73.3729 219.706 74.5071 219.773C75.3744 219.839 76.0416 219.573 76.5086 218.972C77.0424 218.305 77.4093 217.571 77.6095 216.77C77.8763 215.903 78.0431 215.169 78.1099 214.569C78.1766 213.901 78.2099 213.568 78.2099 213.568C78.2099 213.568 78.1766 213.301 78.1099 212.767C78.1099 212.234 78.2767 211.633 78.6102 210.966C78.9438 210.232 79.6444 209.632 80.7119 209.164C81.7794 208.631 83.4139 208.397 85.6156 208.464C87.8173 208.531 89.4519 208.898 90.5194 209.565C91.5869 210.165 92.2874 210.899 92.621 211.766C92.9546 212.567 93.0881 213.301 93.0213 213.968C93.0213 214.635 93.0213 214.969 93.0213 214.969ZM109.665 180.342C108.798 180.476 107.564 180.576 105.963 180.643C104.361 180.643 102.727 180.542 101.059 180.342C99.3908 180.142 97.9564 179.775 96.7555 179.241C95.5545 178.641 94.8874 177.774 94.7539 176.639C94.6872 175.505 95.0208 174.605 95.7547 173.937C96.5553 173.27 97.4894 172.77 98.5569 172.436C99.6243 172.036 100.558 171.802 101.359 171.736C102.226 171.602 102.66 171.536 102.66 171.536L130.682 168.934C130.682 168.934 131.149 168.934 132.083 168.934C133.017 168.867 134.084 168.9 135.285 169.034C136.553 169.167 137.687 169.501 138.688 170.034C139.689 170.501 140.222 171.269 140.289 172.336C140.422 173.404 140.089 174.304 139.288 175.038C138.554 175.705 137.654 176.272 136.586 176.74C135.519 177.14 134.585 177.44 133.784 177.64C132.983 177.774 132.583 177.84 132.583 177.84L126.178 178.841C126.445 180.509 126.745 182.878 127.079 185.947C127.412 188.949 127.746 192.285 128.08 195.954C128.413 199.624 128.713 203.227 128.98 206.763C129.247 210.299 129.447 213.468 129.581 216.27C129.781 219.072 129.881 221.074 129.881 222.275C129.881 223.809 129.447 224.977 128.58 225.777C127.779 226.511 126.812 227.045 125.678 227.379C124.61 227.645 123.643 227.812 122.776 227.879C121.975 227.879 121.575 227.879 121.575 227.879C121.575 227.879 121.141 227.879 120.274 227.879C119.406 227.812 118.405 227.545 117.271 227.078C116.204 226.611 115.236 225.744 114.369 224.476C113.568 223.209 113.168 221.307 113.168 218.772C113.168 216.503 113.035 213.735 112.768 210.465C112.568 207.196 112.301 203.827 111.967 200.358C111.634 196.822 111.267 193.552 110.866 190.55C110.533 187.548 110.233 185.113 109.966 183.245C109.765 181.31 109.665 180.342 109.665 180.342ZM154.516 227.879C151.981 227.879 150.146 227.512 149.012 226.778C147.878 225.977 147.177 225.21 146.911 224.476C146.644 223.742 146.51 223.375 146.51 223.375C146.51 223.375 146.477 222.575 146.41 220.974C146.41 219.306 146.377 217.137 146.31 214.469C146.31 211.8 146.277 208.864 146.21 205.662C146.143 202.459 146.077 199.257 146.01 196.054C146.01 192.852 145.976 189.916 145.91 187.248C145.843 184.579 145.776 182.444 145.71 180.843C145.71 179.175 145.71 178.341 145.71 178.341C145.643 178.341 145.276 178.007 144.609 177.34C144.008 176.673 143.675 175.972 143.608 175.238C143.608 174.705 144.242 173.937 145.509 172.937C146.777 171.936 148.912 171.102 151.914 170.435C154.983 169.701 159.187 169.567 164.524 170.034C169.328 170.435 173.097 171.235 175.833 172.436C178.635 173.57 180.67 174.805 181.937 176.139C183.205 177.407 184.006 178.541 184.339 179.542C184.673 180.476 184.84 180.943 184.84 180.943C184.84 180.943 184.873 181.043 184.94 181.243C185.073 181.443 185.173 182.077 185.24 183.144C185.373 184.145 185.474 185.813 185.54 188.148C185.607 190.483 185.607 193.753 185.54 197.956C185.474 201.358 184.673 204.061 183.138 206.062C181.671 208.064 179.836 209.565 177.634 210.566C175.432 211.5 173.231 212.133 171.029 212.467C168.894 212.734 167.093 212.867 165.625 212.867C164.157 212.801 163.423 212.767 163.423 212.767C163.423 212.767 163.423 213.501 163.423 214.969C163.49 216.37 163.49 218.739 163.423 222.074C163.423 223.742 162.956 225.01 162.022 225.877C161.155 226.678 160.121 227.212 158.92 227.479C157.786 227.745 156.751 227.879 155.817 227.879C154.95 227.879 154.516 227.879 154.516 227.879ZM162.422 179.342L163.323 204.161C163.323 204.161 163.757 204.127 164.624 204.061C165.491 203.927 166.492 203.594 167.626 203.06C168.761 202.526 169.728 201.625 170.529 200.358C171.396 199.023 171.763 197.155 171.63 194.753C171.496 191.551 171.363 189.149 171.229 187.548C171.096 185.947 170.996 184.912 170.929 184.445C170.929 183.912 170.929 183.645 170.929 183.645C170.929 183.645 170.862 183.378 170.729 182.844C170.662 182.244 170.395 181.61 169.928 180.943C169.461 180.276 168.627 179.775 167.426 179.442C166.292 179.041 164.624 179.008 162.422 179.342ZM188.937 177.14C188.937 177.14 188.87 176.873 188.736 176.339C188.603 175.739 188.636 175.038 188.837 174.238C189.103 173.437 189.704 172.703 190.638 172.036C191.639 171.369 193.207 170.935 195.342 170.735C197.477 170.535 199.878 170.368 202.547 170.235C205.283 170.101 207.885 169.968 210.353 169.834C212.888 169.701 214.957 169.601 216.558 169.534C218.159 169.467 218.96 169.434 218.96 169.434C218.96 169.434 219.393 169.467 220.261 169.534C221.195 169.534 222.262 169.667 223.463 169.934C224.731 170.134 225.865 170.568 226.866 171.235C227.867 171.836 228.467 172.736 228.667 173.937C228.867 175.138 228.634 176.072 227.967 176.74C227.299 177.407 226.499 177.907 225.565 178.241C224.631 178.508 223.797 178.674 223.063 178.741C222.329 178.808 221.962 178.841 221.962 178.841L205.95 179.742C205.95 179.742 206.05 180.175 206.25 181.043C206.45 181.91 206.65 182.911 206.85 184.045C207.117 185.113 207.284 186.047 207.351 186.847C207.418 187.581 207.484 188.549 207.551 189.75C207.618 190.884 207.684 191.918 207.751 192.852C207.818 193.719 207.851 194.153 207.851 194.153H215.257C215.257 194.153 215.624 194.186 216.358 194.253C217.092 194.253 217.926 194.386 218.86 194.653C219.86 194.853 220.728 195.187 221.462 195.654C222.196 196.121 222.596 196.822 222.663 197.756C222.729 198.957 222.262 199.857 221.262 200.458C220.327 201.058 219.327 201.459 218.259 201.659C217.258 201.792 216.625 201.892 216.358 201.959C216.158 201.959 215.624 201.992 214.757 202.059C213.889 202.059 212.922 202.059 211.854 202.059C210.854 202.059 209.953 202.059 209.152 202.059C208.352 202.059 207.951 202.059 207.951 202.059C207.951 202.059 207.951 202.559 207.951 203.56C208.018 204.494 208.085 205.595 208.151 206.863C208.218 208.13 208.218 209.231 208.151 210.165C208.151 211.033 208.118 212.1 208.051 213.368C207.985 214.569 207.918 215.636 207.851 216.57C207.784 217.438 207.751 217.871 207.751 217.871L221.262 217.371C221.262 217.371 221.695 217.371 222.563 217.371C223.43 217.304 224.464 217.371 225.665 217.571C226.866 217.771 227.933 218.171 228.867 218.772C229.801 219.372 230.302 220.273 230.369 221.474C230.502 222.675 230.168 223.642 229.368 224.376C228.567 225.11 227.633 225.644 226.566 225.977C225.498 226.311 224.531 226.545 223.663 226.678C222.863 226.745 222.462 226.778 222.462 226.778L200.846 227.879C200.846 227.879 200.312 227.879 199.245 227.879C198.244 227.946 197.076 227.879 195.742 227.679C194.407 227.412 193.24 226.911 192.239 226.178C191.238 225.377 190.771 224.176 190.838 222.575C190.972 220.44 191.105 217.104 191.238 212.567C191.372 207.964 191.305 202.593 191.038 196.455C190.771 190.317 190.071 183.878 188.937 177.14ZM293.573 173.837C293.507 173.837 293.607 173.47 293.874 172.736C294.207 171.936 294.941 171.169 296.075 170.435C297.21 169.701 299.078 169.3 301.68 169.234C304.015 169.167 305.783 169.467 306.984 170.134C308.185 170.735 308.985 171.335 309.386 171.936C309.853 172.536 310.086 172.837 310.086 172.837C310.086 172.837 310.453 173.704 311.187 175.439C311.921 177.173 312.922 179.475 314.189 182.344C315.457 185.146 316.858 188.282 318.393 191.751C319.927 195.22 321.462 198.756 322.996 202.359C324.597 205.895 326.065 209.231 327.4 212.367C328.801 215.436 329.968 218.038 330.902 220.173C331.836 222.241 332.437 223.542 332.704 224.076C333.304 225.344 333.638 226.244 333.704 226.778C333.771 227.312 333.738 227.679 333.604 227.879C333.538 228.012 333.504 228.112 333.504 228.179C333.037 229.113 332.103 229.914 330.702 230.581C329.368 231.315 327.733 231.715 325.798 231.782C323.13 231.849 321.195 231.548 319.994 230.881C318.793 230.281 317.992 229.647 317.592 228.98C317.258 228.379 317.125 228.112 317.192 228.179C317.192 228.179 316.825 227.412 316.091 225.877C315.424 224.343 314.623 222.508 313.689 220.373C312.755 218.171 311.888 216.17 311.087 214.369C311.087 214.369 310.62 214.369 309.686 214.369C308.819 214.369 307.784 214.369 306.583 214.369C305.383 214.369 304.315 214.369 303.381 214.369C302.514 214.369 302.08 214.369 302.08 214.369C301.813 215.303 301.546 216.47 301.279 217.871C301.013 219.206 300.779 220.406 300.579 221.474C300.379 222.541 300.279 223.075 300.279 223.075C300.279 223.075 300.112 223.476 299.778 224.276C299.511 225.077 298.744 225.877 297.476 226.678C296.209 227.479 294.107 227.879 291.172 227.879C288.97 227.879 287.302 227.645 286.168 227.178C285.1 226.645 284.366 226.044 283.966 225.377C283.632 224.71 283.466 224.143 283.466 223.676C283.466 223.142 283.466 222.875 283.466 222.875C283.599 222.208 283.866 220.84 284.266 218.772C284.733 216.637 285.267 214.102 285.868 211.166C286.535 208.164 287.202 204.995 287.869 201.659C288.603 198.323 289.304 195.02 289.971 191.751C290.638 188.482 291.238 185.513 291.772 182.844C292.306 180.109 292.739 177.94 293.073 176.339C293.407 174.671 293.573 173.837 293.573 173.837ZM304.082 189.649C304.015 189.916 303.948 190.45 303.881 191.251L303.481 194.053C303.348 195.587 303.181 197.222 302.981 198.957C302.781 200.691 302.58 202.326 302.38 203.86C302.247 204.661 302.147 205.161 302.08 205.362H303.381C304.182 205.362 305.049 205.328 305.983 205.261C306.917 205.195 307.751 205.161 308.485 205.161C308.218 204.628 307.985 203.96 307.784 203.16C307.651 202.293 307.484 201.492 307.284 200.758C306.884 199.224 306.417 197.622 305.883 195.954C305.416 194.286 304.982 192.718 304.582 191.251C304.382 190.45 304.215 189.916 304.082 189.649ZM336.017 177.14C336.017 177.14 335.95 176.873 335.817 176.339C335.683 175.739 335.717 175.038 335.917 174.238C336.184 173.437 336.784 172.703 337.718 172.036C338.719 171.369 340.287 170.935 342.422 170.735C344.557 170.535 346.959 170.368 349.628 170.235C352.363 170.101 354.965 169.968 357.434 169.834C359.969 169.701 362.037 169.601 363.638 169.534C365.24 169.467 366.04 169.434 366.04 169.434C366.04 169.434 366.474 169.467 367.341 169.534C368.275 169.534 369.343 169.667 370.544 169.934C371.811 170.134 372.946 170.568 373.946 171.235C374.947 171.836 375.548 172.736 375.748 173.937C375.948 175.138 375.714 176.072 375.047 176.74C374.38 177.407 373.579 177.907 372.645 178.241C371.711 178.508 370.877 178.674 370.143 178.741C369.409 178.808 369.043 178.841 369.043 178.841L353.03 179.742C353.03 179.742 353.13 180.175 353.33 181.043C353.531 181.91 353.731 182.911 353.931 184.045C354.198 185.113 354.365 186.047 354.431 186.847C354.498 187.581 354.565 188.549 354.631 189.75C354.698 190.884 354.765 191.918 354.832 192.852C354.898 193.719 354.932 194.153 354.932 194.153H362.337C362.337 194.153 362.704 194.186 363.438 194.253C364.172 194.253 365.006 194.386 365.94 194.653C366.941 194.853 367.808 195.187 368.542 195.654C369.276 196.121 369.676 196.822 369.743 197.756C369.81 198.957 369.343 199.857 368.342 200.458C367.408 201.058 366.407 201.459 365.34 201.659C364.339 201.792 363.705 201.892 363.438 201.959C363.238 201.959 362.704 201.992 361.837 202.059C360.97 202.059 360.002 202.059 358.935 202.059C357.934 202.059 357.033 202.059 356.233 202.059C355.432 202.059 355.032 202.059 355.032 202.059C355.032 202.059 355.032 202.559 355.032 203.56C355.098 204.494 355.165 205.595 355.232 206.863C355.299 208.13 355.299 209.231 355.232 210.165C355.232 211.033 355.199 212.1 355.132 213.368C355.065 214.569 354.998 215.636 354.932 216.57C354.865 217.438 354.832 217.871 354.832 217.871L368.342 217.371C368.342 217.371 368.776 217.371 369.643 217.371C370.51 217.304 371.544 217.371 372.745 217.571C373.946 217.771 375.014 218.171 375.948 218.772C376.882 219.372 377.382 220.273 377.449 221.474C377.582 222.675 377.249 223.642 376.448 224.376C375.648 225.11 374.714 225.644 373.646 225.977C372.579 226.311 371.611 226.545 370.744 226.678C369.943 226.745 369.543 226.778 369.543 226.778L347.926 227.879C347.926 227.879 347.392 227.879 346.325 227.879C345.324 227.946 344.157 227.879 342.822 227.679C341.488 227.412 340.32 226.911 339.32 226.178C338.319 225.377 337.852 224.176 337.919 222.575C338.052 220.44 338.185 217.104 338.319 212.567C338.452 207.964 338.386 202.593 338.119 196.455C337.852 190.317 337.151 183.878 336.017 177.14ZM394.665 180.342C393.798 180.476 392.564 180.576 390.963 180.643C389.361 180.643 387.727 180.542 386.059 180.342C384.391 180.142 382.956 179.775 381.755 179.241C380.554 178.641 379.887 177.774 379.754 176.639C379.687 175.505 380.021 174.605 380.755 173.937C381.555 173.27 382.489 172.77 383.557 172.436C384.624 172.036 385.558 171.802 386.359 171.736C387.226 171.602 387.66 171.536 387.66 171.536L415.682 168.934C415.682 168.934 416.149 168.934 417.083 168.934C418.017 168.867 419.084 168.9 420.285 169.034C421.553 169.167 422.687 169.501 423.688 170.034C424.688 170.501 425.222 171.269 425.289 172.336C425.422 173.404 425.089 174.304 424.288 175.038C423.554 175.705 422.654 176.272 421.586 176.74C420.519 177.14 419.585 177.44 418.784 177.64C417.983 177.774 417.583 177.84 417.583 177.84L411.178 178.841C411.445 180.509 411.745 182.878 412.079 185.947C412.412 188.949 412.746 192.285 413.08 195.954C413.413 199.624 413.713 203.227 413.98 206.763C414.247 210.299 414.447 213.468 414.581 216.27C414.781 219.072 414.881 221.074 414.881 222.275C414.881 223.809 414.447 224.977 413.58 225.777C412.779 226.511 411.812 227.045 410.678 227.379C409.61 227.645 408.643 227.812 407.775 227.879C406.975 227.879 406.575 227.879 406.575 227.879C406.575 227.879 406.141 227.879 405.274 227.879C404.406 227.812 403.405 227.545 402.271 227.078C401.204 226.611 400.236 225.744 399.369 224.476C398.568 223.209 398.168 221.307 398.168 218.772C398.168 216.503 398.035 213.735 397.768 210.465C397.568 207.196 397.301 203.827 396.967 200.358C396.634 196.822 396.267 193.552 395.866 190.55C395.533 187.548 395.232 185.113 394.966 183.245C394.765 181.31 394.665 180.342 394.665 180.342ZM469.74 214.969C469.74 214.969 469.64 215.403 469.439 216.27C469.239 217.137 468.806 218.205 468.138 219.472C467.471 220.74 466.437 222.041 465.036 223.375C463.702 224.643 461.867 225.711 459.532 226.578C457.197 227.445 454.261 227.879 450.725 227.879C446.455 227.879 442.952 227.212 440.217 225.877C437.548 224.543 435.447 222.742 433.912 220.473C432.377 218.138 431.277 215.569 430.609 212.767C429.942 209.898 429.542 206.929 429.409 203.86C429.342 200.791 429.375 197.822 429.509 194.954C429.642 192.018 429.742 189.383 429.809 187.047C429.876 183.511 430.509 180.676 431.71 178.541C432.978 176.339 434.512 174.671 436.314 173.537C438.182 172.336 440.117 171.502 442.118 171.035C444.12 170.568 445.921 170.301 447.522 170.235C450.792 170.034 454.094 170.601 457.43 171.936C460.766 173.27 463.468 175.739 465.536 179.342C466.604 181.143 466.904 182.577 466.437 183.645C466.037 184.646 465.269 185.38 464.135 185.847C463.068 186.314 461.967 186.614 460.833 186.747C459.699 186.881 458.965 186.947 458.631 186.947C456.496 186.947 454.861 186.647 453.727 186.047C452.66 185.446 451.893 184.746 451.425 183.945C451.025 183.078 450.825 182.31 450.825 181.643C450.825 181.11 450.658 180.576 450.325 180.042C450.058 179.442 449.691 179.041 449.224 178.841C448.823 178.641 448.39 178.874 447.923 179.542C447.522 180.209 447.189 181.51 446.922 183.445C446.722 184.979 446.588 187.014 446.522 189.549C446.522 192.018 446.555 194.653 446.622 197.455C446.689 200.191 446.755 202.793 446.822 205.261C446.955 207.73 447.055 209.765 447.122 211.366C447.256 212.901 447.322 213.668 447.322 213.668C447.322 213.668 447.389 214.168 447.522 215.169C447.723 216.17 448.09 217.171 448.623 218.171C449.224 219.172 450.091 219.706 451.225 219.773C452.093 219.839 452.76 219.573 453.227 218.972C453.761 218.305 454.128 217.571 454.328 216.77C454.595 215.903 454.761 215.169 454.828 214.569C454.895 213.901 454.928 213.568 454.928 213.568C454.928 213.568 454.895 213.301 454.828 212.767C454.828 212.234 454.995 211.633 455.328 210.966C455.662 210.232 456.363 209.632 457.43 209.164C458.498 208.631 460.132 208.397 462.334 208.464C464.536 208.531 466.17 208.898 467.238 209.565C468.305 210.165 469.006 210.899 469.339 211.766C469.673 212.567 469.806 213.301 469.74 213.968C469.74 214.635 469.74 214.969 469.74 214.969ZM612.787 214.969C612.787 214.969 612.687 215.403 612.487 216.27C612.287 217.137 611.853 218.205 611.186 219.472C610.519 220.74 609.485 222.041 608.084 223.375C606.749 224.643 604.915 225.711 602.579 226.578C600.244 227.445 597.309 227.879 593.773 227.879C589.503 227.879 586 227.212 583.265 225.877C580.596 224.543 578.494 222.742 576.96 220.473C575.425 218.138 574.324 215.569 573.657 212.767C572.99 209.898 572.59 206.929 572.456 203.86C572.39 200.791 572.423 197.822 572.556 194.954C572.69 192.018 572.79 189.383 572.857 187.047C572.923 183.511 573.557 180.676 574.758 178.541C576.026 176.339 577.56 174.671 579.362 173.537C581.23 172.336 583.164 171.502 585.166 171.035C587.168 170.568 588.969 170.301 590.57 170.235C593.839 170.034 597.142 170.601 600.478 171.936C603.814 173.27 606.516 175.739 608.584 179.342C609.652 181.143 609.952 182.577 609.485 183.645C609.084 184.646 608.317 185.38 607.183 185.847C606.115 186.314 605.015 186.614 603.88 186.747C602.746 186.881 602.012 186.947 601.679 186.947C599.544 186.947 597.909 186.647 596.775 186.047C595.707 185.446 594.94 184.746 594.473 183.945C594.073 183.078 593.873 182.31 593.873 181.643C593.873 181.11 593.706 180.576 593.372 180.042C593.105 179.442 592.739 179.041 592.271 178.841C591.871 178.641 591.438 178.874 590.97 179.542C590.57 180.209 590.237 181.51 589.97 183.445C589.77 184.979 589.636 187.014 589.569 189.549C589.569 192.018 589.603 194.653 589.669 197.455C589.736 200.191 589.803 202.793 589.87 205.261C590.003 207.73 590.103 209.765 590.17 211.366C590.303 212.901 590.37 213.668 590.37 213.668C590.37 213.668 590.437 214.168 590.57 215.169C590.77 216.17 591.137 217.171 591.671 218.171C592.271 219.172 593.139 219.706 594.273 219.773C595.14 219.839 595.808 219.573 596.275 218.972C596.808 218.305 597.175 217.571 597.375 216.77C597.642 215.903 597.809 215.169 597.876 214.569C597.943 213.901 597.976 213.568 597.976 213.568C597.976 213.568 597.943 213.301 597.876 212.767C597.876 212.234 598.043 211.633 598.376 210.966C598.71 210.232 599.41 209.632 600.478 209.164C601.545 208.631 603.18 208.397 605.382 208.464C607.583 208.531 609.218 208.898 610.285 209.565C611.353 210.165 612.053 210.899 612.387 211.766C612.721 212.567 612.854 213.301 612.787 213.968C612.787 214.635 612.787 214.969 612.787 214.969ZM725.612 227.879C723.076 227.879 721.242 227.512 720.107 226.778C718.973 225.977 718.273 225.21 718.006 224.476C717.739 223.742 717.605 223.375 717.605 223.375C717.605 223.375 717.572 222.575 717.505 220.974C717.505 219.306 717.472 217.137 717.405 214.469C717.405 211.8 717.372 208.864 717.305 205.662C717.239 202.459 717.172 199.257 717.105 196.054C717.105 192.852 717.072 189.916 717.005 187.248C716.938 184.579 716.872 182.444 716.805 180.843C716.805 179.175 716.805 178.341 716.805 178.341C716.738 178.341 716.371 178.007 715.704 177.34C715.104 176.673 714.77 175.972 714.703 175.238C714.703 174.705 715.337 173.937 716.605 172.937C717.872 171.936 720.007 171.102 723.01 170.435C726.079 169.701 730.282 169.567 735.619 170.034C740.423 170.435 744.193 171.235 746.928 172.436C749.73 173.57 751.765 174.805 753.033 176.139C754.3 177.407 755.101 178.541 755.435 179.542C755.768 180.476 755.935 180.943 755.935 180.943C755.935 180.943 755.968 181.043 756.035 181.243C756.168 181.443 756.269 182.077 756.335 183.144C756.469 184.145 756.569 185.813 756.636 188.148C756.702 190.483 756.702 193.753 756.636 197.956C756.569 201.358 755.768 204.061 754.234 206.062C752.766 208.064 750.931 209.565 748.729 210.566C746.528 211.5 744.326 212.133 742.124 212.467C739.989 212.734 738.188 212.867 736.72 212.867C735.252 212.801 734.518 212.767 734.518 212.767C734.518 212.767 734.518 213.501 734.518 214.969C734.585 216.37 734.585 218.739 734.518 222.074C734.518 223.742 734.051 225.01 733.117 225.877C732.25 226.678 731.216 227.212 730.015 227.479C728.881 227.745 727.847 227.879 726.913 227.879C726.045 227.879 725.612 227.879 725.612 227.879ZM733.518 179.342L734.418 204.161C734.418 204.161 734.852 204.127 735.719 204.061C736.587 203.927 737.588 203.594 738.722 203.06C739.856 202.526 740.823 201.625 741.624 200.358C742.491 199.023 742.858 197.155 742.725 194.753C742.591 191.551 742.458 189.149 742.324 187.548C742.191 185.947 742.091 184.912 742.024 184.445C742.024 183.912 742.024 183.645 742.024 183.645C742.024 183.645 741.958 183.378 741.824 182.844C741.757 182.244 741.491 181.61 741.023 180.943C740.556 180.276 739.722 179.775 738.522 179.442C737.387 179.041 735.719 179.008 733.518 179.342ZM760.332 198.756C760.332 193.419 761.266 188.549 763.134 184.145C765.002 179.675 767.538 176.139 770.74 173.537C773.943 170.868 777.479 169.534 781.348 169.534C784.217 169.534 786.953 170.301 789.555 171.836C792.157 173.304 794.458 175.405 796.46 178.141C798.461 180.809 800.029 183.912 801.164 187.448C802.298 190.984 802.865 194.753 802.865 198.756C802.865 202.76 802.298 206.529 801.164 210.065C800.029 213.601 798.461 216.737 796.46 219.472C794.458 222.141 792.157 224.243 789.555 225.777C786.953 227.245 784.217 227.979 781.348 227.979C777.479 227.979 773.943 226.678 770.74 224.076C767.538 221.407 765.002 217.871 763.134 213.468C761.266 209.064 760.332 204.161 760.332 198.756ZM775.644 198.356C775.644 202.226 775.911 205.795 776.445 209.064C776.978 212.267 777.712 214.836 778.646 216.77C779.58 218.638 780.614 219.573 781.749 219.573C782.883 219.573 783.917 218.638 784.851 216.77C785.785 214.836 786.519 212.267 787.053 209.064C787.586 205.795 787.853 202.226 787.853 198.356C787.853 194.42 787.586 190.85 787.053 187.648C786.519 184.445 785.785 181.877 784.851 179.942C783.917 178.007 782.883 177.04 781.749 177.04C780.614 177.04 779.58 178.007 778.646 179.942C777.712 181.877 776.978 184.445 776.445 187.648C775.911 190.85 775.644 194.42 775.644 198.356ZM866.828 227.879C864.293 227.879 862.458 227.512 861.324 226.778C860.19 225.977 859.489 225.21 859.222 224.476C858.956 223.742 858.822 223.375 858.822 223.375C858.822 223.375 858.789 222.575 858.722 220.974C858.722 219.306 858.689 217.137 858.622 214.469C858.622 211.8 858.589 208.864 858.522 205.662C858.455 202.459 858.388 199.257 858.322 196.054C858.322 192.852 858.288 189.916 858.222 187.248C858.155 184.579 858.088 182.444 858.021 180.843C858.021 179.175 858.021 178.341 858.021 178.341C857.955 178.341 857.588 178.007 856.921 177.34C856.32 176.673 855.987 175.972 855.92 175.238C855.92 174.705 856.554 173.937 857.821 172.937C859.089 171.936 861.224 171.102 864.226 170.435C867.295 169.701 871.499 169.567 876.836 170.034C881.64 170.435 885.409 171.235 888.145 172.436C890.947 173.57 892.982 174.805 894.249 176.139C895.517 177.407 896.318 178.541 896.651 179.542C896.985 180.476 897.152 180.943 897.152 180.943C897.152 180.943 897.185 181.043 897.252 181.243C897.385 181.443 897.485 182.077 897.552 183.144C897.685 184.145 897.785 185.813 897.852 188.148C897.919 190.483 897.919 193.753 897.852 197.956C897.785 201.358 896.985 204.061 895.45 206.062C893.982 208.064 892.148 209.565 889.946 210.566C887.744 211.5 885.543 212.133 883.341 212.467C881.206 212.734 879.405 212.867 877.937 212.867C876.469 212.801 875.735 212.767 875.735 212.767C875.735 212.767 875.735 213.501 875.735 214.969C875.802 216.37 875.802 218.739 875.735 222.074C875.735 223.742 875.268 225.01 874.334 225.877C873.467 226.678 872.433 227.212 871.232 227.479C870.097 227.745 869.063 227.879 868.129 227.879C867.262 227.879 866.828 227.879 866.828 227.879ZM874.734 179.342L875.635 204.161C875.635 204.161 876.069 204.127 876.936 204.061C877.803 203.927 878.804 203.594 879.938 203.06C881.073 202.526 882.04 201.625 882.841 200.358C883.708 199.023 884.075 197.155 883.941 194.753C883.808 191.551 883.675 189.149 883.541 187.548C883.408 185.947 883.308 184.912 883.241 184.445C883.241 183.912 883.241 183.645 883.241 183.645C883.241 183.645 883.174 183.378 883.041 182.844C882.974 182.244 882.707 181.61 882.24 180.943C881.773 180.276 880.939 179.775 879.738 179.442C878.604 179.041 876.936 179.008 874.734 179.342ZM901.249 177.14C901.249 177.14 901.182 176.873 901.048 176.339C900.915 175.739 900.948 175.038 901.148 174.238C901.415 173.437 902.016 172.703 902.95 172.036C903.951 171.369 905.518 170.935 907.653 170.735C909.788 170.535 912.19 170.368 914.859 170.235C917.594 170.101 920.196 169.968 922.665 169.834C925.2 169.701 927.269 169.601 928.87 169.534C930.471 169.467 931.272 169.434 931.272 169.434C931.272 169.434 931.705 169.467 932.573 169.534C933.507 169.534 934.574 169.667 935.775 169.934C937.043 170.134 938.177 170.568 939.178 171.235C940.178 171.836 940.779 172.736 940.979 173.937C941.179 175.138 940.946 176.072 940.279 176.74C939.611 177.407 938.811 177.907 937.877 178.241C936.943 178.508 936.109 178.674 935.375 178.741C934.641 178.808 934.274 178.841 934.274 178.841L918.262 179.742C918.262 179.742 918.362 180.175 918.562 181.043C918.762 181.91 918.962 182.911 919.162 184.045C919.429 185.113 919.596 186.047 919.663 186.847C919.729 187.581 919.796 188.549 919.863 189.75C919.93 190.884 919.996 191.918 920.063 192.852C920.13 193.719 920.163 194.153 920.163 194.153H927.569C927.569 194.153 927.936 194.186 928.67 194.253C929.404 194.253 930.238 194.386 931.172 194.653C932.172 194.853 933.04 195.187 933.774 195.654C934.507 196.121 934.908 196.822 934.974 197.756C935.041 198.957 934.574 199.857 933.573 200.458C932.639 201.058 931.639 201.459 930.571 201.659C929.57 201.792 928.937 201.892 928.67 201.959C928.469 201.959 927.936 201.992 927.068 202.059C926.201 202.059 925.234 202.059 924.166 202.059C923.165 202.059 922.265 202.059 921.464 202.059C920.663 202.059 920.263 202.059 920.263 202.059C920.263 202.059 920.263 202.559 920.263 203.56C920.33 204.494 920.397 205.595 920.463 206.863C920.53 208.13 920.53 209.231 920.463 210.165C920.463 211.033 920.43 212.1 920.363 213.368C920.297 214.569 920.23 215.636 920.163 216.57C920.096 217.438 920.063 217.871 920.063 217.871L933.573 217.371C933.573 217.371 934.007 217.371 934.874 217.371C935.742 217.304 936.776 217.371 937.977 217.571C939.178 217.771 940.245 218.171 941.179 218.772C942.113 219.372 942.614 220.273 942.68 221.474C942.814 222.675 942.48 223.642 941.68 224.376C940.879 225.11 939.945 225.644 938.877 225.977C937.81 226.311 936.843 226.545 935.975 226.678C935.175 226.745 934.774 226.778 934.774 226.778L913.158 227.879C913.158 227.879 912.624 227.879 911.556 227.879C910.556 227.946 909.388 227.879 908.054 227.679C906.719 227.412 905.552 226.911 904.551 226.178C903.55 225.377 903.083 224.176 903.15 222.575C903.283 220.44 903.417 217.104 903.55 212.567C903.684 207.964 903.617 202.593 903.35 196.455C903.083 190.317 902.383 183.878 901.249 177.14ZM986.717 214.969C986.717 214.969 986.617 215.403 986.417 216.27C986.217 217.137 985.783 218.205 985.116 219.472C984.449 220.74 983.415 222.041 982.014 223.375C980.679 224.643 978.845 225.711 976.51 226.578C974.174 227.445 971.239 227.879 967.703 227.879C963.433 227.879 959.93 227.212 957.195 225.877C954.526 224.543 952.424 222.742 950.89 220.473C949.355 218.138 948.254 215.569 947.587 212.767C946.92 209.898 946.52 206.929 946.386 203.86C946.32 200.791 946.353 197.822 946.486 194.954C946.62 192.018 946.72 189.383 946.787 187.047C946.853 183.511 947.487 180.676 948.688 178.541C949.956 176.339 951.49 174.671 953.292 173.537C955.16 172.336 957.095 171.502 959.096 171.035C961.098 170.568 962.899 170.301 964.5 170.235C967.769 170.034 971.072 170.601 974.408 171.936C977.744 173.27 980.446 175.739 982.514 179.342C983.582 181.143 983.882 182.577 983.415 183.645C983.015 184.646 982.247 185.38 981.113 185.847C980.046 186.314 978.945 186.614 977.811 186.747C976.676 186.881 975.942 186.947 975.609 186.947C973.474 186.947 971.839 186.647 970.705 186.047C969.638 185.446 968.87 184.746 968.403 183.945C968.003 183.078 967.803 182.31 967.803 181.643C967.803 181.11 967.636 180.576 967.302 180.042C967.036 179.442 966.669 179.041 966.202 178.841C965.801 178.641 965.368 178.874 964.901 179.542C964.5 180.209 964.167 181.51 963.9 183.445C963.7 184.979 963.566 187.014 963.5 189.549C963.5 192.018 963.533 194.653 963.6 197.455C963.666 200.191 963.733 202.793 963.8 205.261C963.933 207.73 964.033 209.765 964.1 211.366C964.233 212.901 964.3 213.668 964.3 213.668C964.3 213.668 964.367 214.168 964.5 215.169C964.7 216.17 965.067 217.171 965.601 218.171C966.202 219.172 967.069 219.706 968.203 219.773C969.07 219.839 969.738 219.573 970.205 218.972C970.738 218.305 971.105 217.571 971.306 216.77C971.572 215.903 971.739 215.169 971.806 214.569C971.873 213.901 971.906 213.568 971.906 213.568C971.906 213.568 971.873 213.301 971.806 212.767C971.806 212.234 971.973 211.633 972.306 210.966C972.64 210.232 973.34 209.632 974.408 209.164C975.475 208.631 977.11 208.397 979.312 208.464C981.513 208.531 983.148 208.898 984.215 209.565C985.283 210.165 985.984 210.899 986.317 211.766C986.651 212.567 986.784 213.301 986.717 213.968C986.717 214.635 986.717 214.969 986.717 214.969ZM1030.18 214.969C1030.18 214.969 1030.08 215.403 1029.88 216.27C1029.68 217.137 1029.25 218.205 1028.58 219.472C1027.91 220.74 1026.88 222.041 1025.48 223.375C1024.14 224.643 1022.31 225.711 1019.97 226.578C1017.64 227.445 1014.7 227.879 1011.17 227.879C1006.9 227.879 1003.39 227.212 1000.66 225.877C997.991 224.543 995.889 222.742 994.355 220.473C992.82 218.138 991.719 215.569 991.052 212.767C990.385 209.898 989.985 206.929 989.851 203.86C989.784 200.791 989.818 197.822 989.951 194.954C990.085 192.018 990.185 189.383 990.251 187.047C990.318 183.511 990.952 180.676 992.153 178.541C993.42 176.339 994.955 174.671 996.756 173.537C998.624 172.336 1000.56 171.502 1002.56 171.035C1004.56 170.568 1006.36 170.301 1007.97 170.235C1011.23 170.034 1014.54 170.601 1017.87 171.936C1021.21 173.27 1023.91 175.739 1025.98 179.342C1027.05 181.143 1027.35 182.577 1026.88 183.645C1026.48 184.646 1025.71 185.38 1024.58 185.847C1023.51 186.314 1022.41 186.614 1021.28 186.747C1020.14 186.881 1019.41 186.947 1019.07 186.947C1016.94 186.947 1015.3 186.647 1014.17 186.047C1013.1 185.446 1012.34 184.746 1011.87 183.945C1011.47 183.078 1011.27 182.31 1011.27 181.643C1011.27 181.11 1011.1 180.576 1010.77 180.042C1010.5 179.442 1010.13 179.041 1009.67 178.841C1009.27 178.641 1008.83 178.874 1008.37 179.542C1007.97 180.209 1007.63 181.51 1007.36 183.445C1007.16 184.979 1007.03 187.014 1006.96 189.549C1006.96 192.018 1007 194.653 1007.06 197.455C1007.13 200.191 1007.2 202.793 1007.26 205.261C1007.4 207.73 1007.5 209.765 1007.56 211.366C1007.7 212.901 1007.76 213.668 1007.76 213.668C1007.76 213.668 1007.83 214.168 1007.97 215.169C1008.17 216.17 1008.53 217.171 1009.07 218.171C1009.67 219.172 1010.53 219.706 1011.67 219.773C1012.54 219.839 1013.2 219.573 1013.67 218.972C1014.2 218.305 1014.57 217.571 1014.77 216.77C1015.04 215.903 1015.2 215.169 1015.27 214.569C1015.34 213.901 1015.37 213.568 1015.37 213.568C1015.37 213.568 1015.34 213.301 1015.27 212.767C1015.27 212.234 1015.44 211.633 1015.77 210.966C1016.1 210.232 1016.81 209.632 1017.87 209.164C1018.94 208.631 1020.57 208.397 1022.78 208.464C1024.98 208.531 1026.61 208.898 1027.68 209.565C1028.75 210.165 1029.45 210.899 1029.78 211.766C1030.12 212.567 1030.25 213.301 1030.18 213.968C1030.18 214.635 1030.18 214.969 1030.18 214.969ZM1033.12 198.756C1033.12 193.419 1034.05 188.549 1035.92 184.145C1037.79 179.675 1040.32 176.139 1043.52 173.537C1046.73 170.868 1050.26 169.534 1054.13 169.534C1057 169.534 1059.74 170.301 1062.34 171.836C1064.94 173.304 1067.24 175.405 1069.24 178.141C1071.25 180.809 1072.81 183.912 1073.95 187.448C1075.08 190.984 1075.65 194.753 1075.65 198.756C1075.65 202.76 1075.08 206.529 1073.95 210.065C1072.81 213.601 1071.25 216.737 1069.24 219.472C1067.24 222.141 1064.94 224.243 1062.34 225.777C1059.74 227.245 1057 227.979 1054.13 227.979C1050.26 227.979 1046.73 226.678 1043.52 224.076C1040.32 221.407 1037.79 217.871 1035.92 213.468C1034.05 209.064 1033.12 204.161 1033.12 198.756ZM1048.43 198.356C1048.43 202.226 1048.69 205.795 1049.23 209.064C1049.76 212.267 1050.5 214.836 1051.43 216.77C1052.36 218.638 1053.4 219.573 1054.53 219.573C1055.67 219.573 1056.7 218.638 1057.63 216.77C1058.57 214.836 1059.3 212.267 1059.84 209.064C1060.37 205.795 1060.64 202.226 1060.64 198.356C1060.64 194.42 1060.37 190.85 1059.84 187.648C1059.3 184.445 1058.57 181.877 1057.63 179.942C1056.7 178.007 1055.67 177.04 1054.53 177.04C1053.4 177.04 1052.36 178.007 1051.43 179.942C1050.5 181.877 1049.76 184.445 1049.23 187.648C1048.69 190.85 1048.43 194.42 1048.43 198.356ZM1089.52 227.879C1087.05 227.879 1085.18 227.545 1083.92 226.878C1082.71 226.211 1081.91 225.444 1081.51 224.576C1081.11 223.709 1080.91 222.942 1080.91 222.275C1080.91 221.607 1080.91 221.274 1080.91 221.274L1079.71 177.84C1079.71 177.84 1079.68 177.507 1079.61 176.84C1079.55 176.172 1079.68 175.405 1080.01 174.538C1080.35 173.604 1081.05 172.803 1082.11 172.136C1083.18 171.402 1084.85 171.035 1087.12 171.035C1090.12 170.968 1092.39 171.402 1093.92 172.336C1095.46 173.203 1096.46 174.104 1096.93 175.038C1097.46 175.906 1097.73 176.339 1097.73 176.339L1109.24 197.255C1109.24 197.255 1109.5 196.655 1110.04 195.454C1110.64 194.186 1111.34 192.618 1112.14 190.75C1113 188.882 1113.87 186.981 1114.74 185.046C1115.61 183.111 1116.37 181.443 1117.04 180.042C1117.71 178.574 1118.14 177.64 1118.34 177.24C1118.68 176.573 1119.28 175.672 1120.14 174.538C1121.01 173.337 1122.25 172.236 1123.85 171.235C1125.51 170.235 1127.68 169.701 1130.35 169.634C1132.35 169.567 1133.89 169.801 1134.96 170.335C1136.02 170.802 1136.76 171.369 1137.16 172.036C1137.62 172.703 1137.89 173.304 1137.96 173.837C1138.02 174.371 1138.06 174.638 1138.06 174.638C1138.06 174.638 1138.06 175.505 1138.06 177.24C1138.06 178.908 1138.06 181.143 1138.06 183.945C1138.12 186.747 1138.16 189.816 1138.16 193.152C1138.16 196.488 1138.16 199.857 1138.16 203.26C1138.16 206.596 1138.16 209.665 1138.16 212.467C1138.22 215.269 1138.26 217.538 1138.26 219.272C1138.26 221.007 1138.26 221.908 1138.26 221.974C1138.26 222.041 1138.22 222.375 1138.16 222.975C1138.16 223.576 1137.92 224.276 1137.46 225.077C1136.99 225.811 1136.16 226.478 1134.96 227.078C1133.82 227.612 1132.12 227.879 1129.85 227.879C1127.58 227.879 1125.85 227.645 1124.65 227.178C1123.51 226.645 1122.71 226.078 1122.25 225.477C1121.78 224.81 1121.51 224.243 1121.44 223.776C1121.38 223.309 1121.34 223.075 1121.34 223.075C1121.34 223.075 1121.34 222.508 1121.34 221.374C1121.34 220.173 1121.34 218.705 1121.34 216.971C1121.41 215.169 1121.44 213.401 1121.44 211.666C1121.51 209.865 1121.54 208.364 1121.54 207.163C1121.54 205.962 1121.54 205.362 1121.54 205.362L1122.35 191.051L1117.14 202.159C1117.14 202.159 1116.94 202.526 1116.54 203.26C1116.21 203.994 1115.54 204.728 1114.54 205.462C1113.54 206.196 1112.04 206.596 1110.04 206.663C1108.1 206.729 1106.57 206.462 1105.43 205.862C1104.36 205.195 1103.6 204.561 1103.13 203.96C1102.73 203.293 1102.53 202.96 1102.53 202.96L1096.03 191.051C1096.03 191.051 1096.06 191.851 1096.13 193.452C1096.26 194.987 1096.39 197.022 1096.53 199.557C1096.66 202.026 1096.79 204.661 1096.93 207.463C1097.06 210.199 1097.16 212.801 1097.23 215.269C1097.36 217.671 1097.46 219.606 1097.53 221.074C1097.59 222.875 1097.23 224.276 1096.43 225.277C1095.62 226.211 1094.69 226.878 1093.62 227.278C1092.56 227.612 1091.59 227.812 1090.72 227.879C1089.92 227.879 1089.52 227.879 1089.52 227.879Z" fill="white"/>
<path d="M719.553 65.142C719.486 65.142 719.586 64.775 719.853 64.0411C720.187 63.2405 720.921 62.4733 722.055 61.7394C723.189 61.0055 725.057 60.6051 727.659 60.5384C729.994 60.4717 731.762 60.7719 732.963 61.4391C734.164 62.0396 734.965 62.64 735.365 63.2405C735.832 63.841 736.066 64.1412 736.066 64.1412C736.066 64.1412 736.433 65.0085 737.166 66.7432C737.9 68.4779 738.901 70.7796 740.169 73.6485C741.436 76.4507 742.838 79.5864 744.372 83.0558C745.907 86.5251 747.441 90.0612 748.976 93.6639C750.577 97.2 752.045 100.536 753.379 103.672C754.78 106.741 755.948 109.343 756.882 111.478C757.816 113.546 758.416 114.847 758.683 115.381C759.284 116.648 759.617 117.549 759.684 118.083C759.751 118.616 759.717 118.983 759.584 119.184C759.517 119.317 759.484 119.417 759.484 119.484C759.017 120.418 758.083 121.218 756.682 121.886C755.347 122.62 753.713 123.02 751.778 123.087C749.109 123.153 747.174 122.853 745.973 122.186C744.772 121.585 743.972 120.952 743.571 120.284C743.238 119.684 743.104 119.417 743.171 119.484C743.171 119.484 742.804 118.717 742.07 117.182C741.403 115.648 740.602 113.813 739.668 111.678C738.734 109.476 737.867 107.475 737.066 105.673C737.066 105.673 736.599 105.673 735.665 105.673C734.798 105.673 733.764 105.673 732.563 105.673C731.362 105.673 730.295 105.673 729.36 105.673C728.493 105.673 728.059 105.673 728.059 105.673C727.793 106.607 727.526 107.775 727.259 109.176C726.992 110.51 726.758 111.711 726.558 112.779C726.358 113.846 726.258 114.38 726.258 114.38C726.258 114.38 726.091 114.78 725.758 115.581C725.491 116.381 724.724 117.182 723.456 117.983C722.188 118.783 720.087 119.184 717.151 119.184C714.949 119.184 713.281 118.95 712.147 118.483C711.08 117.949 710.346 117.349 709.946 116.682C709.612 116.014 709.445 115.447 709.445 114.98C709.445 114.447 709.445 114.18 709.445 114.18C709.579 113.513 709.845 112.145 710.246 110.077C710.713 107.942 711.247 105.406 711.847 102.471C712.514 99.4684 713.181 96.2993 713.849 92.9634C714.582 89.6275 715.283 86.325 715.95 83.0558C716.617 79.7866 717.218 76.8176 717.752 74.1489C718.285 71.4135 718.719 69.2451 719.053 67.6439C719.386 65.9759 719.553 65.142 719.553 65.142ZM730.061 80.9541C729.994 81.221 729.928 81.7548 729.861 82.5554L729.461 85.3575C729.327 86.8921 729.16 88.5266 728.96 90.2613C728.76 91.996 728.56 93.6306 728.36 95.1651C728.226 95.9657 728.126 96.4661 728.059 96.6663H729.36C730.161 96.6663 731.028 96.6329 731.962 96.5662C732.897 96.4995 733.731 96.4661 734.464 96.4661C734.198 95.9324 733.964 95.2652 733.764 94.4646C733.63 93.5972 733.464 92.7966 733.263 92.0627C732.863 90.5282 732.396 88.927 731.862 87.259C731.395 85.5911 730.962 84.0232 730.561 82.5554C730.361 81.7548 730.194 81.221 730.061 80.9541Z" fill="white"/>
<path d="M678.677 119.184C676.142 119.184 674.307 118.817 673.173 118.083C672.038 117.282 671.338 116.515 671.071 115.781C670.804 115.047 670.671 114.68 670.671 114.68C670.671 114.68 670.637 113.88 670.571 112.278C670.571 110.61 670.537 108.442 670.471 105.773C670.471 103.105 670.437 100.169 670.37 96.9665C670.304 93.764 670.237 90.5615 670.17 87.3591C670.17 84.1566 670.137 81.221 670.07 78.5523C670.004 75.8836 669.937 73.7486 669.87 72.1474C669.87 70.4794 669.87 69.6454 669.87 69.6454C669.803 69.6454 669.436 69.3119 668.769 68.6447C668.169 67.9775 667.835 67.2769 667.768 66.5431C667.768 66.0093 668.402 65.242 669.67 64.2413C670.938 63.2405 673.073 62.4065 676.075 61.7394C679.144 61.0055 683.347 60.872 688.685 61.339C693.488 61.7394 697.258 62.54 699.993 63.7409C702.795 64.8751 704.83 66.1094 706.098 67.4437C707.366 68.7114 708.166 69.8456 708.5 70.8464C708.833 71.7804 709 72.2474 709 72.2474C709 72.2474 709.034 72.3475 709.1 72.5477C709.234 72.7478 709.334 73.3817 709.401 74.4491C709.534 75.4499 709.634 77.1179 709.701 79.453C709.767 81.7881 709.767 85.0573 709.701 89.2605C709.634 92.6632 708.833 95.3652 707.299 97.3668C705.831 99.3683 703.996 100.869 701.795 101.87C699.593 102.804 697.391 103.438 695.19 103.772C693.055 104.039 691.253 104.172 689.785 104.172C688.318 104.105 687.584 104.072 687.584 104.072C687.584 104.072 687.584 104.806 687.584 106.274C687.65 107.675 687.65 110.043 687.584 113.379C687.584 115.047 687.117 116.315 686.183 117.182C685.315 117.983 684.281 118.516 683.08 118.783C681.946 119.05 680.912 119.184 679.978 119.184C679.111 119.184 678.677 119.184 678.677 119.184ZM686.583 70.6462L687.484 95.4653C687.484 95.4653 687.917 95.432 688.785 95.3653C689.652 95.2318 690.653 94.8982 691.787 94.3645C692.921 93.8307 693.889 92.93 694.689 91.6624C695.557 90.328 695.923 88.4599 695.79 86.0581C695.657 82.8556 695.523 80.4538 695.39 78.8525C695.256 77.2513 695.156 76.2172 695.09 75.7501C695.09 75.2164 695.09 74.9495 695.09 74.9495C695.09 74.9495 695.023 74.6827 694.889 74.1489C694.823 73.5484 694.556 72.9146 694.089 72.2474C693.622 71.5803 692.788 71.0799 691.587 70.7463C690.453 70.346 688.785 70.3126 686.583 70.6462Z" fill="white"/>
<path d="M637.764 72.6359C637.83 72.6273 638.426 72.5499 639.55 72.4036C640.684 72.3236 642.077 72.176 643.731 71.9609C645.394 71.812 647.019 71.6344 648.607 71.4279C650.269 71.279 651.663 71.1314 652.788 70.9852C653.921 70.9051 654.488 70.8651 654.488 70.8651C654.488 70.8651 654.851 70.8178 655.579 70.7231C656.307 70.6285 657.15 70.3843 658.108 69.9906C659.075 69.663 659.876 69.088 660.51 68.2655C661.21 67.4343 661.496 66.2535 661.366 64.7229C661.245 63.2585 660.666 62.1564 659.629 61.4166C658.666 60.7344 657.536 60.3095 656.236 60.1421C655.011 60.0323 653.898 60.0088 652.897 60.0717C651.962 60.1259 651.495 60.1531 651.495 60.1531C651.495 60.1531 650.792 60.1772 649.385 60.2255C648.054 60.3314 646.279 60.394 644.062 60.4132C641.844 60.4324 639.416 60.3781 636.776 60.2504C634.144 60.1889 631.595 59.9821 629.128 59.6301C626.661 59.278 624.647 59.3045 623.084 59.7095C621.58 60.0397 620.431 60.5254 619.639 61.1666C618.856 61.874 618.304 62.5513 617.984 63.1984C617.738 63.9032 617.628 64.3548 617.653 64.5533C617.647 65.0251 617.852 65.5704 618.268 66.1891C618.692 66.874 619.384 67.2886 620.345 67.4328C620.684 67.456 620.969 68.3609 621.199 70.1476C621.437 72.0004 621.607 74.3667 621.708 77.2465C621.884 80.184 621.991 83.3659 622.028 86.7923C622.066 90.2187 622.033 93.6206 621.929 96.9981C621.892 100.367 621.807 103.372 621.676 106.013C621.545 108.654 621.329 110.633 621.028 111.95C620.613 113.955 620.738 115.453 621.404 116.443C622.069 117.433 622.895 118.099 623.881 118.442C624.941 118.842 625.877 119.057 626.688 119.086C627.565 119.107 628.004 119.117 628.004 119.117C628.004 119.117 628.438 119.094 629.307 119.048C630.25 119.06 631.3 118.857 632.457 118.437C633.688 118.075 634.774 117.362 635.713 116.298C636.727 115.291 637.334 113.732 637.533 111.621C637.779 108.83 638.061 105.531 638.378 101.722C638.77 97.9704 638.957 93.6738 638.94 88.832C638.988 83.9815 638.596 78.5828 637.764 72.6359Z" fill="white"/>
<path d="M382.071 73.4758C382.137 73.4672 382.732 73.3897 383.857 73.2435C384.99 73.1634 386.384 73.0159 388.038 72.8008C389.7 72.6519 391.326 72.4742 392.913 72.2677C394.576 72.1189 395.97 71.9713 397.094 71.825C398.228 71.745 398.794 71.7049 398.794 71.7049C398.794 71.7049 399.158 71.6576 399.886 71.563C400.614 71.4684 401.457 71.2242 402.415 70.8304C403.382 70.5029 404.182 69.9278 404.817 69.1053C405.517 68.2742 405.802 67.0933 405.673 65.5628C405.551 64.0984 404.972 62.9963 403.935 62.2565C402.973 61.5742 401.842 61.1494 400.543 60.982C399.318 60.8721 398.205 60.8487 397.204 60.9115C396.269 60.9658 395.802 60.9929 395.802 60.9929C395.802 60.9929 395.098 61.0171 393.692 61.0654C392.36 61.1713 390.586 61.2338 388.368 61.253C386.151 61.2722 383.722 61.2179 381.082 61.0902C378.451 61.0287 375.902 60.8219 373.435 60.4699C370.968 60.1179 368.953 60.1444 367.391 60.5493C365.886 60.8795 364.738 61.3652 363.946 62.0065C363.163 62.7139 362.611 63.3911 362.29 64.0383C362.045 64.743 361.935 65.1947 361.96 65.3932C361.954 65.865 362.158 66.4103 362.574 67.029C362.999 67.7139 363.691 68.1284 364.651 68.2727C364.991 68.2958 365.275 69.2007 365.505 70.9874C365.744 72.8402 365.913 75.2066 366.015 78.0864C366.191 81.0238 366.298 84.2057 366.335 87.6321C366.372 91.0585 366.339 94.4605 366.236 97.8379C366.198 101.207 366.114 104.212 365.983 106.853C365.852 109.494 365.636 111.473 365.334 112.79C364.92 114.795 365.045 116.293 365.71 117.283C366.376 118.273 367.202 118.939 368.188 119.282C369.248 119.682 370.184 119.897 370.995 119.926C371.872 119.947 372.31 119.957 372.31 119.957C372.31 119.957 372.745 119.934 373.613 119.888C374.557 119.9 375.607 119.696 376.764 119.277C377.995 118.915 379.081 118.202 380.02 117.138C381.034 116.131 381.641 114.572 381.84 112.461C382.086 109.67 382.368 106.37 382.685 102.562C383.077 98.8103 383.264 94.5137 383.246 89.6718C383.295 84.8214 382.903 79.4227 382.071 73.4758Z" fill="white"/>
<path d="M678.612 179.791C678.678 179.779 679.269 179.674 680.386 179.475C681.514 179.342 682.899 179.129 684.541 178.836C686.195 178.61 687.81 178.356 689.386 178.075C691.04 177.848 692.425 177.636 693.542 177.437C694.67 177.304 695.234 177.237 695.234 177.237C695.234 177.237 695.596 177.173 696.318 177.044C697.041 176.915 697.871 176.632 698.81 176.193C699.761 175.821 700.534 175.209 701.129 174.357C701.79 173.494 702.02 172.301 701.819 170.778C701.63 169.321 701 168.247 699.93 167.557C698.937 166.92 697.788 166.549 696.482 166.443C695.253 166.391 694.141 166.419 693.144 166.529C692.213 166.627 691.747 166.676 691.747 166.676C691.747 166.676 691.046 166.733 689.643 166.848C688.318 167.016 686.548 167.162 684.335 167.285C682.121 167.408 679.692 167.468 677.05 167.464C674.418 167.526 671.863 167.439 669.382 167.203C666.902 166.968 664.891 167.089 663.349 167.566C661.861 167.967 660.737 168.506 659.976 169.184C659.226 169.927 658.706 170.63 658.416 171.291C658.204 172.007 658.115 172.463 658.15 172.66C658.165 173.132 658.395 173.667 658.839 174.266C659.295 174.93 660.006 175.311 660.972 175.41C661.312 175.418 661.638 176.308 661.951 178.082C662.275 179.922 662.554 182.278 662.79 185.15C663.102 188.076 663.357 191.25 663.553 194.671C663.75 198.092 663.875 201.492 663.928 204.871C664.047 208.238 664.103 211.244 664.095 213.889C664.087 216.533 663.963 218.52 663.723 219.851C663.402 221.873 663.597 223.363 664.307 224.321C665.018 225.278 665.874 225.905 666.875 226.202C667.952 226.552 668.897 226.722 669.709 226.713C670.586 226.693 671.024 226.682 671.024 226.682C671.024 226.682 671.457 226.639 672.322 226.553C673.265 226.52 674.304 226.268 675.44 225.794C676.654 225.375 677.705 224.612 678.594 223.504C679.56 222.451 680.093 220.866 680.194 218.747C680.31 215.948 680.438 212.638 680.578 208.818C680.795 205.052 680.782 200.751 680.54 195.915C680.363 191.067 679.72 185.693 678.612 179.791Z" fill="white"/>
<path d="M822.906 182.181C822.972 182.173 823.568 182.095 824.692 181.949C825.826 181.869 827.219 181.722 828.873 181.507C830.536 181.358 832.161 181.18 833.749 180.974C835.411 180.825 836.805 180.678 837.93 180.531C839.063 180.451 839.63 180.411 839.63 180.411C839.63 180.411 839.994 180.364 840.721 180.27C841.449 180.175 842.292 179.931 843.251 179.537C844.217 179.21 845.018 178.635 845.652 177.812C846.352 176.981 846.638 175.8 846.508 174.27C846.387 172.805 845.808 171.703 844.771 170.963C843.809 170.281 842.678 169.856 841.378 169.689C840.154 169.579 839.041 169.555 838.04 169.618C837.105 169.672 836.638 169.699 836.638 169.699C836.638 169.699 835.934 169.723 834.528 169.772C833.196 169.877 831.422 169.94 829.204 169.959C826.987 169.978 824.558 169.924 821.918 169.796C819.287 169.734 816.738 169.527 814.271 169.175C811.804 168.823 809.789 168.849 808.227 169.254C806.722 169.584 805.574 170.07 804.782 170.711C803.998 171.419 803.446 172.096 803.126 172.743C802.88 173.448 802.77 173.899 802.796 174.098C802.789 174.57 802.994 175.115 803.41 175.734C803.834 176.419 804.527 176.833 805.487 176.977C805.826 177.001 806.111 177.906 806.341 179.692C806.579 181.545 806.749 183.911 806.85 186.791C807.026 189.729 807.133 192.911 807.17 196.337C807.207 199.763 807.173 203.165 807.07 206.543C807.032 209.912 806.948 212.917 806.816 215.557C806.685 218.198 806.469 220.178 806.168 221.495C805.753 223.5 805.878 224.998 806.544 225.988C807.209 226.978 808.035 227.644 809.02 227.987C810.081 228.387 811.017 228.602 811.828 228.631C812.705 228.652 813.143 228.662 813.143 228.662C813.143 228.662 813.578 228.639 814.446 228.594C815.39 228.605 816.44 228.402 817.597 227.982C818.828 227.62 819.914 226.907 820.853 225.843C821.867 224.837 822.474 223.278 822.673 221.166C822.92 218.376 823.202 215.076 823.519 211.267C823.911 207.516 824.098 203.219 824.081 198.378C824.13 193.527 823.738 188.128 822.906 182.181Z" fill="white"/>
<path d="M439.015 96.8657C438.872 95.2409 438.777 93.2099 438.729 90.7727C438.681 88.2877 438.657 85.6355 438.657 82.816C438.657 79.9965 438.681 77.2726 438.729 74.6442C438.824 71.9681 438.92 69.6026 439.015 67.5477C439.111 65.4928 439.207 64.0114 439.302 63.1034C439.446 61.9565 439.852 61.0963 440.521 60.5228C441.19 59.9016 441.931 59.4715 442.743 59.2325C443.603 58.9936 444.32 58.8741 444.893 58.8741C445.515 58.8263 445.825 58.8025 445.825 58.8025C445.825 58.8025 446.112 58.8502 446.685 58.9458C447.307 58.9936 447.976 59.1131 448.693 59.3042C449.409 59.4954 449.911 59.8299 450.198 60.3078C450.819 61.2635 451.106 62.1954 451.058 63.1034C451.058 63.9636 451.01 65.0866 450.915 66.4724C450.628 70.0566 450.461 73.569 450.413 77.0097C450.365 80.4505 450.365 83.5806 450.413 86.4001C450.461 89.2196 450.509 91.4656 450.556 93.1382C450.652 94.8108 450.7 95.6471 450.7 95.6471C450.7 95.6471 450.676 95.9099 450.628 96.4356C450.628 96.9135 450.485 97.463 450.198 98.0843C449.911 98.7055 449.362 99.279 448.549 99.8047C447.737 100.283 446.542 100.521 444.965 100.521C443.388 100.521 442.169 100.354 441.309 100.02C440.497 99.6374 439.923 99.2073 439.589 98.7294C439.302 98.2038 439.135 97.7737 439.087 97.4392C439.039 97.0568 439.015 96.8657 439.015 96.8657Z" fill="white"/>
<path d="M431.19 69.5973C431.237 69.5913 431.664 69.5377 432.47 69.4366C433.282 69.3828 434.281 69.2815 435.466 69.1327C436.658 69.0314 437.822 68.9093 438.96 68.7664C440.152 68.665 441.15 68.5638 441.956 68.4626C442.768 68.4088 443.174 68.382 443.174 68.382C443.174 68.382 443.435 68.3492 443.957 68.2837C444.478 68.2183 445.083 68.0461 445.771 67.7671C446.464 67.5355 447.039 67.1262 447.496 66.5391C448 65.946 448.208 65.1011 448.12 64.0044C448.038 62.9551 447.627 62.1639 446.886 61.6307C446.199 61.139 445.391 60.8311 444.46 60.7071C443.583 60.6245 442.786 60.6042 442.069 60.646C441.399 60.6819 441.064 60.6999 441.064 60.6999C441.064 60.6999 440.561 60.715 439.553 60.7451C438.599 60.8167 437.328 60.8559 435.739 60.8626C434.151 60.8693 432.412 60.8227 430.521 60.7229C428.637 60.6705 426.811 60.5143 425.045 60.2543C423.28 59.9943 421.837 60.0069 420.716 60.292C419.637 60.5237 418.813 60.868 418.244 61.3248C417.681 61.8289 417.283 62.3123 417.052 62.7748C416.874 63.2788 416.793 63.6019 416.811 63.7442C416.805 64.0821 416.95 64.4733 417.246 64.9178C417.548 65.4097 418.042 65.7088 418.73 65.8152C418.973 65.8329 419.174 66.4819 419.333 67.7624C419.498 69.0902 419.612 70.7857 419.675 72.8487C419.792 74.9532 419.859 77.2326 419.875 79.6869C419.891 82.1413 419.856 84.5778 419.771 86.9966C419.734 89.4095 419.664 91.5615 419.562 93.4527C419.46 95.3439 419.299 96.7608 419.079 97.7035C418.776 99.1383 418.861 100.211 419.334 100.922C419.808 101.634 420.397 102.114 421.102 102.362C421.861 102.652 422.53 102.809 423.111 102.832C423.739 102.85 424.053 102.859 424.053 102.859C424.053 102.859 424.364 102.844 424.987 102.814C425.662 102.825 426.415 102.683 427.245 102.386C428.128 102.13 428.908 101.623 429.584 100.864C430.314 100.146 430.753 99.0316 430.902 97.5198C431.087 95.5219 431.3 93.1593 431.539 90.4322C431.831 87.7465 431.979 84.6696 431.981 81.2016C432.031 77.7275 431.768 73.8594 431.19 69.5973Z" fill="white"/>
<path d="M415.307 103.29C415.299 103.341 415.234 103.806 415.109 104.683C415.036 105.568 414.909 106.656 414.726 107.946C414.594 109.244 414.441 110.512 414.265 111.751C414.134 113.049 414.006 114.137 413.882 115.014C413.809 115.899 413.772 116.341 413.772 116.341C413.772 116.341 413.732 116.625 413.652 117.193C413.571 117.761 413.373 118.417 413.057 119.162C412.792 119.914 412.336 120.533 411.688 121.02C411.032 121.558 410.107 121.767 408.913 121.649C407.77 121.538 406.915 121.073 406.346 120.254C405.822 119.495 405.501 118.606 405.382 117.588C405.307 116.63 405.299 115.759 405.357 114.978C405.408 114.248 405.433 113.883 405.433 113.883C405.433 113.883 405.458 113.333 405.509 112.235C405.604 111.195 405.668 109.809 405.704 108.076C405.739 106.343 405.718 104.444 405.642 102.379C405.618 100.322 405.48 98.327 405.227 96.3949C404.974 94.4628 405.013 92.8884 405.344 91.6718C405.615 90.4994 406.005 89.6073 406.513 88.9954C407.073 88.391 407.606 87.9671 408.115 87.724C408.667 87.5398 409.021 87.4588 409.176 87.481C409.545 87.4812 409.969 87.6472 410.448 87.9793C410.979 88.3187 411.297 88.8645 411.401 89.6167C411.416 89.8821 412.12 90.1147 413.513 90.3143C414.958 90.5213 416.805 90.6805 419.053 90.792C421.346 90.9624 423.83 91.0813 426.506 91.1487C429.181 91.216 431.839 91.2281 434.478 91.1848C437.109 91.1931 439.457 91.1608 441.521 91.0878C443.584 91.0148 445.132 90.8679 446.164 90.6471C447.734 90.3453 448.902 90.4601 449.669 90.9913C450.436 91.5225 450.949 92.1753 451.208 92.9497C451.511 93.7831 451.67 94.5169 451.686 95.151C451.694 95.8368 451.698 96.1797 451.698 96.1797C451.698 96.1797 451.676 96.5189 451.633 97.1973C451.633 97.9348 451.465 98.7532 451.127 99.6527C450.833 100.611 450.266 101.452 449.427 102.174C448.631 102.955 447.408 103.412 445.757 103.544C443.575 103.706 440.996 103.889 438.018 104.095C435.085 104.359 431.727 104.457 427.946 104.389C424.157 104.373 419.944 104.007 415.307 103.29Z" fill="white"/>
<path d="M451.569 105.352C451.575 105.403 451.633 105.869 451.742 106.748C451.8 107.634 451.909 108.724 452.069 110.018C452.178 111.317 452.31 112.588 452.464 113.83C452.573 115.13 452.682 116.219 452.791 117.099C452.849 117.985 452.878 118.428 452.878 118.428C452.878 118.428 452.913 118.712 452.984 119.281C453.054 119.85 453.241 120.51 453.545 121.26C453.796 122.017 454.242 122.644 454.881 123.141C455.527 123.691 456.449 123.917 457.645 123.819C458.789 123.728 459.653 123.278 460.235 122.469C460.772 121.719 461.109 120.836 461.246 119.821C461.337 118.863 461.36 117.994 461.316 117.211C461.277 116.48 461.258 116.115 461.258 116.115C461.258 116.115 461.242 115.565 461.211 114.466C461.134 113.425 461.093 112.037 461.088 110.304C461.083 108.571 461.136 106.673 461.247 104.61C461.307 102.553 461.48 100.561 461.766 98.6336C462.052 96.7062 462.04 95.1315 461.731 93.9093C461.48 92.7324 461.105 91.8336 460.608 91.213C460.059 90.5989 459.532 90.1658 459.028 89.9139C458.479 89.7201 458.126 89.633 457.971 89.6525C457.603 89.6462 457.176 89.8048 456.691 90.1284C456.154 90.4585 455.827 90.9987 455.71 91.749C455.69 92.0141 454.982 92.2344 453.586 92.4097C452.137 92.5915 450.288 92.7185 448.038 92.7908C445.743 92.9212 443.257 92.9968 440.581 93.0176C437.904 93.0383 435.247 93.004 432.609 92.9148C429.978 92.8773 427.631 92.8041 425.569 92.6952C423.506 92.5862 421.961 92.4124 420.933 92.1736C419.369 91.8446 418.199 91.9389 417.423 92.4567C416.646 92.9744 416.122 93.6182 415.85 94.3879C415.533 95.2159 415.361 95.9468 415.334 96.5806C415.315 97.2661 415.305 97.6089 415.305 97.6089C415.305 97.6089 415.321 97.9484 415.352 98.6275C415.339 99.3647 415.493 100.186 415.816 101.091C416.093 102.055 416.645 102.905 417.472 103.642C418.254 104.437 419.469 104.915 421.118 105.076C423.296 105.275 425.872 105.503 428.846 105.761C431.775 106.076 435.13 106.233 438.912 106.231C442.701 106.281 446.92 105.988 451.569 105.352Z" fill="white"/>
<path d="M599.236 119.184C601.638 119.184 603.473 118.917 604.74 118.383C605.941 117.783 606.808 117.115 607.342 116.381C607.809 115.581 608.076 114.914 608.143 114.38C608.143 113.779 608.143 113.479 608.143 113.479C608.143 113.479 608.243 112.478 608.443 110.477C608.643 108.475 608.91 105.907 609.244 102.771C609.577 99.5685 609.944 96.1659 610.345 92.5631C610.678 88.8936 611.045 85.3909 611.445 82.055C611.779 78.6524 612.046 75.7835 612.246 73.4484C612.446 71.0465 612.58 69.5454 612.646 68.9449C612.713 67.2102 612.346 65.7091 611.545 64.4414C610.678 63.1071 608.61 62.3398 605.341 62.1397C603.139 62.0062 601.371 62.3398 600.037 63.1404C598.702 63.941 597.735 64.775 597.134 65.6424C596.534 66.443 596.234 66.8433 596.234 66.8433L586.826 89.6609L583.124 96.5662L585.425 77.5515C585.425 77.5515 585.425 76.4507 585.425 74.249C585.359 72.0473 585.225 69.4119 585.025 66.3429C584.892 64.8084 584.391 63.6408 583.524 62.8402C582.657 62.0396 581.689 61.4725 580.622 61.1389C579.487 60.8053 578.52 60.6385 577.719 60.6385C576.852 60.5718 576.418 60.5384 576.418 60.5384C576.418 60.5384 576.051 60.5718 575.318 60.6385C574.517 60.7052 573.616 61.0055 572.615 61.5392C571.615 62.0062 570.747 62.8736 570.013 64.1412C569.213 65.3421 568.846 67.1102 568.913 69.4453C568.979 72.3142 568.879 75.5833 568.612 79.2528C568.346 82.8556 568.012 86.5585 567.612 90.3614C567.145 94.1643 566.711 97.7337 566.311 101.07C565.844 104.339 565.443 107.074 565.11 109.276C564.709 111.478 564.476 112.845 564.409 113.379C564.276 114.18 564.242 115.147 564.309 116.281C564.376 117.416 564.91 118.416 565.91 119.284C566.844 120.151 568.612 120.618 571.214 120.685C573.816 120.685 575.751 120.385 577.019 119.784C578.287 119.184 579.154 118.583 579.621 117.983C580.021 117.315 580.221 116.982 580.221 116.982L595.233 90.0612C595.233 90.0612 595.099 90.7283 594.833 92.0627C594.566 93.3971 594.265 95.1317 593.932 97.2667C593.532 99.4017 593.165 101.703 592.831 104.172C592.431 106.641 592.131 109.009 591.93 111.278C591.73 113.546 591.997 115.247 592.731 116.381C593.398 117.449 594.265 118.183 595.333 118.583C596.334 118.983 597.234 119.184 598.035 119.184C598.836 119.184 599.236 119.184 599.236 119.184Z" fill="white"/>
<path d="M468.135 68.4445C468.135 68.4445 468.069 68.1776 467.935 67.6439C467.802 67.0434 467.835 66.3429 468.035 65.5423C468.302 64.7417 468.903 64.0078 469.837 63.3406C470.837 62.6734 472.405 62.2397 474.54 62.0396C476.675 61.8394 479.077 61.6726 481.746 61.5392C484.481 61.4058 487.083 61.2723 489.552 61.1389C492.087 61.0055 494.155 60.9054 495.757 60.8387C497.358 60.7719 498.158 60.7386 498.158 60.7386C498.158 60.7386 498.592 60.7719 499.459 60.8387C500.393 60.8387 501.461 60.9721 502.662 61.239C503.929 61.4391 505.064 61.8728 506.064 62.54C507.065 63.1404 507.666 64.0411 507.866 65.242C508.066 66.443 507.832 67.377 507.165 68.0442C506.498 68.7114 505.698 69.2118 504.763 69.5454C503.829 69.8122 502.995 69.979 502.262 70.0457C501.528 70.1125 501.161 70.1458 501.161 70.1458L485.148 71.0465C485.148 71.0465 485.248 71.4802 485.449 72.3475C485.649 73.2149 485.849 74.2156 486.049 75.3498C486.316 76.4173 486.483 77.3514 486.549 78.152C486.616 78.8859 486.683 79.8533 486.75 81.0542C486.816 82.1884 486.883 83.2226 486.95 84.1566C487.016 85.024 487.05 85.4576 487.05 85.4576H494.456C494.456 85.4576 494.822 85.491 495.556 85.5577C496.29 85.5577 497.124 85.6911 498.058 85.958C499.059 86.1582 499.926 86.4917 500.66 86.9588C501.394 87.4258 501.795 88.1263 501.861 89.0604C501.928 90.2613 501.461 91.162 500.46 91.7625C499.526 92.3629 498.525 92.7632 497.458 92.9634C496.457 93.0968 495.823 93.1969 495.556 93.2636C495.356 93.2636 494.822 93.297 493.955 93.3637C493.088 93.3637 492.12 93.3637 491.053 93.3637C490.052 93.3637 489.151 93.3637 488.351 93.3637C487.55 93.3637 487.15 93.3637 487.15 93.3637C487.15 93.3637 487.15 93.8641 487.15 94.8649C487.217 95.7989 487.283 96.8998 487.35 98.1674C487.417 99.4351 487.417 100.536 487.35 101.47C487.35 102.337 487.317 103.405 487.25 104.672C487.183 105.873 487.117 106.941 487.05 107.875C486.983 108.742 486.95 109.176 486.95 109.176L500.46 108.676C500.46 108.676 500.894 108.676 501.761 108.676C502.628 108.609 503.663 108.676 504.864 108.876C506.064 109.076 507.132 109.476 508.066 110.077C509 110.677 509.5 111.578 509.567 112.779C509.701 113.98 509.367 114.947 508.566 115.681C507.766 116.415 506.832 116.949 505.764 117.282C504.697 117.616 503.729 117.849 502.862 117.983C502.061 118.049 501.661 118.083 501.661 118.083L480.044 119.184C480.044 119.184 479.511 119.184 478.443 119.184C477.442 119.25 476.275 119.184 474.94 118.983C473.606 118.717 472.439 118.216 471.438 117.482C470.437 116.682 469.97 115.481 470.037 113.88C470.17 111.745 470.304 108.409 470.437 103.872C470.57 99.2683 470.504 93.8975 470.237 87.7594C469.97 81.6213 469.269 75.183 468.135 68.4445Z" fill="white"/>
</svg>
