<svg width="501" height="169" viewBox="0 0 501 169" fill="none" xmlns="http://www.w3.org/2000/svg">
<g clip-path="url(#clip0_693_686)">
<path d="M50.914 70.5122C56.0776 72.8322 58.6865 74.2766 61.7467 73.2204C64.7167 72.2003 66.2152 69.465 66.5944 68.7067C68.7338 64.4368 66.7839 59.9773 66.2604 58.7767C63.7508 53.0353 57.9914 50.616 53.6222 48.8467C48.7384 46.8697 37.2105 42.2116 23.8321 47.0412C21.0697 48.0342 4.52269 54.0103 1.94991 68.7067C1.84159 69.3206 0.207645 79.5665 6.68022 87.664C9.587 91.3111 12.9361 93.0172 16.6102 94.8859C22.2433 97.7565 24.5904 97.4496 36.4703 101.205C45.3532 104.012 47.5739 105.303 48.2058 107.524C49.1717 110.918 45.8045 114.439 45.4976 114.746C42.1485 118.158 37.2737 117.987 34.2767 117.878C28.1471 117.662 23.4439 115.125 21.1239 113.843C15.1117 110.521 14.4347 107.903 10.2911 107.524C9.9481 107.488 4.8567 107.1 1.94991 110.458C-1.77836 114.773 0.911774 121.977 1.26384 122.87C5.93095 134.868 24.2834 137.504 29.2485 138.217C36.9758 139.327 49.6321 141.151 59.9413 132.801C61.3405 131.672 70.3497 124.134 70.774 112.038C70.8462 110.007 70.9997 102.83 66.2604 96.6913C65.2764 95.4185 62.6856 92.3763 53.6222 88.5668C37.7883 81.9136 28.3728 83.9087 25.6375 77.734C24.7077 75.6306 24.6536 72.8141 25.6375 70.5122C27.3166 66.5853 31.5685 65.2131 31.9566 65.0958C33.2566 64.6986 36.4432 64.0125 50.914 70.5122Z" fill="#FFF5E1"/>
<path d="M176.393 110.801C174.182 107.154 171.437 101.665 169.172 93.6491C169.289 89.1806 168.901 80.9567 164.658 71.9836C162.907 68.2734 159.783 61.8459 152.922 56.6372C141.999 48.3411 129.641 49.1174 125.84 49.4153C122.076 49.7132 109.095 51.2298 98.7586 62.0536C90.625 70.5753 88.621 80.1443 87.9259 83.7191C87.1315 87.7813 83.0782 111.695 100.564 126.147C110.043 133.983 123.484 136.917 135.771 133.369C146.802 130.183 153.265 122.834 155.631 119.828C157.499 122.925 159.594 124.947 161.047 126.147C162.807 127.61 164.559 129.054 167.366 129.758C168.594 130.065 170.941 130.679 173.685 129.758C174.57 129.46 177.549 128.323 179.102 125.245C179.49 124.477 180.049 123.069 180.004 120.731C179.914 115.874 177.242 112.209 176.393 110.801ZM144.798 93.6491C143.85 100.636 139.02 109.961 129.451 111.704C121.2 113.202 113.32 108.373 109.591 101.774C105.006 93.6491 107.118 83.5295 113.202 77.4C118.483 72.0739 127.826 68.6615 135.771 72.8863C144.058 77.2916 145.664 87.2848 144.798 93.6491Z" fill="#FFF5E1"/>
<path d="M196.253 57.558C196.127 69.8983 196.001 82.2296 195.874 94.5699C196.001 103.895 196.127 113.229 196.253 122.555C195.369 130.787 201.995 137.332 208.594 136.998C214.534 136.691 220.067 130.824 219.724 123.457C220.022 117.138 220.329 110.819 220.627 104.5V84.6399C221.232 79.1152 226.179 75.1251 231.46 75.6126C236.416 76.073 240.397 80.3519 240.487 85.5426V124.36C239.548 132.277 245.488 138.127 250.417 137.901C254.931 137.693 259.878 132.358 259.444 125.263V86.3009C258.451 80.2978 263.01 74.9265 268.472 74.7099C273.933 74.4932 278.907 79.4763 278.402 85.5426V124.36C277.544 131.717 282.59 137.531 287.429 137.901C292.647 138.298 298.975 132.457 298.262 124.36V83.6559C298.551 82.031 300.266 71.3608 292.845 62.0717C286.012 53.5138 276.38 52.3402 274.294 52.1416C263.119 51.0674 255.418 57.2962 254.028 58.4607C252.719 56.9351 248.846 52.8277 242.293 51.2389C234.674 49.3973 228.598 52.2048 226.946 53.0444C220.79 56.1588 217.928 61.178 217.016 62.9744C217.206 61.4759 217.35 59.2732 217.016 56.6553C216.691 54.1186 216.429 52.0965 215.211 50.3362C213.053 47.2037 208.088 45.1726 203.475 46.7253C199.034 48.2148 196.037 52.6472 196.253 57.558Z" fill="#FFF5E1"/>
<path d="M391.243 74.0869C391.252 73.464 391.342 69.0046 390.34 63.2542C389.564 58.7947 388.986 55.7164 386.729 52.4214C385.908 51.2298 383.597 48.1515 379.507 46.1023C376.42 44.5586 373.613 44.2517 366.869 44.2969C357.977 44.36 353.536 44.3871 348.932 45.1996C343.164 46.2197 334.759 47.6911 328.052 52.4214C314.403 62.0445 308.345 84.7752 316.316 102.072C321.67 113.708 331.663 119.169 333.468 120.126C342.098 124.685 350.223 124.685 354.231 124.64C360.776 124.568 366.084 123.15 369.577 121.932C369.794 123.71 369.93 126.202 369.577 129.153C369.433 130.372 369.036 133.649 367.772 136.375C364.143 144.22 353.951 146.197 353.328 146.305C352.254 146.495 343.48 147.939 337.079 142.694C332.349 138.822 333.116 134.624 328.955 133.216C324.983 131.871 319.864 133.875 317.219 137.278C312.299 143.615 317.364 153.031 318.122 154.43C321.706 161.083 327.808 163.854 331.663 165.606C341.8 170.21 351.225 169.027 356.939 168.314C362.717 167.592 368.747 166.833 374.994 162.554C376.447 161.561 381.421 157.806 385.827 149.916C388.517 145.096 390.124 140.031 391.243 117.418C392.471 92.6471 390.891 91.7624 391.243 74.0869ZM370.48 98.4606C366.941 104.337 357.968 106.856 350.62 104.78C342.225 102.406 338.731 94.8136 337.982 93.0443C337.747 92.4936 333.333 81.5706 339.787 73.1842C343.994 67.7227 350.259 66.6484 354.231 65.9624C358.429 65.2402 364.874 64.1388 368.675 67.7678C369.496 68.5532 370.904 70.2413 371.383 84.017C371.663 92.1776 371.78 96.2941 370.48 98.4606Z" fill="#FFF5E1"/>
<path d="M328.052 21.169C328.196 26.9645 333.92 31.1802 337.982 32.9045C344.725 35.7661 347.397 31.9837 359.647 32.0017C371.897 32.0198 374.678 35.8022 380.41 32.9045C385.574 30.2956 389.374 24.157 389.438 17.5581C389.438 16.7546 389.374 8.25995 382.216 3.11439C374.669 -2.30199 366.093 0.902702 365.064 1.30893C355.549 5.05526 353.464 15.0665 353.328 15.7526C352.769 14.9672 349.076 10.0022 342.496 9.4335C341.476 9.34322 335.852 8.85575 331.663 13.0444C331.094 13.6131 327.944 16.7637 328.052 21.169Z" fill="#FFF5E1"/>
<path d="M497.034 110.801C494.822 107.154 492.078 101.665 489.812 93.6491C489.929 89.1806 489.541 80.9567 485.298 71.9836C483.547 68.2734 480.424 61.8459 473.563 56.6372C462.64 48.3411 450.282 49.1174 446.481 49.4153C442.717 49.7132 429.735 51.2298 419.399 62.0536C411.266 70.5753 409.261 80.1443 408.566 83.7191C407.772 87.7813 403.719 111.695 421.205 126.147C430.683 133.983 444.125 136.917 456.411 133.369C467.442 130.183 473.906 122.834 476.271 119.828C478.14 122.925 480.234 124.947 481.688 126.147C483.448 127.61 485.199 129.054 488.007 129.758C489.234 130.065 491.581 130.679 494.326 129.758C495.21 129.46 498.189 128.323 499.742 125.245C500.13 124.477 500.69 123.069 500.645 120.731C500.555 115.874 497.882 112.209 497.034 110.801ZM465.438 93.6491C464.491 100.636 459.661 109.961 450.092 111.704C441.841 113.202 433.96 108.373 430.232 101.774C425.646 93.6491 427.758 83.5295 433.843 77.4C439.124 72.0739 448.467 68.6615 456.411 72.8863C464.698 77.2916 466.305 87.2848 465.438 93.6491Z" fill="#FFF5E1"/>
<path d="M382.216 32.4712C385.42 32.7961 388.86 32.8503 391.694 31.2796C392.308 30.9185 392.76 30.4129 393.021 29.9074C393.725 28.6616 394.24 27.8853 394.312 26.45C394.33 25.7549 394.186 24.9785 393.924 24.0667L394.15 23.8411C396.217 24.473 397.418 26.8923 397.002 29.0408C396.623 31.3157 394.718 32.8684 392.796 33.5905C389.185 34.9085 385.493 34.1141 382.134 32.7871L382.216 32.4802V32.4712Z" fill="#FFF5E1"/>
<path d="M393.5 29.745C394.996 29.745 396.208 28.5325 396.208 27.0368C396.208 25.5411 394.996 24.3286 393.5 24.3286C392.004 24.3286 390.792 25.5411 390.792 27.0368C390.792 28.5325 392.004 29.745 393.5 29.745Z" fill="#FFF5E1"/>
<path d="M393.5 30.1963C391.758 30.1963 390.34 28.779 390.34 27.0368C390.34 25.2945 391.758 23.8772 393.5 23.8772C395.242 23.8772 396.659 25.2945 396.659 27.0368C396.659 28.779 395.242 30.1963 393.5 30.1963ZM393.5 24.7799C392.254 24.7799 391.243 25.791 391.243 27.0368C391.243 28.2825 392.254 29.2936 393.5 29.2936C394.746 29.2936 395.757 28.2825 395.757 27.0368C395.757 25.791 394.746 24.7799 393.5 24.7799Z" fill="#FFF5E1"/>
</g>
<defs>
<clipPath id="clip0_693_686">
<rect width="500.645" height="169" fill="white"/>
</clipPath>
</defs>
</svg>
